<svg width="220" height="65" viewBox="0 0 220 65" xmlns="http://www.w3.org/2000/svg">
    <g fill-rule="nonzero" fill="none">
        <path d="M53.6739726 42.9356164C53.709589 40.7689498 53.7273973 38.8486301 53.7273973 37.1746575 53.7273973 35.5006849 53.709589 33.6486301 53.6739726 31.6184932 53.6739726 31.0664384 53.5493151 30.71621 53.3 30.5678082 52.7926625 30.3729798 52.2474681 30.2968353 51.7061644 30.3452055L51.7061644 29.7041096 54.7157534 29.7753425 59.3191781 29.7041096C61.3707648 29.5732906 63.3979934 30.2077909 65.0089041 31.4849315 66.4004612 32.7719168 67.1421502 34.6147037 67.030137 36.5068493 67.0927959 38.7048299 66.2226856 40.8267346 64.6349315 42.3479452 63.0161246 43.9005731 60.8398164 44.7351456 58.5979452 44.6630137L54.6890411 44.5917808 52.5342466 44.6541096 52.5342466 44.2089041C52.8571893 44.0595349 53.1570446 43.864629 53.4246575 43.630137 53.5935069 43.4390231 53.6827257 43.1904851 53.6739726 42.9356164zM55.7486301 43.5143836C56.6011542 43.6884019 57.469662 43.7719697 58.339726 43.7636986 60.1410879 43.865753 61.8992686 43.1877829 63.1657534 41.9027397 64.3908393 40.470728 65.0131957 38.6196166 64.9020548 36.7383562 64.9761173 35.0828626 64.3603054 33.4707897 63.2013699 32.2863014 61.9464036 31.1351758 60.2806001 30.5381827 58.580137 30.630137 57.6204721 30.6231276 56.663566 30.7337698 55.7308219 30.959589 55.6952055 33.3340183 55.6773973 35.4116438 55.6773973 37.1924658 55.6773973 38.9732877 55.7011416 41.0805936 55.7486301 43.5143836zM69.9952055 42.819863L69.9952055 39.5253425C69.9952055 38.7833333 69.9952055 37.9789954 69.9952055 37.1123288 69.9952055 36.560274 69.8853881 36.2100457 69.6657534 36.0616438 69.2363067 35.8678091 68.7632311 35.7910111 68.2945205 35.8390411L68.2945205 35.3315068C68.8790493 35.2713332 69.4590422 35.1731805 70.0308219 35.0376712 70.6028454 34.8892716 71.1649235 34.7048862 71.7136986 34.4856164L72.0520548 34.6547945C71.9710638 35.0059615 71.9204206 35.3634428 71.9006849 35.7232877 71.9006849 36.1150685 71.8769406 36.8748858 71.8294521 38.0027397L71.8294521 39.5342466 71.8294521 42.819863C71.8294521 43.3719178 71.9333333 43.7221461 72.1410959 43.8705479 72.5893743 44.0645223 73.0796696 44.141131 73.5657534 44.0931507L73.5657534 44.6541096C72.5447489 44.606621 71.6543379 44.5828767 70.8945205 44.5828767 70.1347032 44.5828767 69.2442922 44.606621 68.2232877 44.6541096L68.2232877 44.1020548C68.6977682 44.149476 69.1764279 44.0727678 69.6123288 43.8794521 69.8557078 43.713242 69.9833333 43.3600457 69.9952055 42.819863zM70.9568493 29.7575342C71.2572308 29.7518326 71.545684 29.8749924 71.7493151 30.0958904 72.1743316 30.5695476 72.1743316 31.2873017 71.7493151 31.7609589 71.5410831 31.97811 71.2532546 32.1008827 70.9523973 32.1008827 70.6515399 32.1008827 70.3637114 31.97811 70.1554795 31.7609589 69.7304629 31.2873017 69.7304629 30.5695476 70.1554795 30.0958904 70.3591105 29.8749924 70.6475637 29.7518326 70.9479452 29.7575342L70.9568493 29.7575342zM77.0917808 42.4636986C77.0938714 42.7035002 77.2094856 42.9281221 77.4034247 43.0691781 77.6186188 43.2385522 77.8865462 43.3268106 78.160274 43.3184932L82.1315068 43.3184932C82.876468 43.2513023 83.6172896 43.4854147 84.1883562 43.9684932 84.6687936 44.5410132 84.9025504 45.2807094 84.8383562 46.0253425 84.8232905 47.3449057 84.1565976 48.5716207 83.0575342 49.3020548 81.8041958 50.2170258 80.2811319 50.6871073 78.730137 50.6376712 77.6290112 50.6766437 76.5439656 50.364849 75.6315068 49.7472603 74.8640113 49.2721015 74.388406 48.4414669 74.3671233 47.5390411 74.319848 46.9701369 74.4743054 46.4027426 74.8034247 45.9363014 75.4119515 45.3939336 76.1112072 44.9629269 76.8691781 44.6630137 76.6648309 44.6238907 76.464958 44.5642272 76.2726027 44.4849315 75.7720723 44.315764 75.4424 43.837558 75.4623288 43.309589 75.4986044 42.9649402 75.6640326 42.6468091 75.9253425 42.4191781 76.4111517 41.9640885 76.94566 41.5639538 77.5191781 41.2260274 76.9157881 41.1569625 76.3413694 40.9296524 75.8541096 40.5671233 75.2302756 40.0322317 74.8994212 39.2315639 74.9636986 38.4123288 74.9316714 37.3340442 75.3900808 36.2993486 76.210274 35.5986301 77.1078628 34.845834 78.2541669 34.455265 79.4246575 34.5034247L79.709589 34.5034247C80.591343 34.4662622 81.4599986 34.7265453 82.1760274 35.2424658L82.3541096 35.3938356 85.4260274 35.3938356 84.7938356 36.4267123 83.0130137 36.4267123C83.1064209 36.6676705 83.1488664 36.9253749 83.1376712 37.1835616 83.1184905 38.3039623 82.6071849 39.3591408 81.739726 40.0684932 80.7981165 40.8707527 79.5927247 41.2958119 78.3561644 41.2616438 78.0348072 41.4425022 77.7359336 41.6606799 77.4657534 41.9116438 77.2164384 42.1431507 77.0917808 42.3271689 77.0917808 42.4636986zM76.0232877 47.3431507C76.0424494 48.0602555 76.4073846 48.7237741 77.0027397 49.1239726 77.694458 49.6352625 78.5381938 49.8987339 79.3979452 49.8719178 80.3719228 49.892324 81.3205091 49.5603188 82.0691781 48.9369863 82.7731068 48.3796221 83.1805159 47.5286628 83.1732877 46.6308219 83.2030399 46.1282185 83.0186485 45.6365079 82.6657534 45.2773973 82.2631163 44.9411567 81.7468042 44.7722398 81.2232877 44.8054795L79.0506849 44.8054795C78.5817352 44.8054795 78.1573059 44.8054795 77.7773973 44.8054795 77.2528659 44.9797021 76.7975022 45.3165464 76.4773973 45.7671233 76.1677486 46.2333556 76.0091931 46.7836365 76.0232877 47.3431507zM78.9349315 35.2157534C78.3037933 35.1791975 77.6874455 35.4160048 77.2431507 35.8657534 76.8206606 36.3598864 76.6039317 36.9973243 76.6376712 37.6465753 76.5919653 38.4192013 76.815366 39.1837979 77.269863 39.810274 77.7050577 40.3398349 78.366239 40.6307547 79.0506849 40.5938356L78.9438356 40.5938356C79.6119181 40.6321256 80.2630794 40.3749169 80.7246575 39.890411 81.1778651 39.3452051 81.4070225 38.6481845 81.3657534 37.940411 81.4096761 37.216221 81.1951107 36.4999512 80.760274 35.9191781 80.3376789 35.4246905 79.7091548 35.154853 79.059589 35.1890411L78.9349315 35.2157534zM88.0794521 42.819863L88.0794521 39.5253425C88.0794521 38.7833333 88.0794521 37.9789954 88.0794521 37.1123288 88.0794521 36.560274 87.9696347 36.2100457 87.75 36.0616438 87.3178717 35.8662431 86.8415124 35.7894109 86.369863 35.8390411L86.369863 35.3315068C86.9695462 35.2703375 87.5644765 35.1691994 88.1506849 35.0287671 88.7227084 34.8803675 89.2847865 34.6959821 89.8335616 34.4767123L90.1719178 34.6458904C90.0909268 34.9970574 90.0402836 35.3545387 90.0205479 35.7143836 90.0205479 36.1061644 89.9968037 36.8659817 89.9493151 37.9938356L89.9493151 39.5342466 89.9493151 42.819863C89.9493151 43.3719178 90.0531963 43.7221461 90.2609589 43.8705479 90.7092373 44.0645223 91.1995326 44.141131 91.6856164 44.0931507L91.6856164 44.6541096C90.6646119 44.606621 89.7742009 44.5828767 89.0143836 44.5828767 88.2545662 44.5828767 87.3641553 44.606621 86.3431507 44.6541096L86.3431507 44.1020548C86.8176312 44.149476 87.2962909 44.0727678 87.7321918 43.8794521 87.9518265 43.713242 88.0675799 43.3600457 88.0794521 42.819863zM89.0410959 29.7575342C89.3414774 29.7518326 89.6299306 29.8749924 89.8335616 30.0958904 90.2585782 30.5695476 90.2585782 31.2873017 89.8335616 31.7609589 89.6253297 31.97811 89.3375012 32.1008827 89.0366438 32.1008827 88.7357865 32.1008827 88.447958 31.97811 88.239726 31.7609589 87.8147095 31.2873017 87.8147095 30.5695476 88.239726 30.0958904 88.4454254 29.8726317 88.7376356 29.7492541 89.0410959 29.7575342zM96.0575342 44.8767123C95.3715536 44.9455623 94.6878112 44.7262487 94.169863 44.2712329 93.7403947 43.6929386 93.5405335 42.9759764 93.6089041 42.2589041L93.6089041 38.4924658 93.6089041 36.3643836 91.9616438 36.3643836 91.9616438 35.990411 93.6 35.4205479 93.6 34.3342466C93.6 32.8799087 93.6 32.1408676 93.6 32.1171233L95.3808219 31.2979452 95.6746575 31.5294521C95.6025965 31.9563241 95.5609392 32.3877745 95.55 32.8205479 95.5084475 33.5328767 95.4817352 34.3342466 95.469863 35.2246575L95.469863 35.4472603 98.390411 35.4472603 98.2123288 36.3910959 95.469863 36.3910959C95.469863 37.05 95.469863 37.6732877 95.469863 38.2609589L95.469863 41.8226027C95.4486093 42.2649498 95.5636022 42.7031661 95.7993151 43.0780822 95.9880648 43.386808 96.3280551 43.5704028 96.689726 43.5589041 96.9052936 43.5632622 97.1197561 43.527015 97.3219178 43.4520548 97.5552836 43.3514154 97.7739388 43.2196232 97.9719178 43.060274L98.2746575 43.389726 97.2773973 44.609589C97.1350225 44.7157146 96.9707547 44.7887225 96.7965753 44.8232877 96.5533572 44.8713793 96.3051405 44.8893227 96.0575342 44.8767123zM103.581507 44.8767123C102.306095 44.9139194 101.081016 44.3781516 100.242466 43.4164384 99.3488448 42.3632851 98.8846987 41.0121748 98.9424658 39.6321918 98.9025111 38.2498506 99.4415283 36.9136044 100.429452 35.9458904 101.427642 34.9674346 102.780875 34.4370699 104.178082 34.4767123 105.230447 34.4470889 106.240484 34.8916363 106.929452 35.6876712 107.539863 36.3921841 107.902657 37.2772768 107.962329 38.2075342L107.962329 39.3027397 105.843151 39.5965753 103.430137 39.5965753 100.812329 39.5965753C100.815232 40.6420522 101.124822 41.6637015 101.70274 42.5349315 102.321098 43.384074 103.324667 43.8657871 104.373973 43.8171233 104.901362 43.8278774 105.42717 43.7557665 105.932192 43.6034247 106.44448 43.4186572 106.927337 43.1607337 107.365753 42.8376712L107.668493 43.0691781 107.294521 43.8349315C106.723665 44.1872745 106.11029 44.4655372 105.469178 44.6630137 104.851786 44.8152568 104.217309 44.8870843 103.581507 44.8767123zM106.190411 38.7952055L106.190411 38.430137C106.241928 37.582298 106.006709 36.74178 105.522603 36.0438356 105.085558 35.4601511 104.390358 35.1275193 103.661644 35.1534247 102.839219 35.1171373 102.052229 35.4906239 101.560274 36.1506849 101.040109 36.9217047 100.781065 37.839284 100.821233 38.7684932L103.447945 38.7684932 106.190411 38.7952055zM110.615753 42.819863C110.657306 40.5166667 110.678082 38.4865297 110.678082 36.7294521L110.678082 31.609589C110.678082 30.956621 110.600913 30.5737443 110.446575 30.4609589 109.972496 30.3092486 109.470261 30.2666347 108.977397 30.3363014L108.977397 29.7842466C109.562453 29.719105 110.142508 29.6149924 110.713699 29.4726027 111.285844 29.3138842 111.847835 29.120607 112.396575 28.8938356L112.734932 29.0630137C112.651826 29.6091324 112.595434 30.0780822 112.565753 30.469863 112.536073 30.8616438 112.515297 31.5086758 112.503425 32.4109589L112.503425 36.5958904C113.316667 35.8182648 113.880594 35.3107306 114.195205 35.0732877 114.703805 34.6788791 115.332576 34.4713847 115.976027 34.4856164 116.929265 34.425203 117.867534 34.7454313 118.584932 35.3760274 119.2414 36.0485604 119.584051 36.9666072 119.528767 37.9047945L119.528767 39.6856164 119.528767 42.8376712C119.528767 43.389726 119.623744 43.7399543 119.813699 43.8883562 120.205594 44.0807387 120.644047 44.1579311 121.078082 44.1109589L121.078082 44.6719178 119.270548 44.5205479 117.543151 44.5205479C117.578767 42.6269406 117.596575 40.9915525 117.596575 39.6143836L117.596575 38.5547945C117.639171 37.8194142 117.404008 37.094858 116.937671 36.5246575 116.481882 36.0280528 115.830332 35.7576592 115.156849 35.7856164 114.429231 35.7575186 113.721678 36.0276753 113.197945 36.5335616 112.687485 37.0616238 112.416966 37.7765653 112.45 38.510274L112.45 42.8020548C112.45 43.3541096 112.553881 43.7043379 112.761644 43.8527397 113.209701 44.0474774 113.700195 44.1241172 114.186301 44.0753425L114.186301 44.6363014C113.165297 44.5888128 112.274886 44.5650685 111.515068 44.5650685 110.755251 44.5650685 109.86484 44.5888128 108.843836 44.6363014L108.843836 44.0842466C109.312546 44.1322765 109.785622 44.0554786 110.215068 43.8616438 110.458447 43.7073059 110.592009 43.3600457 110.615753 42.819863zM123.580137 42.819863L123.580137 39.5253425C123.580137 38.7833333 123.580137 37.9789954 123.580137 37.1123288 123.580137 36.560274 123.473288 36.2100457 123.259589 36.0616438 122.830142 35.8678091 122.357067 35.7910111 121.888356 35.8390411L121.888356 35.3315068C122.452257 35.2708737 123.011488 35.1727108 123.562329 35.0376712 124.118179 34.8839057 124.665128 34.6996077 125.200685 34.4856164L125.539041 34.6547945C125.46479 35.000599 125.420109 35.352096 125.405479 35.7054795L125.405479 36.5958904C125.946322 36.0450385 126.520215 35.527642 127.123973 35.0465753 127.63684 34.6602519 128.262726 34.4537096 128.904795 34.4589041 129.878573 34.3855602 130.841011 34.7063727 131.576027 35.3493151 132.236649 36.0270216 132.582329 36.9509894 132.528767 37.8958904L132.528767 39.6321918 132.528767 42.7842466C132.528767 43.3363014 132.623744 43.6865297 132.813699 43.8349315 133.205594 44.0273141 133.644047 44.1045065 134.078082 44.0575342L134.078082 44.6184932 132.359589 44.5205479 130.632192 44.5205479C130.667808 42.6269406 130.685616 40.9915525 130.685616 39.6143836L130.685616 38.5458904C130.717794 37.8047122 130.473446 37.0780142 130 36.5068493 129.536627 36.0241002 128.887654 35.7645113 128.219178 35.7945205 127.477347 35.7603974 126.753729 36.0305481 126.215753 36.5424658 125.698789 37.06755 125.421687 37.78286 125.45 38.5191781L125.45 39.5342466 125.45 42.819863C125.45 43.3719178 125.553881 43.7221461 125.761644 43.8705479 126.209701 44.0652857 126.700195 44.1419254 127.186301 44.0931507L127.186301 44.6541096C126.165297 44.606621 125.274886 44.5828767 124.515068 44.5828767 123.755251 44.5828767 122.86484 44.606621 121.843836 44.6541096L121.843836 44.1020548C122.318304 44.1490661 122.796859 44.0723746 123.232877 43.8794521 123.458447 43.713242 123.574201 43.3600457 123.580137 42.819863zM136.028082 43.4164384C135.091908 42.3834129 134.59662 41.0253643 134.647945 39.6321918 134.598117 38.2420017 135.134417 36.8947905 136.126027 35.9191781 137.146154 34.9439659 138.517808 34.4235724 139.928082 34.4767123 141.249316 34.4285912 142.533875 34.9167236 143.489726 35.830137 144.418098 36.7491075 144.918712 38.0151762 144.869863 39.3205479 144.927691 40.7992755 144.396052 42.2404662 143.391781 43.3273973 142.398884 44.3666898 141.008252 44.9307226 139.571918 44.8767123 138.236215 44.9188779 136.946329 44.3873673 136.028082 43.4164384zM142.180822 43.0958904C142.751231 42.2096338 143.025593 41.1651877 142.964384 40.1130137 143.044657 38.8424356 142.733922 37.5777462 142.073973 36.4890411 141.510265 35.6455117 140.550234 35.1537065 139.536301 35.1890411 138.699375 35.1477858 137.893866 35.5124199 137.372603 36.1684932 136.812822 36.9625606 136.539654 37.923357 136.597945 38.8931507 136.516264 40.2429949 136.825409 41.587773 137.488356 42.7664384 138.017696 43.6541487 138.983847 44.1882534 140.017123 44.1643836 140.87239 44.1958671 141.685911 43.7941281 142.180822 43.0958904zM147.327397 42.819863C147.36895 40.5166667 147.389726 38.4865297 147.389726 36.7294521L147.389726 31.609589C147.389726 30.956621 147.309589 30.5737443 147.149315 30.4609589 146.672259 30.30881 146.167033 30.2662006 145.671233 30.3363014L145.671233 29.7842466C146.255282 29.7123191 146.834927 29.6082803 147.407534 29.4726027 147.979673 29.3138634 148.541663 29.1205865 149.090411 28.8938356L149.428767 29.0630137C149.345662 29.6091324 149.289269 30.0780822 149.259589 30.469863 149.229909 30.8616438 149.209132 31.5086758 149.19726 32.4109589L149.19726 36.7472603C149.19726 38.5280822 149.218037 40.5582192 149.259589 42.8376712 149.259589 43.389726 149.372374 43.7399543 149.597945 43.8883562 150.039928 44.0823774 150.524503 44.1590506 151.004795 44.1109589L151.004795 44.6719178C149.98379 44.6244292 149.093379 44.6006849 148.333562 44.6006849 147.573744 44.6006849 146.683333 44.6244292 145.662329 44.6719178L145.662329 44.119863C146.128098 44.1663039 146.597895 44.0895398 147.024658 43.8972603 147.208676 43.7191781 147.309589 43.3600457 147.327397 42.819863zM153.017123 43.4164384C152.080949 42.3834129 151.585661 41.0253643 151.636986 39.6321918 151.593913 38.2335676 152.143664 36.8818267 153.150685 35.910274 154.170811 34.9350618 155.542466 34.4146683 156.95274 34.4678082 158.273974 34.4196871 159.558533 34.9078195 160.514384 35.8212329 161.442756 36.7402034 161.94337 38.0062721 161.894521 39.3116438 161.952349 40.7903714 161.420709 42.2315621 160.416438 43.3184932 159.423542 44.3577856 158.032909 44.9218185 156.596575 44.8678082 155.249994 44.9226119 153.945277 44.3935849 153.017123 43.4164384zM159.169863 43.0958904C159.740272 42.2096338 160.014634 41.1651877 159.953425 40.1130137 160.033698 38.8424356 159.722964 37.5777462 159.063014 36.4890411 158.499306 35.6455117 157.539275 35.1537065 156.525342 35.1890411 155.688417 35.1477858 154.882907 35.5124199 154.361644 36.1684932 153.801863 36.9625606 153.528695 37.923357 153.586986 38.8931507 153.505305 40.2429949 153.81445 41.587773 154.477397 42.7664384 155.006737 43.6541487 155.972888 44.1882534 157.006164 44.1643836 157.858321 44.1928298 158.667805 43.7914325 159.160959 43.0958904L159.169863 43.0958904zM164.726027 43.4164384C163.789853 42.3834129 163.294565 41.0253643 163.34589 39.6321918 163.296062 38.2420017 163.832362 36.8947905 164.823973 35.9191781 165.844099 34.9439659 167.215753 34.4235724 168.626027 34.4767123 169.947261 34.4285912 171.23182 34.9167236 172.187671 35.830137 173.116043 36.7491075 173.616657 38.0151762 173.567808 39.3205479 173.625636 40.7992755 173.093997 42.2404662 172.089726 43.3273973 171.101008 44.3619631 169.717881 44.9255793 168.287671 44.8767123 166.945837 44.924035 165.648438 44.3921014 164.726027 43.4164384zM170.878767 43.0958904C171.449176 42.2096338 171.723538 41.1651877 171.662329 40.1130137 171.742602 38.8424356 171.431868 37.5777462 170.771918 36.4890411 170.20821 35.6455117 169.248179 35.1537065 168.234247 35.1890411 167.397321 35.1477858 166.591811 35.5124199 166.070548 36.1684932 165.510767 36.9625606 165.2376 37.923357 165.29589 38.8931507 165.21421 40.2429949 165.523354 41.587773 166.186301 42.7664384 166.715641 43.6541487 167.681792 44.1882534 168.715068 44.1643836 169.564111 44.1898078 170.369568 43.7887502 170.860959 43.0958904L170.878767 43.0958904zM177.539041 42.4636986C177.541132 42.7035002 177.656746 42.9281221 177.850685 43.0691781 178.065879 43.2385522 178.333806 43.3268106 178.607534 43.3184932L182.578767 43.3184932C183.323728 43.2513023 184.06455 43.4854147 184.635616 43.9684932 185.116054 44.5410132 185.349811 45.2807094 185.285616 46.0253425 185.270551 47.3449057 184.603858 48.5716207 183.504795 49.3020548 182.251456 50.2170258 180.728392 50.6871073 179.177397 50.6376712 178.076272 50.6766437 176.991226 50.364849 176.078767 49.7472603 175.311272 49.2721015 174.835666 48.4414669 174.814384 47.5390411 174.767108 46.9701369 174.921566 46.4027426 175.250685 45.9363014 175.859212 45.3939336 176.558468 44.9629269 177.316438 44.6630137 177.112091 44.6238907 176.912218 44.5642272 176.719863 44.4849315 176.219333 44.315764 175.88966 43.837558 175.909589 43.309589 175.945865 42.9649402 176.111293 42.6468091 176.372603 42.4191781 176.858412 41.9640885 177.39292 41.5639538 177.966438 41.2260274 177.363048 41.1569625 176.78863 40.9296524 176.30137 40.5671233 175.677536 40.0322317 175.346681 39.2315639 175.410959 38.4123288 175.378932 37.3340442 175.837341 36.2993486 176.657534 35.5986301 177.54891 34.8383145 178.692053 34.4382144 179.863014 34.4767123L180.147945 34.4767123C181.029699 34.4395498 181.898355 34.6998329 182.614384 35.2157534L182.792466 35.3671233 185.864384 35.3671233 185.205479 36.3821918 183.424658 36.3821918C183.518065 36.6231499 183.56051 36.8808543 183.549315 37.1390411 183.552054 38.2692248 183.053013 39.3423249 182.186986 40.0684932 181.229967 40.87161 180.007142 41.287688 178.758904 41.2349315L178.812329 41.2349315C178.490972 41.4157899 178.192098 41.6339676 177.921918 41.8849315 177.666667 42.1342466 177.539041 42.3271689 177.539041 42.4636986zM176.470548 47.3431507C176.48971 48.0602555 176.854645 48.7237741 177.45 49.1239726 178.147704 49.6359392 178.998269 49.8964444 179.863014 49.8630137 180.831359 49.8959237 181.779316 49.5799382 182.534247 48.9726027 183.238175 48.4152386 183.645584 47.5642792 183.638356 46.6664384 183.668108 46.1638349 183.483717 45.6721244 183.130822 45.3130137 182.728185 44.9767731 182.211873 44.8078562 181.688356 44.8410959L179.480137 44.8410959C179.011187 44.8410959 178.586758 44.8410959 178.206849 44.8410959 177.682318 45.0153185 177.226954 45.3521628 176.906849 45.8027397 176.610436 46.2609313 176.458439 46.797574 176.470548 47.3431507zM179.382192 35.2157534C178.751054 35.1791975 178.134706 35.4160048 177.690411 35.8657534 177.267921 36.3598864 177.051192 36.9973243 177.084932 37.6465753 177.039226 38.4192013 177.262626 39.1837979 177.717123 39.810274 178.152318 40.3398349 178.813499 40.6307547 179.497945 40.5938356L179.391096 40.5938356C180.059178 40.6321256 180.71034 40.3749169 181.171918 39.890411 181.625125 39.3452051 181.854283 38.6481845 181.813014 37.940411 181.856936 37.216221 181.642371 36.4999512 181.207534 35.9191781 180.784939 35.4246905 180.156415 35.154853 179.506849 35.1890411L179.382192 35.2157534zM188.517808 42.819863L188.517808 39.5253425C188.517808 38.7833333 188.517808 37.9789954 188.517808 37.1123288 188.517808 36.560274 188.407991 36.2100457 188.188356 36.0616438 187.758909 35.8678091 187.285834 35.7910111 186.817123 35.8390411L186.817123 35.3315068C187.401652 35.2713332 187.981645 35.1731805 188.553425 35.0376712 189.125448 34.8892716 189.687526 34.7048862 190.236301 34.4856164L190.574658 34.6547945C190.493667 35.0059615 190.443023 35.3634428 190.423288 35.7232877 190.423288 36.1150685 190.399543 36.8748858 190.352055 38.0027397L190.352055 39.5342466 190.352055 42.819863C190.352055 43.3719178 190.455936 43.7221461 190.663699 43.8705479 191.111977 44.0645223 191.602272 44.141131 192.088356 44.0931507L192.088356 44.6541096C191.067352 44.606621 190.176941 44.5828767 189.417123 44.5828767 188.657306 44.5828767 187.766895 44.606621 186.74589 44.6541096L186.74589 44.1020548C187.220371 44.149476 187.699031 44.0727678 188.134932 43.8794521 188.384247 43.713242 188.511872 43.3600457 188.517808 42.819863zM189.479452 29.7575342C189.779834 29.7518326 190.068287 29.8749924 190.271918 30.0958904 190.696934 30.5695476 190.696934 31.2873017 190.271918 31.7609589 190.063686 31.97811 189.775857 32.1008827 189.475 32.1008827 189.174143 32.1008827 188.886314 31.97811 188.678082 31.7609589 188.253066 31.2873017 188.253066 30.5695476 188.678082 30.0958904 188.883782 29.8726317 189.175992 29.7492541 189.479452 29.7575342zM196.023973 44.8767123C195.289154 44.9149921 194.566116 44.6803219 193.993836 44.2178082 193.489777 43.7666164 193.215168 43.1127861 193.24589 42.4369863 193.202562 41.6574975 193.450046 40.8896637 193.940411 40.2821918 194.520618 39.6960352 195.272068 39.3093971 196.086301 39.1780822L199.523288 38.4212329C199.556205 37.6732983 199.315649 36.9389688 198.846575 36.3554795 198.355709 35.8394016 197.660629 35.5685488 196.95 35.6164384 196.649121 35.6273645 196.350432 35.6721678 196.059589 35.75 195.792592 35.8000146 195.536432 35.8964516 195.30274 36.0349315L194.670548 37.5575342 194.091781 37.4239726 194.091781 35.9369863C194.711223 35.4998884 195.373539 35.1269627 196.068493 34.8239726 196.576537 34.6119601 197.120755 34.5000931 197.671233 34.4945205 198.677437 34.3981265 199.678955 34.720158 200.440411 35.3849315 201.098117 36.1923095 201.417275 37.2231909 201.330822 38.2609589L201.330822 39.5075342 201.330822 42.7931507C201.282665 43.1646258 201.378218 43.5404666 201.597945 43.8438356 201.961254 44.0356455 202.374032 44.1132352 202.782192 44.0664384L202.782192 44.6273973 201.143836 44.5205479 199.460959 44.5205479 199.460959 42.8376712 197.083562 44.6184932C196.745716 44.758452 196.388331 44.8455459 196.023973 44.8767123zM199.523288 39.5342466L199.523288 39.0267123 196.852055 39.7746575C196.350034 39.8895164 195.8959 40.1570201 195.552055 40.540411 195.254215 40.9269161 195.102806 41.4063754 195.124658 41.8938356 195.09798 42.363246 195.258019 42.824159 195.569863 43.1760274 195.893006 43.4888885 196.331641 43.6533765 196.780822 43.630137 197.349821 43.6092902 197.899212 43.416848 198.356849 43.0780822 198.793662 42.7611302 199.188584 42.3901432 199.532192 41.9739726 199.538128 41.0776256 199.53516 40.2614155 199.523288 39.5253425L199.523288 39.5342466zM207.216438 44.8767123C206.530458 44.9455623 205.846715 44.7262487 205.328767 44.2712329 204.899299 43.6929386 204.699438 42.9759764 204.767808 42.2589041L204.767808 38.4924658 204.767808 36.3643836 203.120548 36.3643836 203.120548 35.990411 204.758904 35.4205479 204.758904 34.3342466C204.758904 32.8799087 204.758904 32.1408676 204.758904 32.1171233L206.539726 31.2979452 206.833562 31.5294521C206.761501 31.9563241 206.719843 32.3877745 206.708904 32.8205479 206.667352 33.5328767 206.640639 34.3342466 206.628767 35.2246575L206.628767 35.4472603 209.549315 35.4472603 209.371233 36.3910959 206.628767 36.3910959C206.628767 37.05 206.628767 37.6732877 206.628767 38.2609589L206.628767 41.8226027C206.607513 42.2649498 206.722506 42.7031661 206.958219 43.0780822 207.146969 43.386808 207.486959 43.5704028 207.84863 43.5589041 208.064198 43.5632622 208.27866 43.527015 208.480822 43.4520548 208.714188 43.3514154 208.932843 43.2196232 209.130822 43.060274L209.433562 43.389726 208.356164 44.5917808C208.21379 44.6979064 208.049522 44.7709143 207.875342 44.8054795 207.658988 44.8533365 207.438022 44.8772247 207.216438 44.8767123zM214.731507 44.8767123C213.456095 44.9139194 212.231016 44.3781516 211.392466 43.4164384 210.514861 42.3567438 210.066837 41.0063175 210.136986 39.6321918 210.097032 38.2498506 210.636049 36.9136044 211.623973 35.9458904 212.624328 34.9651745 213.981242 34.4346276 215.381507 34.4767123 216.438578 34.4394561 217.456033 34.881117 218.150685 35.6787671 218.761096 36.38328 219.12389 37.2683727 219.183562 38.1986301L219.183562 39.2938356 217.064384 39.5876712 214.65137 39.5876712 212.033562 39.5876712C212.036465 40.6331481 212.346055 41.6547974 212.923973 42.5260274 213.542331 43.3751699 214.5459 43.856883 215.595205 43.8082192 216.126654 43.8324142 216.658583 43.7723093 217.171233 43.630137 217.683521 43.4453695 218.166378 43.187446 218.604795 42.8643836L218.907534 43.0958904 218.533562 43.8616438C217.962706 44.2139869 217.349331 44.4922495 216.708219 44.689726 216.060743 44.8407934 215.395825 44.9036911 214.731507 44.8767123zM217.340411 38.7952055L217.340411 38.430137C217.391928 37.582298 217.156709 36.74178 216.672603 36.0438356 216.235558 35.4601511 215.540358 35.1275193 214.811644 35.1534247 213.989219 35.1171373 213.202229 35.4906239 212.710274 36.1506849 212.190109 36.9217047 211.931065 37.839284 211.971233 38.7684932L214.597945 38.7684932 217.340411 38.7952055zM53.4246575 62.6671233L53.4246575 59.3726027C53.4246575 58.6305936 53.4246575 57.8262557 53.4246575 56.959589 53.4246575 56.4075342 53.3148402 56.0573059 53.0952055 55.9089041 52.6657587 55.7150694 52.1926831 55.6382714 51.7239726 55.6863014L51.7239726 55.2054795C52.3085014 55.1453058 52.8884943 55.0471531 53.460274 54.9116438 54.0393665 54.7494325 54.6074328 54.5501631 55.1609589 54.3150685L55.4993151 54.4842466C55.4183241 54.8354136 55.3676809 55.1928949 55.3479452 55.5527397 55.3479452 55.9445205 55.3242009 56.7043379 55.2767123 57.8321918L55.2767123 59.3726027 55.2767123 62.6582192C55.2767123 63.210274 55.3805936 63.5605023 55.5883562 63.7089041 56.0366345 63.9028785 56.5269299 63.9794872 57.0130137 63.9315068L57.0130137 64.4924658C55.9920091 64.4449772 55.1015982 64.4212329 54.3417808 64.4212329 53.5819635 64.4212329 52.6915525 64.4449772 51.6705479 64.4924658L51.6705479 63.940411C52.1450285 63.9878322 52.6236881 63.9111239 53.059589 63.7178082 53.302968 63.5694064 53.4246575 63.2191781 53.4246575 62.6671233zM54.3863014 49.6047945C54.6866829 49.5990928 54.9751361 49.7222526 55.1787671 49.9431507 55.6331049 50.4149844 55.6447747 51.1579658 55.2054795 51.6438356 54.9972475 51.8609867 54.709419 51.9837594 54.4085616 51.9837594 54.1077043 51.9837594 53.8198758 51.8609867 53.6116438 51.6438356 53.1866273 51.1701784 53.1866273 50.4524243 53.6116438 49.9787671 53.8067034 49.7469768 54.0923184 49.6106606 54.3952055 49.6047945L54.3863014 49.6047945zM59.7643836 62.6671233L59.7643836 59.3726027C59.7643836 58.6305936 59.7643836 57.8262557 59.7643836 56.959589 59.7643836 56.4075342 59.6575342 56.0573059 59.4438356 55.9089041 59.0143889 55.7150694 58.5413133 55.6382714 58.0726027 55.6863014L58.0726027 55.2054795C58.6365038 55.1448463 59.1957349 55.0466834 59.7465753 54.9116438 60.3214188 54.7452142 60.8862688 54.5460303 61.4383562 54.3150685L61.7767123 54.4842466C61.7024617 54.830051 61.6577799 55.1815481 61.6431507 55.5349315L61.6431507 56.4253425C62.1839928 55.8744905 62.7578865 55.3570941 63.3616438 54.8760274 63.8745114 54.489704 64.5003973 54.2831616 65.1424658 54.2883562 66.1162445 54.2150123 67.078682 54.5358248 67.8136986 55.1787671 68.4743201 55.8564736 68.8200003 56.7804415 68.7664384 57.7253425L68.7664384 59.4616438 68.7664384 62.6136986C68.7664384 63.1657534 68.8614155 63.5159817 69.0513699 63.6643836 69.4432652 63.8567661 69.8817181 63.9339585 70.3157534 63.8869863L70.3157534 64.4479452 68.5616438 64.3945205 66.8342466 64.3945205C66.869863 62.5009132 66.8876712 60.8655251 66.8876712 59.4883562L66.8876712 58.419863C66.9315725 57.6719519 66.6932655 56.9347889 66.219863 56.3541096 65.7506346 55.8436553 65.077993 55.5693743 64.3856164 55.6061644 63.6437854 55.5720413 62.9201676 55.8421919 62.3821918 56.3541096 61.865227 56.8791939 61.588125 57.5945038 61.6164384 58.3308219L61.6164384 59.3369863 61.6164384 62.6226027C61.6164384 63.1746575 61.7203196 63.5248858 61.9280822 63.6732877 62.3761393 63.8680254 62.8666338 63.9446651 63.3527397 63.8958904L63.3527397 64.4568493C62.3317352 64.4093607 61.4413242 64.3856164 60.6815068 64.3856164 59.9216895 64.3856164 59.0312785 64.4093607 58.010274 64.4568493L58.010274 63.9047945C58.4847423 63.9518059 58.9632977 63.8751143 59.3993151 63.6821918 59.636758 63.5575342 59.7584475 63.2191781 59.7643836 62.6671233zM77.510274 57.4047945L77.4657534 56.7993151C77.4507086 56.6388634 77.4178581 56.4805837 77.3678082 56.3273973 77.3323708 56.201374 77.278353 56.0813345 77.2075342 55.9712329 77.0262559 55.740992 76.8026007 55.5475604 76.5486301 55.4013699 76.1328242 55.1582825 75.6590287 55.0321421 75.1773973 55.0363014 74.6057176 55.0008487 74.0402599 55.1714337 73.5835616 55.5171233 73.197038 55.8500678 72.9865875 56.3433111 73.0136986 56.8527397 73.0070547 57.262472 73.2080788 57.6477681 73.5479452 57.8767123 74.1765663 58.2035582 74.8576756 58.4175351 75.560274 58.5089041 76.4915245 58.627771 77.385237 58.9499938 78.1780822 59.4527397 78.6861827 59.8665219 78.964464 60.4992806 78.9260274 61.1534247 78.950013 62.1464921 78.500485 63.091823 77.7150685 63.7 76.8234548 64.3822227 75.7202148 64.7289553 74.5986301 64.6794521 74.0952752 64.6849655 73.5922289 64.6522229 73.0938356 64.5815068 72.5087387 64.480746 71.9292071 64.3499799 71.3575342 64.189726 71.4287671 63.5961187 71.4792237 63.1063927 71.5089041 62.7205479 71.5385845 62.3347032 71.5385845 61.8479452 71.5089041 61.260274L72.1232877 61.260274 72.1767123 62.4178082C72.1888347 62.5793676 72.2408444 62.7353969 72.3280822 62.8719178 72.4093077 63.0166482 72.5218721 63.1413816 72.6575342 63.2369863 72.9371891 63.4247118 73.2355954 63.5828672 73.5479452 63.7089041 73.9749587 63.8681693 74.427857 63.9466716 74.8835616 63.940411 75.5467292 63.9808268 76.2028054 63.7852656 76.7356164 63.3883562 77.1860505 63.0031388 77.4326572 62.4310113 77.4034247 61.8390411 77.4135981 61.3729443 77.1628383 60.940126 76.7534247 60.7171233 75.9935575 60.3554319 75.1827958 60.1122033 74.3493151 59.9958904 73.5242183 59.9055106 72.7377567 59.5982991 72.069863 59.1054795 71.6059421 58.6337512 71.3688992 57.9843187 71.419863 57.3246575 71.437968 56.4806709 71.8539591 55.6949101 72.5417808 55.2054795 73.365026 54.5979411 74.3684063 54.2843848 75.3910959 54.3150685 75.9228159 54.3266437 76.4515199 54.3983324 76.9671233 54.5287671 77.4345326 54.6202586 77.8870092 54.7760783 78.3116438 54.9917808 78.2285388 55.4547945 78.1721461 55.8525114 78.1424658 56.1849315 78.103951 56.5874046 78.0861193 56.9915893 78.0890411 57.3958904L77.510274 57.4047945zM83.9746575 64.7239726C83.2873951 64.7904044 82.6034884 64.5678121 82.0869863 64.109589 81.657518 63.5312948 81.4576568 62.8143326 81.5260274 62.0972603L81.5260274 58.3308219 81.5260274 56.2116438 79.8787671 56.2116438 79.8787671 55.8376712 81.5171233 55.2678082 81.5171233 54.1815068C81.5171233 52.7271689 81.5171233 51.9881279 81.5171233 51.9643836L83.2979452 51.1452055 83.5917808 51.3767123C83.5197197 51.8035844 83.4780625 52.2350348 83.4671233 52.6678082 83.4255708 53.380137 83.3988584 54.1815068 83.3869863 55.0719178L83.3869863 55.2945205 86.3075342 55.2945205 86.1294521 56.2383562 83.3869863 56.2383562C83.3869863 56.8972603 83.3869863 57.5205479 83.3869863 58.1082192L83.3869863 61.669863C83.3622419 62.1073589 83.4709165 62.542057 83.6986301 62.9164384 83.8873798 63.2251642 84.2273702 63.4087589 84.5890411 63.3972603 84.8046087 63.4016183 85.0190712 63.3653712 85.2212329 63.290411 85.4545987 63.1897716 85.6732539 63.0579794 85.8712329 62.8986301L86.1739726 63.2280822 85.1767123 64.4479452C85.0343376 64.5540708 84.8700698 64.6270787 84.6958904 64.6616438 84.4588504 64.711278 84.2166984 64.7322047 83.9746575 64.7239726zM89.0410959 62.6671233L89.0410959 59.3726027C89.0410959 58.6305936 89.0410959 57.8262557 89.0410959 56.959589 89.0410959 56.4075342 88.9312785 56.0573059 88.7116438 55.9089041 88.2821971 55.7150694 87.8091215 55.6382714 87.340411 55.6863014L87.340411 55.2054795C87.9249398 55.1453058 88.5049326 55.0471531 89.0767123 54.9116438 89.6487358 54.7632442 90.2108139 54.5788588 90.759589 54.359589L91.0979452 54.5287671C91.0169542 54.8799341 90.966311 55.2374154 90.9465753 55.5972603 90.9465753 55.9890411 90.9228311 56.7488584 90.8753425 57.8767123L90.8753425 59.4171233 90.8753425 62.7027397C90.8753425 63.2547945 90.9792237 63.6050228 91.1869863 63.7534247 91.6352647 63.9473991 92.12556 64.0240077 92.6116438 63.9760274L92.6116438 64.5369863C91.5906393 64.4894977 90.7002283 64.4657534 89.940411 64.4657534 89.1805936 64.4657534 88.2901826 64.4894977 87.2691781 64.5369863L87.2691781 63.9849315C87.7436586 64.0323528 88.2223183 63.9556445 88.6582192 63.7623288 88.9134703 63.5842466 89.0410959 63.2191781 89.0410959 62.6671233zM90.0027397 49.6047945C90.3031212 49.5990928 90.5915744 49.7222526 90.7952055 49.9431507 91.2495432 50.4149844 91.2612131 51.1579658 90.8219178 51.6438356 90.6136858 51.8609867 90.3258574 51.9837594 90.025 51.9837594 89.7241426 51.9837594 89.4363142 51.8609867 89.2280822 51.6438356 88.8030656 51.1701784 88.8030656 50.4524243 89.2280822 49.9787671 89.4169891 49.7537826 89.6914606 49.6181614 89.9849315 49.6047945L90.0027397 49.6047945zM96.9835616 64.7239726C96.2962992 64.7904044 95.6123925 64.5678121 95.0958904 64.109589 94.6664221 63.5312948 94.4665609 62.8143326 94.5349315 62.0972603L94.5349315 58.3308219 94.5349315 56.2116438 92.8876712 56.2116438 92.8876712 55.8376712 94.5260274 55.2678082 94.5260274 54.1815068C94.5260274 52.7271689 94.5260274 51.9881279 94.5260274 51.9643836L96.3068493 51.1452055 96.6006849 51.3767123C96.5286239 51.8035844 96.4869666 52.2350348 96.4760274 52.6678082 96.4344749 53.380137 96.4077626 54.1815068 96.3958904 55.0719178L96.3958904 55.2945205 99.3164384 55.2945205 99.1383562 56.2383562 96.3958904 56.2383562C96.3958904 56.8972603 96.3958904 57.5205479 96.3958904 58.1082192L96.3958904 61.669863C96.3746367 62.1122101 96.4896296 62.5504263 96.7253425 62.9253425 96.9140922 63.2340683 97.2540825 63.4176631 97.6157534 63.4061644 97.831321 63.4105225 98.0457835 63.3742753 98.2479452 63.2993151 98.481311 63.1986757 98.6999662 63.0668835 98.8979452 62.9075342L99.2006849 63.2369863 98.2034247 64.4568493C98.0610499 64.5629749 97.8967821 64.6359828 97.7226027 64.6705479 97.4793846 64.7186395 97.2311679 64.7365829 96.9835616 64.7239726zM103.80411 57.8321918L103.80411 61.260274C103.770951 61.844356 103.958454 62.4195775 104.329452 62.8719178 104.701852 63.2737856 105.233734 63.4891487 105.780822 63.459589 106.505491 63.4374399 107.196571 63.1489616 107.721918 62.6493151 108.249581 62.2486769 108.575038 61.6368174 108.612329 60.9753425L108.612329 59.3636986 108.630137 56.9863014C108.66059 56.6283253 108.60566 56.2682323 108.469863 55.9356164 108.36895 55.7872146 108.137443 55.7130137 107.775342 55.7130137L106.938356 55.7130137 106.938356 55.2054795C107.519925 55.145148 108.096946 55.046995 108.665753 54.9116438 109.234822 54.7630903 109.793928 54.5787042 110.339726 54.359589L110.678082 54.5287671C110.597481 54.8830156 110.546846 55.2434206 110.526712 55.6061644 110.526712 55.9920091 110.502968 56.7488584 110.455479 57.8767123L110.455479 59.4171233 110.455479 62.7027397C110.455479 63.2547945 110.559361 63.6050228 110.767123 63.7534247 111.21518 63.9481624 111.705675 64.0248021 112.191781 63.9760274L112.191781 64.5369863 110.410959 64.430137 108.630137 64.430137 108.630137 62.6493151C108.206108 63.1564478 107.728441 63.6162021 107.205479 64.0205479 106.494635 64.5107721 105.646787 64.7632561 104.783562 64.7417808 104.014212 64.7851496 103.258899 64.5227102 102.682192 64.0116438 102.154474 63.4722164 101.87954 62.7347463 101.925342 61.9815068L101.925342 59.3815068 101.925342 56.9684932C101.955795 56.6105171 101.900866 56.2504241 101.765068 55.9178082 101.664155 55.7694064 101.432648 55.6952055 101.070548 55.6952055L100.233562 55.6952055 100.233562 55.2054795C100.815107 55.1449738 101.392116 55.0468227 101.960959 54.9116438 102.529987 54.762954 103.089085 54.5785708 103.634932 54.359589L103.973288 54.5287671C103.8913 54.8830666 103.837706 55.2433416 103.813014 55.6061644 103.830822 55.9623288 103.827854 56.7043379 103.80411 57.8321918zM116.171918 57.8321918L116.171918 61.260274C116.138759 61.844356 116.326262 62.4195775 116.69726 62.8719178 117.06966 63.2737856 117.601542 63.4891487 118.14863 63.459589 118.873299 63.4374399 119.564379 63.1489616 120.089726 62.6493151 120.617389 62.2486769 120.942847 61.6368174 120.980137 60.9753425L120.980137 59.3636986 120.980137 56.9506849C121.01059 56.5927089 120.95566 56.2326159 120.819863 55.9 120.71895 55.7515982 120.487443 55.6773973 120.125342 55.6773973L119.315068 55.6773973 119.315068 55.2054795C119.896637 55.145148 120.473658 55.046995 121.042466 54.9116438 121.611534 54.7630903 122.17064 54.5787042 122.716438 54.359589L123.054795 54.5287671C122.967613 54.8676798 122.908057 55.213104 122.876712 55.5616438 122.876712 55.9474886 122.852968 56.7043379 122.805479 57.8321918L122.805479 59.3726027 122.805479 62.6582192C122.805479 63.210274 122.909361 63.5605023 123.117123 63.7089041 123.56518 63.9036418 124.055675 63.9802816 124.541781 63.9315068L124.541781 64.4924658 122.760959 64.3856164 120.980137 64.3856164 120.980137 62.6047945C120.556108 63.1119272 120.078441 63.5716815 119.555479 63.9760274 118.844635 64.4662515 117.996787 64.7187355 117.133562 64.6972603 116.364212 64.7406291 115.608899 64.4781897 115.032192 63.9671233 114.504474 63.4276959 114.22954 62.6902257 114.275342 61.9369863L114.275342 59.3369863 114.275342 56.9239726C114.305795 56.5659965 114.250866 56.2059036 114.115068 55.8732877 114.014155 55.7248858 113.782648 55.6506849 113.420548 55.6506849L112.583562 55.6506849 112.583562 55.2054795C113.165107 55.1449738 113.742116 55.0468227 114.310959 54.9116438 114.879987 54.762954 115.439085 54.5785708 115.984932 54.359589L116.323288 54.5287671C116.2413 54.8830666 116.187706 55.2433416 116.163014 55.6061644 116.186758 55.9623288 116.189726 56.7043379 116.171918 57.8321918zM129.04726 64.7239726C128.36128 64.7928226 127.677537 64.573509 127.159589 64.1184932 126.730121 63.5401989 126.53026 62.8232367 126.59863 62.1061644L126.59863 58.339726 126.59863 56.2116438 124.95137 56.2116438 124.95137 55.8376712 126.589726 55.2678082 126.589726 54.1815068C126.589726 52.7271689 126.589726 51.9881279 126.589726 51.9643836L128.370548 51.1452055 128.664384 51.3767123C128.592322 51.8035844 128.550665 52.2350348 128.539726 52.6678082 128.498174 53.380137 128.471461 54.1815068 128.459589 55.0719178L128.459589 55.2945205 131.380137 55.2945205 131.202055 56.2383562 128.459589 56.2383562C128.459589 56.8972603 128.459589 57.5205479 128.459589 58.1082192L128.459589 61.669863C128.438335 62.1122101 128.553328 62.5504263 128.789041 62.9253425 128.977791 63.2340683 129.317781 63.4176631 129.679452 63.4061644 129.89502 63.4105225 130.109482 63.3742753 130.311644 63.2993151 130.54501 63.1986757 130.763665 63.0668835 130.961644 62.9075342L131.264384 63.2369863 130.267123 64.4568493C130.124749 64.5629749 129.960481 64.6359828 129.786301 64.6705479 129.543083 64.7186395 129.294867 64.7365829 129.04726 64.7239726z"
              fill="#000"/>
        <path d="M0,44.8945205 L0,47.45 L0.801369863,47.45 C5.43637142,47.4257917 10.0372523,48.2433909 14.380137,49.8630137 L14.380137,29.2856164 C14.380137,25.4479452 15.8315068,23.3643836 17.8883562,21.9753425 C19.8739726,23.3910959 21.45,25.5369863 21.45,29.2856164 L21.369863,53.4780822 C23.0764155,54.6280679 24.660708,55.9498035 26.0979452,57.4226027 L26.0979452,29.1787671 C26.0979452,22.7321918 22.6787671,19.1616438 18.9212329,16.9534247 C18.5774297,16.7516241 18.2204621,16.5731403 17.8527397,16.4191781 C17.4856614,16.5745408 17.1287837,16.7529796 16.7842466,16.9534247 C12.2619786,19.3323649 9.48050905,24.0705258 9.60753425,29.1787671 L9.60753425,44.8945205 L4.74589041,44.8945205 L4.74589041,29.4993151 C4.72808219,16.7575342 10.319863,10.0260274 17.8082192,5.77876712 C24.8157534,10.0260274 30.8794521,16.7664384 30.8794521,29.5082192 L30.8794521,44.9034247 L35.6164384,44.9034247 L35.6164384,29.2232877 C35.6164384,14.0863014 27.7363014,5.80547945 18.6986301,0.454109589 C18.4117933,0.283944322 18.1143847,0.132265946 17.8082192,0 C17.5017994,0.131724727 17.2043563,0.283420683 16.9178082,0.454109589 C8.23630137,5.3869863 0,14.0863014 0,29.2232877 L0,44.8945205 Z"
              fill="#B20E10"/>
        <path d="M54.8938356 16.6684932C54.8582192 17.1315068 54.840411 17.6182648 54.840411 18.1287671L54.840411 20.8C54.8122969 21.3412177 54.8361503 21.8838844 54.9116438 22.4205479 54.9650685 22.5184932 55.1342466 22.5719178 55.4369863 22.5719178L55.7842466 22.5719178 55.7842466 22.8568493C55.2381279 22.8568493 54.7751142 22.8568493 54.3952055 22.8568493 54.0152968 22.8568493 53.5552511 22.8568493 53.0150685 22.8568493L53.0150685 22.5719178 53.4246575 22.5719178C53.5633366 22.588341 53.7036476 22.5602788 53.8253425 22.4917808 53.8997544 22.4049671 53.9407936 22.2944771 53.9410959 22.180137 53.9410959 21.8239726 53.9856164 21.3520548 53.9856164 20.7821918L53.9856164 18.1109589C53.9856164 17.5856164 53.9856164 17.1136986 53.9856164 16.6773973L53.4246575 16.6773973C53.0054069 16.6587803 52.5853315 16.6766559 52.1691781 16.7308219 52.0890411 16.7308219 52.0445205 16.9 52.0178082 17.140411L51.9554795 17.7547945 51.6705479 17.7547945 51.6705479 17.2116438C51.6705479 16.9890411 51.6705479 16.6684932 51.6082192 16.2589041L54.5554795 16.2589041 57.119863 16.2589041C57.0605023 16.7812785 57.0278539 17.2828767 57.0219178 17.7636986L56.7369863 17.7636986 56.6924658 17.1582192C56.6918822 17.0322306 56.6645682 16.9078002 56.6123288 16.7931507 56.5462103 16.7423906 56.4640391 16.7171072 56.3808219 16.7219178 56.0424658 16.7219178 55.656621 16.7219178 55.2232877 16.7219178L54.8938356 16.6684932zM61.5630137 20.5952055L58.8917808 20.5952055 58.5712329 21.3520548C58.4307899 21.6347699 58.326103 21.9338754 58.259589 22.2424658 58.2537322 22.2983886 58.2733521 22.3539781 58.3130137 22.3938356 58.404826 22.4380735 58.5049714 22.4623512 58.6068493 22.4650685L59.0520548 22.5184932 59.0520548 22.8034247C58.7582192 22.8034247 58.419863 22.8034247 58.0547945 22.8034247 57.689726 22.8034247 57.2267123 22.8034247 56.8883562 22.8034247L56.8883562 22.5184932 56.9863014 22.5184932C57.12864 22.5276139 57.2712914 22.5063679 57.4047945 22.4561644 57.4963223 22.3802819 57.5668377 22.2821735 57.609589 22.1712329 57.8292237 21.7260274 58.0518265 21.2452055 58.2773973 20.7287671L59.5417808 17.8527397C59.880137 17.0869863 60.1116438 16.5319635 60.2363014 16.1876712L60.5568493 16.1876712 62.889726 21.6280822C62.9777925 21.8577287 63.0819317 22.080884 63.2013699 22.2958904 63.2444169 22.3672874 63.3059428 22.425737 63.3794521 22.4650685 63.5270282 22.507616 63.6799793 22.5286093 63.8335616 22.5273973L63.8335616 22.8123288C63.4417808 22.8123288 63.0678082 22.8123288 62.7027397 22.8123288 62.3376712 22.8123288 61.9191781 22.8123288 61.3582192 22.8123288L61.3582192 22.5273973 61.8123288 22.5273973C61.9125833 22.5262591 62.0119255 22.5081969 62.1061644 22.4739726 62.1507609 22.4441754 62.1774966 22.3940459 62.1773973 22.340411 62.1509421 22.1900491 62.1060845 22.0435141 62.0438356 21.9041096L61.5630137 20.5952055zM59.0609589 20.2212329L61.4383562 20.2212329 60.2719178 17.4253425 59.0609589 20.2212329zM66.2554795 22.3582192L67.1458904 22.3582192C67.7246575 22.3582192 68.1787671 22.3582192 68.5082192 22.3136986 68.7486692 22.2870618 68.9867809 22.2424159 69.2205479 22.180137L69.4520548 21.1205479 69.7369863 21.1205479C69.6568493 21.7082192 69.5945205 22.2513699 69.55 22.7589041 69.172575 22.8127717 68.7914691 22.8365908 68.410274 22.830137L66.2109589 22.830137 64.8308219 22.830137 64.8308219 22.589726C65.080137 22.4828767 65.2226027 22.3671233 65.2671233 22.2424658 65.3364297 21.7590015 65.3602783 21.2701062 65.3383562 20.7821918L65.3383562 18.2356164C65.3645616 17.7213196 65.3436985 17.2057039 65.2760274 16.6952055 65.2760274 16.5883562 65.1068493 16.5349315 64.9020548 16.5349315L64.4034247 16.5349315 64.4034247 16.25 65.8636986 16.25C66.1842466 16.25 66.6205479 16.25 67.1726027 16.25L67.1726027 16.5349315 66.6027397 16.5349315C66.4424658 16.5349315 66.3356164 16.5794521 66.2910959 16.6773973 66.2387576 17.0519744 66.226817 17.4310908 66.2554795 17.8082192L66.2554795 20.7465753 66.2554795 22.0465753 66.2554795 22.3582192zM72.1232877 22.3582192L73.0136986 22.3582192C73.5924658 22.3582192 74.0465753 22.3582192 74.3760274 22.3136986 74.6134909 22.2866894 74.8486151 22.2420456 75.0794521 22.180137L75.3554795 21.0938356 75.6849315 21.0938356C75.6047945 21.6815068 75.5424658 22.2246575 75.4979452 22.7321918 75.1205202 22.7860593 74.7394143 22.8098784 74.3582192 22.8034247L72.1589041 22.8034247 70.7787671 22.8034247 70.7787671 22.5630137C71.0280822 22.4561644 71.1705479 22.340411 71.2150685 22.2157534 71.2654484 21.736508 71.2714098 21.2536308 71.2328767 20.7732877L71.2328767 18.2356164C71.2572014 17.7210483 71.2333533 17.2053328 71.1616438 16.6952055 71.1616438 16.5883562 70.9924658 16.5349315 70.7876712 16.5349315L70.3424658 16.5349315 70.3424658 16.25 71.8116438 16.25C72.1321918 16.25 72.5684932 16.25 73.1205479 16.25L73.1205479 16.5349315 72.5417808 16.5349315C72.3815068 16.5349315 72.2746575 16.5794521 72.230137 16.6773973 72.1523945 17.0491637 72.1165545 17.4284708 72.1232877 17.8082192L72.1232877 20.7465753 72.1232877 22.0465753 72.1232877 22.3582192zM76.3082192 22.5363014L76.5753425 22.5363014C76.860274 22.5363014 77.0383562 22.4650685 77.0917808 22.3315068 77.1820255 21.6707553 77.2118292 21.0031509 77.1808219 20.3369863L77.1808219 18.769863C77.2111274 18.0893688 77.1873082 17.4075423 77.109589 16.7308219 77.0650685 16.6061644 76.9136986 16.5438356 76.6643836 16.5438356L76.3082192 16.5438356 76.3082192 16.2589041C76.8246575 16.2589041 77.3351598 16.2589041 77.839726 16.2589041 78.2582192 16.2589041 78.6410959 16.2589041 78.9794521 16.2589041L78.9794521 16.5438356 78.6232877 16.5438356C78.4788192 16.5254223 78.3322404 16.5534906 78.2047945 16.6239726 78.1288975 16.7430975 78.0944661 16.883953 78.1068493 17.0246575 78.1068493 17.3570776 78.1068493 17.9506849 78.1068493 18.8054795L78.1068493 20.3993151C78.0765746 21.0592974 78.1033867 21.7206616 78.1869863 22.3760274 78.240411 22.5006849 78.409589 22.5630137 78.6945205 22.5630137L79.0061644 22.5630137 79.0061644 22.8479452C78.6232877 22.8479452 78.2047945 22.8479452 77.759589 22.8479452 77.3143836 22.8479452 76.7623288 22.8479452 76.3438356 22.8479452L76.3082192 22.5363014zM81.4993151 17.2828767L81.4993151 20.4794521C81.4993151 21.209589 81.4993151 21.7171233 81.4993151 22.0020548 81.4954571 22.1431362 81.5325707 22.2823121 81.6061644 22.4027397 81.7427158 22.4765535 81.8961914 22.5133877 82.0513699 22.509589L82.3541096 22.509589 82.3541096 22.7945205C82.0157534 22.7945205 81.7189498 22.7945205 81.4636986 22.7945205L80.1636986 22.7945205 80.1636986 22.509589 80.5020548 22.509589C80.6378793 22.5259719 80.7753531 22.4978522 80.8938356 22.4294521 80.969503 22.3364063 81.0104283 22.2199265 81.009589 22.1 81.0452055 21.7616438 81.0630137 21.3015982 81.0630137 20.719863L81.0630137 18.440411C81.0630137 18.0070776 81.0630137 17.5796804 81.0630137 17.1582192 81.06927 17.0325505 81.044821 16.9072493 80.9917808 16.7931507 80.9459865 16.7216185 80.8852308 16.6608628 80.8136986 16.6150685 80.7111743 16.5558488 80.5935372 16.5279873 80.4753425 16.5349315L80.190411 16.5349315 80.190411 16.25 81.0808219 16.25C81.3034247 16.25 81.5438356 16.25 81.8109589 16.25 82.1136986 16.6239726 82.4105023 16.9860731 82.7013699 17.3363014 82.9922374 17.6865297 83.2712329 18.0426941 83.5383562 18.4047945L85.1143836 20.3458904C85.7079909 21.040411 86.1175799 21.5242009 86.3431507 21.7972603L86.3431507 18.8232877C86.371126 18.1429911 86.3502963 17.4615643 86.2808219 16.7842466 86.2363014 16.6684932 86.0582192 16.5972603 85.7465753 16.5705479L85.3993151 16.5705479 85.3993151 16.2856164 86.5568493 16.2856164C86.8417808 16.2856164 87.2127854 16.2856164 87.669863 16.2856164L87.669863 16.5705479 87.260274 16.5705479C86.9753425 16.5705479 86.8061644 16.6684932 86.7616438 16.8554795 86.7171233 17.0424658 86.7616438 17.6568493 86.7616438 18.8767123L86.7616438 20.960274C86.7616438 21.5242009 86.7853881 22.1949772 86.8328767 22.9726027 86.5861893 22.9440057 86.3420826 22.8963751 86.1027397 22.830137 86.0277016 22.7977353 85.9607946 22.7490756 85.9068493 22.6876712 85.5625571 22.3077626 85.2034247 21.8863014 84.8294521 21.4232877L81.4993151 17.2828767zM89.6554795 17.2828767L89.6554795 20.4794521C89.6554795 21.209589 89.6554795 21.7171233 89.6554795 22.0020548 89.6516215 22.1431362 89.6887351 22.2823121 89.7623288 22.4027397 89.8988802 22.4765535 90.0523558 22.5133877 90.2075342 22.509589L90.5013699 22.509589 90.5013699 22.7945205C90.1630137 22.7945205 89.86621 22.7945205 89.6109589 22.7945205L88.3109589 22.7945205 88.3109589 22.509589 88.640411 22.509589C88.7762354 22.5259719 88.9137093 22.4978522 89.0321918 22.4294521 89.1078592 22.3364063 89.1487845 22.2199265 89.1479452 22.1 89.1835616 21.7616438 89.2013699 21.3015982 89.2013699 20.719863L89.2013699 18.440411C89.2013699 18.0041096 89.2013699 17.55 89.2013699 17.1582192 89.2059321 17.0326775 89.1815596 16.9077685 89.130137 16.7931507 89.0189057 16.6182889 88.8203269 16.5189995 88.6136986 16.5349315L88.3287671 16.5349315 88.3287671 16.25 89.2191781 16.25C89.4388128 16.25 89.6821918 16.25 89.9493151 16.25 90.2520548 16.6239726 90.5488584 16.9860731 90.839726 17.3363014 91.1305936 17.6865297 91.409589 18.0426941 91.6767123 18.4047945L93.2527397 20.3458904C93.846347 21.040411 94.2559361 21.5242009 94.4815068 21.7972603L94.4815068 18.8232877C94.5102585 18.1429955 94.4894271 17.4615126 94.4191781 16.7842466 94.3746575 16.6684932 94.1965753 16.5972603 93.8849315 16.5705479L93.5376712 16.5705479 93.5376712 16.2856164 94.6952055 16.2856164C94.980137 16.2856164 95.3541096 16.2856164 95.8082192 16.2856164L95.8082192 16.5705479 95.4520548 16.5705479C95.1671233 16.5705479 94.9979452 16.6684932 94.9534247 16.8554795 94.9089041 17.0424658 94.9534247 17.6568493 94.9534247 18.8767123L94.9534247 20.960274C94.9534247 21.5242009 94.9771689 22.1949772 95.0246575 22.9726027 94.77805 22.9434927 94.5339822 22.8958697 94.2945205 22.830137 94.2199062 22.7969965 94.1531477 22.7484448 94.0986301 22.6876712 93.6949772 22.2840183 93.3180365 21.8447489 92.9678082 21.369863L89.6554795 17.2828767zM100.616438 20.5952055L97.9452055 20.5952055 97.6246575 21.3520548C97.4842145 21.6347699 97.3795276 21.9338754 97.3130137 22.2424658 97.3094262 22.2998193 97.3324101 22.3556372 97.3753425 22.3938356 97.4671548 22.4380735 97.5673002 22.4623512 97.6691781 22.4650685L98.1143836 22.5184932 98.1143836 22.8034247C97.8205479 22.8034247 97.4821918 22.8034247 97.1171233 22.8034247 96.7520548 22.8034247 96.2890411 22.8034247 95.9506849 22.8034247L95.9506849 22.5184932 96.0842466 22.5184932C96.2265853 22.5276139 96.3692366 22.5063679 96.5027397 22.4561644 96.5942676 22.3802819 96.664783 22.2821735 96.7075342 22.1712329 96.9271689 21.7260274 97.1497717 21.2452055 97.3753425 20.7287671L98.639726 17.8527397C98.9780822 17.0869863 99.209589 16.5319635 99.3342466 16.1876712L99.6547945 16.1876712 101.987671 21.6280822C102.075738 21.8577287 102.179877 22.080884 102.299315 22.2958904 102.342008 22.3675715 102.403622 22.4261057 102.477397 22.4650685 102.624947 22.5077389 102.777916 22.5287347 102.931507 22.5273973L102.931507 22.8123288C102.539726 22.8123288 102.165753 22.8123288 101.800685 22.8123288 101.435616 22.8123288 101.017123 22.8123288 100.456164 22.8123288L100.456164 22.5273973 100.910274 22.5273973C101.010528 22.5262591 101.109871 22.5081969 101.20411 22.4739726 101.248706 22.4441754 101.275442 22.3940459 101.275342 22.340411 101.248627 22.1901116 101.203779 22.0436078 101.141781 21.9041096L100.616438 20.5952055zM98.1143836 20.2212329L100.456164 20.2212329 99.289726 17.4253425 98.1143836 20.2212329zM107.214384 16.5349315L107.214384 16.25 108.594521 16.25 109.930137 16.25 109.930137 16.5349315 109.591781 16.5349315C109.306849 16.5349315 109.128767 16.5883562 109.075342 16.7041096 108.984275 17.2001837 108.954371 17.705552 108.986301 18.2089041L108.986301 19.989726C108.967671 20.45237 109.003534 20.9155995 109.093151 21.369863 109.185381 21.6551851 109.387159 21.8921937 109.65411 22.0287671 110.02717 22.2229666 110.444929 22.3151194 110.865068 22.2958904 111.321071 22.3105645 111.773668 22.2127055 112.182877 22.0109589 112.431816 21.8780146 112.624609 21.6599369 112.726027 21.3965753 112.869232 20.88117 112.926392 20.3456639 112.895205 19.8116438L112.895205 18.0308219C112.932957 17.5680208 112.89689 17.1021607 112.788356 16.6506849 112.717123 16.5349315 112.521233 16.4726027 112.191781 16.4726027L111.95137 16.4726027 111.95137 16.1876712 113.171233 16.1876712C113.450228 16.1876712 113.797489 16.1876712 114.213014 16.1876712L114.213014 16.4726027 113.892466 16.4726027C113.643151 16.4726027 113.491781 16.5349315 113.420548 16.6684932 113.317028 17.1207466 113.281021 17.5858324 113.313699 18.0486301L113.313699 19.7760274C113.337499 20.3129565 113.298652 20.8508302 113.197945 21.3787671 113.118836 21.6593024 112.972077 21.9161313 112.770548 22.1267123 112.535812 22.3640458 112.249346 22.5438489 111.933562 22.6520548 111.539011 22.7904203 111.12281 22.8567711 110.704795 22.8479452 110.274266 22.8560165 109.84499 22.7989799 109.431507 22.6787671 109.131264 22.5959142 108.852044 22.450234 108.612329 22.2513699 108.427708 22.0812532 108.28976 21.866666 108.211644 21.6280822 108.111543 21.2205097 108.069575 20.8008305 108.086986 20.3815068L108.086986 18.1554795C108.113528 17.6672556 108.086656 17.1775931 108.006849 16.6952055 107.953425 16.5883562 107.793151 16.5349315 107.517123 16.5349315L107.214384 16.5349315zM109.885616 14.7541096C110.16592 14.7541096 110.393151 14.9813404 110.393151 15.2616438 110.393151 15.5419473 110.16592 15.7691781 109.885616 15.7691781 109.605313 15.7691781 109.378082 15.5419473 109.378082 15.2616438 109.376425 15.1269612 109.431336 14.9977588 109.529452 14.9054795 109.623862 14.8115351 109.752462 14.760095 109.885616 14.7630137L109.885616 14.7541096zM111.880137 14.7630137C112.16044 14.7630137 112.387671 14.9902445 112.387671 15.2705479 112.390736 15.4080978 112.335799 15.5405925 112.236301 15.6356164 112.144022 15.7337321 112.01482 15.7886431 111.880137 15.7869863 111.745878 15.7865371 111.617474 15.7319652 111.523973 15.6356164 111.427725 15.5402978 111.373575 15.4104592 111.373575 15.275 111.373575 15.1395408 111.427725 15.0097022 111.523973 14.9143836 111.62053 14.8181543 111.752827 14.7665261 111.889041 14.7719178L111.880137 14.7630137zM116.991096 22.3582192L117.881507 22.3582192C118.460274 22.3582192 118.914384 22.3582192 119.243836 22.3136986 119.484286 22.2870618 119.722397 22.2424159 119.956164 22.180137L120.232192 21.0938356 120.517123 21.0938356C120.436986 21.6815068 120.374658 22.2246575 120.330137 22.7321918 119.952712 22.7860593 119.571606 22.8098784 119.190411 22.8034247L116.991096 22.8034247 115.610959 22.8034247 115.610959 22.5630137C115.794868 22.5062092 115.950639 22.3822279 116.04726 22.2157534 116.11545 21.7321827 116.139293 21.2433911 116.118493 20.7554795L116.118493 18.2356164C116.141403 17.7210485 116.11756 17.2054631 116.04726 16.6952055 116.00274 16.5883562 115.878082 16.5349315 115.673288 16.5349315L115.174658 16.5349315 115.174658 16.25 116.634932 16.25C116.955479 16.25 117.391781 16.25 117.943836 16.25L117.943836 16.5349315 117.373973 16.5349315C117.213699 16.5349315 117.106849 16.5794521 117.062329 16.6773973 116.997809 17.0626351 116.976901 17.4539159 117 17.8438356L117 20.7821918 117 22.0821918 116.991096 22.3582192zM121.09589 22.5363014L121.389726 22.5363014C121.674658 22.5363014 121.85274 22.4650685 121.906164 22.3315068 121.996017 21.6707199 122.025819 21.0031512 121.995205 20.3369863L121.995205 18.769863C122.025511 18.0893688 122.001692 17.4075423 121.923973 16.7308219 121.870548 16.6061644 121.728082 16.5438356 121.478767 16.5438356L121.09589 16.5438356 121.09589 16.2589041C121.612329 16.2589041 122.119863 16.2589041 122.627397 16.2589041 123.134932 16.2589041 123.428767 16.2589041 123.767123 16.2589041L123.767123 16.5438356 123.410959 16.5438356C123.266471 16.5247874 123.119695 16.5528935 122.992466 16.6239726 122.915288 16.7425471 122.880747 16.8838506 122.894521 17.0246575 122.894521 17.3570776 122.894521 17.9506849 122.894521 18.8054795L122.894521 20.3993151C122.863159 21.0592941 122.889975 21.7207529 122.974658 22.3760274 123.028082 22.5006849 123.19726 22.5630137 123.482192 22.5630137L123.767123 22.5630137 123.767123 22.8479452C123.387215 22.8479452 122.971689 22.8479452 122.520548 22.8479452 122.069406 22.8479452 121.594521 22.8479452 121.09589 22.8479452L121.09589 22.5363014zM127.676027 19.1705479L130.810274 22.1267123 131.095205 22.4027397C131.14388 22.4556942 131.205133 22.4955081 131.273288 22.5184932 131.370835 22.5309751 131.469576 22.5309751 131.567123 22.5184932L131.567123 22.8034247C131.317808 22.8034247 131.086301 22.8034247 130.899315 22.8034247 130.712329 22.8034247 130.480822 22.8034247 130.240411 22.8034247L127.061644 19.7760274C126.954795 19.6780822 126.892466 19.6246575 126.865753 19.6246575 126.839041 19.6246575 126.767808 19.6869863 126.767808 19.8027397L126.767808 21.209589C126.737149 21.5859063 126.737149 21.9640937 126.767808 22.340411 126.812329 22.4472603 126.981507 22.509589 127.275342 22.509589L127.622603 22.509589 127.622603 22.7945205C127.115068 22.7945205 126.669863 22.7945205 126.278082 22.7945205 125.886301 22.7945205 125.387671 22.7945205 124.95137 22.7945205L124.95137 22.509589 125.325342 22.509589C125.574658 22.509589 125.717123 22.4650685 125.770548 22.3760274 125.844313 21.9888868 125.868251 21.5939004 125.841781 21.2006849L125.841781 18.1287671C125.869195 17.6497402 125.845315 17.169155 125.770548 16.6952055 125.717123 16.5883562 125.574658 16.5349315 125.325342 16.5349315L124.95137 16.5349315 124.95137 16.25 126.189041 16.25 127.622603 16.25 127.622603 16.5349315 127.328767 16.5349315C127.189591 16.527596 127.051052 16.5583824 126.928082 16.6239726 126.858715 16.7026244 126.820686 16.8040346 126.821233 16.9089041 126.821233 17.0513699 126.821233 17.4609589 126.821233 18.1376712L126.821233 19.3842466 126.883562 19.3842466C127.132877 19.1794521 127.355479 18.9924658 127.533562 18.8143836 127.711644 18.6363014 128.014384 18.3424658 128.423973 17.9239726L129.732877 16.5616438 129.732877 16.2410959C130.071233 16.2410959 130.356164 16.2410959 130.569863 16.2410959 130.783562 16.2410959 131.059589 16.2410959 131.335616 16.2410959L131.335616 16.5260274 131.086301 16.5260274C130.891773 16.51938 130.698747 16.5622748 130.525342 16.6506849 130.145844 16.9183123 129.788524 17.2160793 129.456849 17.5410959L127.676027 19.1705479zM131.780822 19.5356164C131.743456 18.6197394 132.099975 17.7316834 132.760274 17.0958904 133.479153 16.4678555 134.416335 16.1479981 135.369178 16.2054795 136.287798 16.1619715 137.186621 16.4818373 137.871233 17.0958904 138.480833 17.6967659 138.804807 18.5293776 138.761644 19.3842466 138.785719 20.3484121 138.404625 21.2785396 137.710959 21.9486301 136.998975 22.6432854 136.033831 23.0164746 135.039726 22.9815068 134.439075 22.9984719 133.844175 22.8604797 133.312329 22.5808219 132.822655 22.3058867 132.423557 21.8944137 132.163699 21.3965753 131.877149 20.8474257 131.733242 20.2350538 131.745205 19.6157534M132.689041 19.2417808C132.67854 19.8540737 132.800015 20.4614483 133.045205 21.0226027 133.245779 21.491483 133.576381 21.8931492 133.997945 22.180137 134.405333 22.4371367 134.878649 22.5701601 135.360274 22.5630137 135.798498 22.5724872 136.230526 22.4583084 136.606849 22.2335616 136.975655 21.9999011 137.26692 21.6621578 137.443836 21.2630137 137.659267 20.7662792 137.762629 20.2281867 137.746575 19.6869863 137.763038 19.1133543 137.647265 18.5436284 137.408219 18.0219178 137.21966 17.5950668 136.910088 17.2328673 136.517808 16.980137 136.095021 16.7401397 135.614754 16.620073 135.128767 16.6328767 134.684184 16.6217531 134.24467 16.7293265 133.855479 16.9445205 133.495432 17.1531128 133.204437 17.4626824 133.018493 17.8349315 132.809238 18.2611744 132.705414 18.7314396 132.715753 19.2061644M139.518493 19.5356164C139.482278 18.6199377 139.838615 17.7323353 140.497945 17.0958904 141.216824 16.4678555 142.154006 16.1479981 143.106849 16.2054795 144.025469 16.1619715 144.924292 16.4818373 145.608904 17.0958904 146.218504 17.6967659 146.542478 18.5293776 146.499315 19.3842466 146.523391 20.3484121 146.142297 21.2785396 145.44863 21.9486301 144.736646 22.6432854 143.771502 23.0164746 142.777397 22.9815068 142.176787 22.9980712 141.581987 22.8601022 141.05 22.5808219 140.563933 22.3041196 140.168157 21.8928831 139.910274 21.3965753 139.624441 20.8471595 139.480577 20.2349728 139.491781 19.6157534M140.435616 19.2417808C140.425671 19.8540234 140.547122 20.461281 140.791781 21.0226027 140.992354 21.491483 141.322956 21.8931492 141.744521 22.180137 142.151909 22.4371367 142.625224 22.5701601 143.106849 22.5630137 143.545073 22.5724872 143.977102 22.4583084 144.353425 22.2335616 144.722585 22.0003116 145.013954 21.6624476 145.190411 21.2630137 145.406405 20.7664534 145.509792 20.2282337 145.493151 19.6869863 145.509613 19.1133543 145.39384 18.5436284 145.154795 18.0219178 144.972007 17.5697118 144.655039 17.1843775 144.246575 16.9178082 143.821183 16.6762308 143.337619 16.5561098 142.84863 16.5705479 142.400829 16.5706923 141.961214 16.6905874 141.575342 16.9178082 141.214966 17.1259853 140.923865 17.4356672 140.738356 17.8082192 140.529101 18.2344621 140.425277 18.7047272 140.435616 19.1794521M149.036986 22.3582192L149.927397 22.3582192C150.506164 22.3582192 150.960274 22.3582192 151.289726 22.3136986 151.527199 22.2867548 151.762328 22.2421101 151.993151 22.180137L152.269178 21.0938356 152.55411 21.0938356C152.473973 21.6815068 152.411644 22.2246575 152.367123 22.7321918 151.989694 22.7860221 151.608592 22.809841 151.227397 22.8034247L149.028082 22.8034247 147.647945 22.8034247 147.647945 22.5630137C147.89726 22.4561644 148.039726 22.340411 148.084247 22.2157534 148.154564 21.7323866 148.178417 21.2433953 148.155479 20.7554795L148.155479 18.2356164C148.179804 17.7210483 148.155956 17.2053328 148.084247 16.6952055 148.039726 16.5883562 147.915068 16.5349315 147.710274 16.5349315L147.20274 16.5349315 147.20274 16.25 148.671918 16.25C148.992466 16.25 149.428767 16.25 149.980822 16.25L149.980822 16.5349315 149.410959 16.5349315C149.250685 16.5349315 149.143836 16.5794521 149.099315 16.6773973 149.034796 17.0626351 149.013888 17.4539159 149.036986 17.8438356L149.036986 20.7821918 149.036986 22.0821918 149.036986 22.3582192z"
              fill="#000"/>
    </g>
</svg>