<?xml version="1.0" encoding="UTF-8"?>
<svg id="Layer_1" data-name="Layer 1" xmlns="http://www.w3.org/2000/svg"
     version="1.1" viewBox="0 0 229.6 99.2">
  <defs>
    <style>
      .cls-1 {
      fill: #b10508;
      }

      .cls-1, .cls-2, .cls-3 {
      stroke-width: 0px;
      }

      .cls-4 {
      clip-path: url(#clippath);
      }

      .cls-2 {
      fill: none;
      }

      .cls-3 {
      fill: #181716;
      }
    </style>
    <clipPath id="clippath">
      <rect class="cls-2" y="0" width="229.6" height="99.2"/>
    </clipPath>
  </defs>
  <g>
    <path class="cls-3"
          d="M65.8,57.3c0-.9.1-2.6.1-4.9v-2.6c0-1.1,0-2-.1-2.8,0-.5,0-.7-.2-.8,0,0-.3-.1-.7-.2h-.7v-.7c1,0,1.7,0,2,0h2.4s2,0,2,0c.8,0,1.6,0,2.4.2.8.2,1.6.5,2.3,1,.7.5,1.2,1.1,1.5,1.9s.5,1.7.5,2.7c0,2-.7,3.7-2,5-1.4,1.3-3.2,2-5.4,2h-1.1c-1.1,0-1.8,0-2.1,0-.5,0-1.1,0-1.9.1v-.4l.8-.5ZM67.8,57.2c.8.1,1.5.2,2.1.2,1.7,0,3-.4,3.9-1.3,1.1-1.1,1.7-2.6,1.7-4.6s-.5-3.1-1.4-4c-.9-.9-2.3-1.4-4.1-1.4s-1.4,0-2.2.2c0,.6-.1,1.2-.1,2v5.9c0,1.1,0,2.1.1,3.1Z"/>
    <path class="cls-3"
          d="M81.4,49.4h.2c0,.6,0,1.1,0,1.6,0,1.8,0,3,0,3.9s0,1.4,0,2c0,.2,0,.4.2.5,0,0,.3.1.6.2h.6v.6c-.9,0-1.7,0-2.4,0s-1.4,0-2.1,0v-.5h.8c.3-.1.5-.2.6-.2,0,0,.1-.4.1-.9,0-.8,0-1.8,0-3.2s0-1.7,0-2.2c0-.2,0-.3-.2-.4,0,0-.3-.1-.6-.1h-.7v-.5c.7-.1,1.3-.2,1.6-.3.3,0,.8-.2,1.3-.5ZM80.7,45.4c.3,0,.5.1.7.3.2.2.3.4.3.7s0,.5-.3.7-.4.3-.7.3-.5,0-.7-.3-.3-.4-.3-.7,0-.5.3-.7c.2-.2.4-.3.7-.3Z"/>
    <path class="cls-3"
          d="M91,51.1c.1.4.2.7.2.9,0,.5-.2,1.1-.5,1.5s-.8.9-1.4,1.2c-.6.3-1.3.5-1.9.5h-.4c-.4.3-.6.5-.8.6-.1.1-.2.3-.2.4,0,.2.1.4.4.5.2.1.7.2,1.4.2s.7,0,1.2,0c.7,0,1.3,0,1.6,0,.5,0,.8,0,1.1.2.3.2.5.4.6.8s.3.8.3,1.3-.2,1.3-.6,1.9c-.4.6-1,1.1-1.8,1.5-.8.4-1.7.6-2.7.6s-2.2-.3-2.9-.8c-.7-.5-1-1.2-1-2s.2-1,.5-1.5c.6-.3,1.1-.6,1.6-.9-.5-.2-.8-.3-.9-.4s-.2-.3-.2-.5,0-.5.2-.7c0-.1.3-.3.6-.5l.9-.6c-.7-.2-1.2-.4-1.6-.8-.4-.4-.6-1-.6-1.7s.2-1.2.5-1.7c.3-.5.8-.9,1.4-1.2.8-.4,1.5-.6,2.2-.6s.9,0,1.2.2c.3.1.7.3,1.1.6h.8c.8,0,1.4,0,1.8,0v.2c0,.3-.2.5-.4.8h-1.7ZM87.2,58.3c-.4,0-.7,0-.9.1-.5.3-.8.6-.9.8-.2.3-.3.7-.3,1.2s.2,1.2.7,1.6c.5.4,1.2.6,2,.6s1.3-.1,1.8-.4.9-.6,1.2-1,.4-.9.4-1.3,0-.7-.3-1-.4-.5-.7-.6c-.1,0-.5,0-.9,0h-2.1ZM89.7,52.6c0-.8-.2-1.4-.6-1.8-.4-.5-.9-.7-1.5-.7s-1,.2-1.4.6c-.4.4-.5.9-.5,1.6s.2,1.4.6,1.9c.4.5.9.7,1.4.7s1-.2,1.4-.6c.4-.4.5-.9.5-1.6Z"/>
    <path class="cls-3"
          d="M97,49.4h.2c0,.6,0,1.1,0,1.6,0,1.8,0,3,0,3.9s0,1.4,0,2c0,.2,0,.4.2.5,0,0,.3.1.6.2h.6v.6c-.9,0-1.7,0-2.4,0s-1.4,0-2.1,0v-.5h.8c.3-.1.5-.2.6-.2,0,0,.1-.4.1-.9,0-.8,0-1.8,0-3.2s0-1.7,0-2.2c0-.2,0-.3-.2-.4,0,0-.3-.1-.6-.1h-.7v-.5c.7-.1,1.3-.2,1.6-.3.3,0,.8-.2,1.3-.5ZM96.3,45.4c.3,0,.5.1.7.3.2.2.3.4.3.7s0,.5-.3.7-.4.3-.7.3-.5,0-.7-.3-.3-.4-.3-.7,0-.5.3-.7c.2-.2.4-.3.7-.3Z"/>
    <path class="cls-3"
          d="M101.8,51.1v3.5c0,.9,0,1.5,0,1.8,0,.3.2.5.4.6s.4.2.7.2.3,0,.5-.1c.2,0,.3-.2.5-.3l.3.3-.9,1c-.2,0-.4.1-.6.2s-.4,0-.5,0c-.4,0-.8,0-1.1-.2-.3-.2-.5-.4-.7-.6-.1-.3-.2-.6-.2-1.2v-1.7s0-3.4,0-3.4c-.5,0-.9,0-1.4,0v-.4c.5-.2,1-.4,1.4-.6,0-.9,0-1.8,0-2.8.7-.3,1.2-.5,1.5-.7l.2.2c0,.5,0,1.6-.2,3.3.7,0,1.3,0,1.8,0h.7s0,.9,0,.9h-.4s-1.7,0-1.7,0h-.3Z"/>
    <path class="cls-3"
          d="M106.6,53.8c0,1.2.3,2.1.9,2.7.6.6,1.3.9,2.3.9s.8,0,1.3-.2c.4-.1.8-.3,1.2-.6h.2c0,.1-.3.9-.3.9-.5.3-1,.5-1.5.6-.5.1-1.1.2-1.6.2-1.2,0-2.2-.4-3-1.2-.7-.8-1.1-1.8-1.1-3.1s.2-1.9.6-2.6c.3-.5.8-.9,1.5-1.4.7-.4,1.5-.6,2.2-.6,1.1,0,1.9.3,2.5.9.6.6.9,1.5.9,2.6v.5c-.4,0-.8.2-1.2.2-.6,0-1.5,0-2.7,0h-2.2ZM106.6,53.1c.9,0,2,0,3.1,0s.9,0,1.3,0v-.5c0-.5-.1-1-.3-1.5-.1-.3-.4-.5-.7-.7-.3-.2-.7-.3-1.1-.3-.7,0-1.2.2-1.6.7s-.6,1.3-.6,2.3Z"/>
    <path class="cls-3"
          d="M116.4,51.2l1.2-1c.3-.3.5-.4.8-.5s.6-.1,1-.1c.7,0,1.2.1,1.7.4.5.3.8.6,1,1,.2.4.3,1.1.3,2.1v2.7c0,.6,0,1.1,0,1.4,0,.1,0,.3.1.3,0,0,.3.1.5.1h.7v.6c-.6,0-1.2,0-1.7,0s-.9,0-1.4,0c.1-1.5.2-3,.2-4.5s0-1.6-.2-2-.3-.6-.7-.8c-.3-.2-.7-.3-1.2-.3s-1,.1-1.4.4-.7.5-.8.8c-.1.2-.2.8-.2,1.6v1.6c0,1.4,0,2.2,0,2.4,0,.1.3.2.7.3h.8v.6c-.9,0-1.7,0-2.3,0s-1.4,0-2.3,0v-.5h.6c.4-.1.6-.2.7-.2,0,0,.2-.2.2-.4,0-.3,0-1,0-2.2v-6.1c0-1.6,0-2.5-.1-2.7,0-.1-.3-.2-.7-.2h-.6v-.5c.9,0,1.7-.2,2.2-.4l.7-.3c0,0,.1,0,.1.2v.4s0,1.6,0,1.6c0,.8,0,1.4,0,1.9v2.4Z"/>
    <path class="cls-3"
          d="M127.6,51.2l1.4-1.2c.2-.1.3-.2.5-.3.4-.1.8-.2,1.2-.2.6,0,1.2.1,1.7.4.5.3.8.6,1,1,.2.4.3,1.1.3,2v2.8c0,1,0,1.5,0,1.7.1.2.3.3.7.3h.6v.5c-.6,0-1.2,0-1.7,0s-.9,0-1.5,0c.1-1.2.2-2.8.2-4.7s0-1.4-.2-1.7c-.1-.3-.4-.6-.7-.8-.3-.2-.7-.3-1.2-.3s-1.1.1-1.5.4c-.4.3-.7.6-.8,1,0,.2,0,.8,0,1.8s0,2.1,0,3.1c0,.3,0,.5.1.5.2.1.4.2.7.2h.6v.5c-1,0-1.8,0-2.4,0s-1.4,0-2.2,0v-.5h.6c.4,0,.7-.1.8-.3,0-.2.1-1.5.1-3.7s0-1.8,0-2.4c0-.2,0-.3-.1-.4,0,0-.3-.1-.7-.1h-.6v-.5c.5,0,1-.1,1.4-.2.4-.1.9-.3,1.4-.5,0,0,.1,0,.2,0,0,0,.1,0,.1.2v.3s0,1.2,0,1.2Z"/>
    <path class="cls-3"
          d="M135.5,53.9c0-.8.2-1.6.6-2.2.4-.7.9-1.2,1.6-1.6.7-.4,1.5-.6,2.4-.6,1.3,0,2.3.4,3.1,1.1.8.8,1.2,1.8,1.2,3s-.5,2.7-1.5,3.5c-.9.8-2,1.2-3.2,1.2s-2.2-.4-2.9-1.2-1.1-1.9-1.1-3.3ZM137.2,53.2c0,1.2.3,2.3.8,3.2.5.9,1.2,1.3,2.2,1.3s1.3-.3,1.8-.8c.4-.6.7-1.4.7-2.5s-.1-1.7-.4-2.4c-.3-.7-.6-1.1-1-1.5s-.9-.5-1.5-.5-.9.1-1.3.4-.7.6-.8,1c-.2.5-.4,1.1-.4,1.8Z"/>
    <path class="cls-3"
          d="M148.1,44.8c-.1,1.8-.2,3.4-.2,4.8v4.6c0,1.8,0,2.9.1,3.1,0,.1.2.2.6.2h.8v.6c-.7,0-1.3,0-1.9,0s-1.5,0-2.6,0v-.5h.8c.3,0,.5-.2.6-.3,0-.2.1-1.3.1-3.2v-6.3s0-1.2,0-1.2c0-.3,0-.5,0-.5,0,0-.3-.1-.6-.1h-.7v-.5c1.3-.1,2.3-.3,3-.7h.2Z"/>
    <path class="cls-3"
          d="M150.1,53.9c0-.8.2-1.6.6-2.2.4-.7.9-1.2,1.6-1.6.7-.4,1.5-.6,2.4-.6,1.3,0,2.3.4,3.1,1.1.8.8,1.2,1.8,1.2,3s-.5,2.7-1.5,3.5c-.9.8-2,1.2-3.2,1.2s-2.2-.4-2.9-1.2-1.1-1.9-1.1-3.3ZM151.7,53.2c0,1.2.3,2.3.8,3.2.5.9,1.2,1.3,2.2,1.3s1.3-.3,1.8-.8c.4-.6.7-1.4.7-2.5s-.1-1.7-.4-2.4c-.3-.7-.6-1.1-1-1.5s-.9-.5-1.5-.5-.9.1-1.3.4-.7.6-.8,1c-.2.5-.4,1.1-.4,1.8Z"/>
    <path class="cls-3"
          d="M160.1,53.9c0-.8.2-1.6.6-2.2.4-.7.9-1.2,1.6-1.6.7-.4,1.5-.6,2.4-.6,1.3,0,2.3.4,3.1,1.1.8.8,1.2,1.8,1.2,3s-.5,2.7-1.5,3.5c-.9.8-2,1.2-3.2,1.2s-2.2-.4-2.9-1.2-1.1-1.9-1.1-3.3ZM161.8,53.2c0,1.2.3,2.3.8,3.2.5.9,1.2,1.3,2.2,1.3s1.3-.3,1.8-.8c.4-.6.7-1.4.7-2.5s-.1-1.7-.4-2.4c-.3-.7-.6-1.1-1-1.5s-.9-.5-1.5-.5-.9.1-1.3.4-.7.6-.8,1c-.2.5-.4,1.1-.4,1.8Z"/>
    <path class="cls-3"
          d="M177.3,51.1c.1.4.2.7.2.9,0,.5-.2,1.1-.5,1.5-.3.5-.8.9-1.4,1.2-.6.3-1.2.5-1.9.5h-.4c-.4.3-.6.5-.8.6-.1.1-.2.3-.2.4,0,.2.1.4.4.5.2.1.7.2,1.4.2s.7,0,1.2,0c.7,0,1.3,0,1.6,0,.5,0,.8,0,1.1.2.3.2.5.4.6.8.2.4.3.8.3,1.3s-.2,1.3-.6,1.9c-.4.6-1,1.1-1.8,1.5-.8.4-1.7.6-2.7.6s-2.2-.3-2.9-.8c-.7-.5-1-1.2-1-2s.2-1,.5-1.5c.6-.3,1.2-.6,1.6-.9-.5-.2-.8-.3-1-.4-.1-.1-.2-.3-.2-.5s0-.5.2-.7c0-.1.3-.3.6-.5l.9-.6c-.7-.2-1.2-.4-1.6-.8-.4-.4-.6-1-.6-1.7s.2-1.2.5-1.7c.3-.5.8-.9,1.4-1.2.8-.4,1.5-.6,2.2-.6s.9,0,1.2.2.7.3,1.1.6h.8c.8,0,1.4,0,1.8,0v.2c0,.3-.2.5-.4.8h-1.7ZM173.5,58.3c-.4,0-.7,0-.9.1-.5.3-.8.6-.9.8-.2.3-.3.7-.3,1.2s.2,1.2.7,1.6c.5.4,1.2.6,2,.6s1.3-.1,1.8-.4.9-.6,1.2-1c.3-.4.4-.9.4-1.3s0-.7-.3-1c-.2-.3-.4-.5-.7-.6-.1,0-.5,0-.9,0h-2.1ZM175.9,52.6c0-.8-.2-1.4-.6-1.8-.4-.5-.9-.7-1.5-.7s-1,.2-1.4.6c-.4.4-.5.9-.5,1.6s.2,1.4.6,1.9c.4.5.9.7,1.4.7s1-.2,1.4-.6.5-.9.5-1.6Z"/>
    <path class="cls-3"
          d="M183.2,49.4h.2c0,.6,0,1.1,0,1.6,0,1.8,0,3,0,3.9s0,1.4,0,2c0,.2,0,.4.2.5,0,0,.3.1.6.2h.6v.6c-.9,0-1.7,0-2.4,0s-1.4,0-2.1,0v-.5h.8c.3-.1.5-.2.6-.2,0,0,.1-.4.1-.9,0-.8,0-1.8,0-3.2s0-1.7,0-2.2c0-.2,0-.3-.2-.4,0,0-.3-.1-.6-.1h-.7v-.5c.7-.1,1.3-.2,1.6-.3s.8-.2,1.3-.5ZM182.5,45.4c.3,0,.5.1.7.3.2.2.3.4.3.7s0,.5-.3.7-.4.3-.7.3-.5,0-.7-.3-.3-.4-.3-.7,0-.5.3-.7c.2-.2.4-.3.7-.3Z"/>
    <path class="cls-3"
          d="M186.5,51.9v-.6s0-.6,0-.6l1-.6c.4-.3.8-.4,1.2-.5.3,0,.7-.1,1.1-.1.8,0,1.5.2,2,.6.5.4.8.8.9,1.4,0,.4.1,1.5.1,3.2,0,1.6,0,2.5.1,2.7,0,.2.2.3.5.3h.7v.6c-.7,0-1.2,0-1.4,0s-.8,0-1.4,0v-.8c0-.3,0-.5,0-.8l-1.9,1.4c-.2.1-.3.2-.5.3s-.4,0-.7,0c-.8,0-1.4-.2-1.8-.6s-.6-.9-.6-1.5.1-1.1.4-1.6c.3-.5.7-.8,1.2-1,.5-.2,1.8-.5,3.7-.8,0-.8-.2-1.3-.5-1.7-.4-.5-1-.7-1.7-.7s-.6,0-.8.1c-.3,0-.5.2-.7.3-.2.4-.3.8-.5,1.2h-.5ZM191.2,53.3c-1.7.4-2.7.7-3.2,1-.5.3-.7.8-.7,1.5s.1.8.4,1.1c.3.3.6.4,1,.4s.9-.1,1.3-.4c.4-.3.8-.6,1.2-1.1v-2s0-.4,0-.4Z"/>
    <path class="cls-3"
          d="M197.3,51.1v3.5c0,.9,0,1.5,0,1.8,0,.3.2.5.4.6.2.1.4.2.7.2s.3,0,.5-.1c.2,0,.3-.2.5-.3l.3.3-.9,1c-.2,0-.4.1-.6.2-.2,0-.4,0-.5,0-.4,0-.8,0-1.1-.2-.3-.2-.5-.4-.7-.6-.1-.3-.2-.6-.2-1.2v-1.7s0-3.4,0-3.4c-.5,0-.9,0-1.4,0v-.4c.5-.2,1-.4,1.4-.6,0-.9,0-1.8,0-2.8.7-.3,1.2-.5,1.5-.7l.2.2c0,.5,0,1.6-.2,3.3.7,0,1.3,0,1.8,0h.7s0,.9,0,.9h-.4s-1.7,0-1.7,0h-.3Z"/>
    <path class="cls-3"
          d="M202.1,53.8c0,1.2.3,2.1.9,2.7.6.6,1.3.9,2.3.9s.8,0,1.2-.2c.4-.1.8-.3,1.2-.6h.2c0,.1-.3.9-.3.9-.5.3-1,.5-1.5.6-.5.1-1.1.2-1.6.2-1.2,0-2.2-.4-3-1.2-.7-.8-1.1-1.8-1.1-3.1s.2-1.9.6-2.6c.3-.5.8-.9,1.5-1.4.7-.4,1.5-.6,2.2-.6,1.1,0,1.9.3,2.5.9.6.6.9,1.5.9,2.6v.5c-.4,0-.8.2-1.2.2-.6,0-1.5,0-2.7,0h-2.2ZM202.1,53.1c.9,0,2,0,3.1,0s.9,0,1.3,0v-.5c0-.5-.1-1-.3-1.5-.1-.3-.4-.5-.7-.7-.3-.2-.7-.3-1.1-.3-.7,0-1.2.2-1.6.7-.4.5-.6,1.3-.6,2.3Z"/>
  </g>
  <g>
    <path class="cls-3"
          d="M67.2,66.5h.2c0,.6,0,1.1,0,1.6,0,1.8,0,3,0,3.9s0,1.4,0,2c0,.2,0,.4.2.5,0,0,.3.1.6.2h.6v.6c-.9,0-1.7,0-2.4,0s-1.4,0-2.1,0v-.5h.8c.3-.1.5-.2.6-.2,0,0,.1-.4.1-.9,0-.8,0-1.8,0-3.2s0-1.7,0-2.2c0-.2,0-.3-.2-.4s-.3-.1-.6-.1h-.7v-.5c.7-.1,1.3-.2,1.6-.3.3,0,.8-.2,1.3-.5ZM66.5,62.5c.3,0,.5.1.7.3s.3.4.3.7,0,.5-.3.7-.4.3-.7.3-.5,0-.7-.3-.3-.4-.3-.7,0-.5.3-.7.4-.3.7-.3Z"/>
    <path class="cls-3"
          d="M72.7,68.2l1.4-1.2c.2-.1.3-.2.5-.3.4-.1.8-.2,1.2-.2.6,0,1.2.1,1.7.4s.8.6,1,1c.2.4.3,1.1.3,2v2.8c0,1,0,1.5,0,1.7.1.2.3.3.7.3h.6v.5c-.6,0-1.2,0-1.7,0s-.9,0-1.5,0c.1-1.2.2-2.8.2-4.7s0-1.4-.2-1.7c-.1-.3-.4-.6-.7-.8-.3-.2-.7-.3-1.2-.3s-1.1.1-1.5.4c-.4.3-.7.6-.8,1,0,.2,0,.8,0,1.8s0,2.1,0,3.1c0,.3,0,.5.1.5.2.1.4.2.7.2h.6v.5c-1,0-1.8,0-2.4,0s-1.4,0-2.2,0v-.5h.6c.4,0,.7-.1.8-.3,0-.2.1-1.5.1-3.7s0-1.8,0-2.4c0-.2,0-.3-.1-.4,0,0-.3-.1-.7-.1h-.6v-.5c.5,0,1-.1,1.4-.2.4-.1.9-.3,1.4-.5,0,0,.1,0,.2,0,0,0,.1,0,.1.2v.3s0,1.2,0,1.2Z"/>
    <path class="cls-3"
          d="M81.8,72.5v.6c0,.5,0,.8.1.9.2.2.5.4.9.6.5.2.9.3,1.4.3s1.1-.2,1.5-.5c.4-.3.6-.7.6-1.2s-.1-.7-.3-.9c-.2-.2-.7-.4-1.3-.5-1.2-.2-2-.5-2.4-.6-.4-.2-.7-.4-.9-.7-.2-.3-.3-.7-.3-1.1,0-.8.3-1.4.9-1.9.6-.5,1.4-.7,2.5-.7s1.7.2,2.5.5c0,.4,0,1.1-.1,2.1h-.5c0-.5,0-.9-.2-1-.1-.2-.4-.4-.8-.6-.4-.2-.8-.3-1.2-.3s-1,.1-1.3.4c-.3.3-.5.6-.5,1.1s.1.7.4.9c.3.2,1,.4,2.1.7.9.2,1.4.3,1.7.5s.5.4.7.7c.2.3.3.7.3,1.1,0,.8-.3,1.5-1,2.1-.7.6-1.6.9-2.8.9s-1.6-.1-2.5-.3c-.2,0-.2-.1-.2-.2h0c0-.2,0-.4,0-.6,0-.6,0-1,0-1.4v-.4s.5,0,.5,0Z"/>
    <path class="cls-3"
          d="M91.4,68.1v3.5c0,.9,0,1.5,0,1.8,0,.3.2.5.4.6s.4.2.7.2.3,0,.5-.1c.2,0,.3-.2.5-.3l.3.3-.9,1c-.2,0-.4.1-.6.2s-.4,0-.5,0c-.4,0-.8,0-1.1-.2-.3-.2-.5-.4-.7-.6-.1-.3-.2-.6-.2-1.2v-1.7s0-3.4,0-3.4c-.5,0-.9,0-1.4,0v-.4c.5-.2,1-.4,1.4-.6,0-.9,0-1.8,0-2.8.7-.3,1.2-.5,1.5-.7l.2.2c0,.5,0,1.6-.2,3.3.7,0,1.3,0,1.8,0h.7s0,.9,0,.9h-.4s-1.7,0-1.7,0h-.3Z"/>
    <path class="cls-3"
          d="M97.8,66.5h.2c0,.6,0,1.1,0,1.6,0,1.8,0,3,0,3.9s0,1.4,0,2c0,.2,0,.4.2.5,0,0,.3.1.6.2h.6v.6c-.9,0-1.7,0-2.4,0s-1.4,0-2.1,0v-.5h.8c.3-.1.5-.2.6-.2,0,0,.1-.4.1-.9,0-.8,0-1.8,0-3.2s0-1.7,0-2.2c0-.2,0-.3-.2-.4s-.3-.1-.6-.1h-.7v-.5c.7-.1,1.3-.2,1.6-.3.3,0,.8-.2,1.3-.5ZM97.1,62.5c.3,0,.5.1.7.3s.3.4.3.7,0,.5-.3.7-.4.3-.7.3-.5,0-.7-.3-.3-.4-.3-.7,0-.5.3-.7.4-.3.7-.3Z"/>
    <path class="cls-3"
          d="M102.6,68.1v3.5c0,.9,0,1.5,0,1.8,0,.3.2.5.4.6s.4.2.7.2.3,0,.5-.1c.2,0,.3-.2.5-.3l.3.3-.9,1c-.2,0-.4.1-.6.2s-.4,0-.5,0c-.4,0-.8,0-1.1-.2-.3-.2-.5-.4-.7-.6-.1-.3-.2-.6-.2-1.2v-1.7s0-3.4,0-3.4c-.5,0-.9,0-1.4,0v-.4c.5-.2,1-.4,1.4-.6,0-.9,0-1.8,0-2.8.7-.3,1.2-.5,1.5-.7l.2.2c0,.5,0,1.6-.2,3.3.7,0,1.3,0,1.8,0h.7s0,.9,0,.9h-.4s-1.7,0-1.7,0h-.3Z"/>
    <path class="cls-3"
          d="M113.2,75.2v-1.6c0,0-.4.6-.4.6-.4.5-.8.8-1.3,1-.4.2-1,.3-1.6.3s-1-.1-1.4-.3c-.4-.2-.7-.5-.9-.9-.2-.4-.3-.9-.3-1.7s0-.9,0-1.4v-1.5c0-1,0-1.6,0-1.7s-.2-.2-.6-.2h-.8v-.5c.8,0,1.6-.2,2.3-.5l.8-.3c.1,0,.2,0,.2.2v.9c-.1,1.3-.2,2.5-.2,3.5s0,1.8.1,2.1.3.6.6.8c.3.2.6.3,1.1.3s1.1-.2,1.5-.5c.5-.4.8-.7.9-1.1,0-.2.1-.8.1-1.9,0-1.8,0-2.7,0-2.9,0-.1-.3-.2-.8-.2h-.7v-.5c.6,0,1.1-.2,1.6-.3.4,0,.9-.2,1.4-.4,0,0,.1,0,.2,0,.1,0,.2,0,.2.2v.8c-.1,2.1-.2,3.9-.2,5.4s0,1.4.1,1.5c.1.2.4.3.9.3h.5v.5c-.8,0-1.4,0-1.9,0s-.8,0-1.2,0Z"/>
    <path class="cls-3"
          d="M123.8,75.2v-1.6c0,0-.4.6-.4.6-.4.5-.8.8-1.3,1-.4.2-1,.3-1.6.3s-1-.1-1.4-.3c-.4-.2-.7-.5-.8-.9-.2-.4-.3-.9-.3-1.7s0-.9,0-1.4v-1.5c0-1,0-1.6,0-1.7,0-.1-.2-.2-.6-.2h-.8v-.5c.8,0,1.6-.2,2.3-.5l.8-.3c.1,0,.2,0,.2.2v.9c-.1,1.3-.2,2.5-.2,3.5s0,1.8.1,2.1.3.6.6.8c.3.2.6.3,1.1.3s1.1-.2,1.5-.5c.5-.4.8-.7.9-1.1,0-.2.1-.8.1-1.9,0-1.8,0-2.7,0-2.9,0-.1-.3-.2-.8-.2h-.7v-.5c.6,0,1.1-.2,1.6-.3.4,0,.9-.2,1.4-.4,0,0,.1,0,.2,0,.1,0,.2,0,.2.2v.8c-.1,2.1-.2,3.9-.2,5.4s0,1.4.1,1.5c.1.2.4.3.9.3h.5v.5c-.8,0-1.4,0-1.9,0s-.8,0-1.2,0Z"/>
    <path class="cls-3"
          d="M130.2,68.1v3.5c0,.9,0,1.5,0,1.8,0,.3.2.5.4.6.2.1.4.2.7.2s.3,0,.5-.1c.2,0,.3-.2.5-.3l.3.3-.9,1c-.2,0-.4.1-.6.2-.2,0-.4,0-.5,0-.4,0-.8,0-1.1-.2-.3-.2-.5-.4-.7-.6-.1-.3-.2-.6-.2-1.2v-1.7s0-3.4,0-3.4c-.5,0-.9,0-1.4,0v-.4c.5-.2,1-.4,1.4-.6,0-.9,0-1.8,0-2.8.7-.3,1.2-.5,1.5-.7l.2.2c0,.5,0,1.6-.2,3.3.7,0,1.3,0,1.8,0h.7s0,.9,0,.9h-.4s-1.7,0-1.7,0h-.3Z"/>
  </g>
  <g class="cls-4">
    <path class="cls-1"
          d="M19.9,58.4v2.2c.2,0,.5,0,.7,0,4.2,0,8.1.7,11.6,2.1v-17.7c0-3.3,1.2-5.1,3-6.3,1.7,1.2,3,3,3,6.3v20.8c1.5,1,2.8,2.1,4,3.4v-24.2c0-5.5-2.9-8.6-6.1-10.5-.3-.2-.6-.4-.9-.5-.3.1-.6.3-.9.5-3.1,1.8-6.2,5-6.2,10.5v13.5h-4.2v-13.2c0-10.9,4.8-16.7,11.2-20.4,6,3.6,11.2,9.4,11.2,20.4v13.2h4.1v-13.5c0-13-6.8-20.1-14.6-24.7,0,0-.6-.4-.7-.4-.1,0-.7.4-.7.4-7.5,4.2-14.6,11.7-14.6,24.7v13.5Z"/>
    <path class="cls-3"
          d="M67,34.2c0,.4,0,.8,0,1.3v2.3c0,.8,0,1.3,0,1.4,0,0,.2.1.5.1h.3v.2c-.5,0-.9,0-1.2,0s-.7,0-1.2,0v-.2h.3c.2,0,.3,0,.3,0,0,0,0-.1,0-.3,0-.3,0-.7,0-1.2v-2.3c0-.4,0-.9,0-1.2h-.4c-.7,0-1,0-1.1,0,0,0-.1.1-.1.4v.5h-.3v-.5c0-.2,0-.5,0-.8,1.4,0,2.3,0,2.5,0h2.2c0,.4,0,.8,0,1.3h-.2v-.5c0-.2,0-.3-.1-.3,0,0,0,0-.2,0-.3,0-.6,0-1,0h-.3Z"/>
    <path class="cls-3"
          d="M72.7,37.5h-2.3l-.3.7c-.2.4-.3.7-.3.8s0,.1,0,.1c0,0,.1,0,.3,0h.4v.3c-.3,0-.5,0-.9,0s-.7,0-1,0v-.2h.1c.2,0,.3,0,.4,0,0,0,.1-.1.2-.2.2-.4.4-.8.6-1.2l1.1-2.5c.3-.7.5-1.1.6-1.4h.3l2,4.7c.1.3.2.5.3.6,0,0,0,.1.2.1,0,0,.2,0,.4,0v.2c-.3,0-.7,0-1,0s-.7,0-1.2,0v-.2h.4c.1,0,.2,0,.2,0,0,0,0,0,0-.1s0-.2-.1-.4l-.4-1.1ZM70.5,37.2h2l-1-2.4-1,2.4Z"/>
    <path class="cls-3"
          d="M76.7,39c.3,0,.5,0,.8,0,.5,0,.9,0,1.2,0,.2,0,.4,0,.6-.1l.2-.9h.2c0,.5-.1,1-.2,1.4-.2,0-.6,0-1,0h-1.9c-.3,0-.7,0-1.2,0v-.2c.2,0,.3-.2.4-.3,0-.1,0-.5,0-1.3v-2.2c0-.8,0-1.2,0-1.3,0,0-.1-.1-.3-.1h-.4v-.2c.6,0,1,0,1.3,0s.7,0,1.1,0v.2h-.5c-.1,0-.2,0-.3.1,0,0,0,.4,0,1v3.6s0,.2,0,.2Z"/>
    <path class="cls-3"
          d="M81.8,39c.3,0,.5,0,.8,0,.5,0,.9,0,1.2,0,.2,0,.4,0,.6-.1l.2-.9h.2c0,.5-.1,1-.2,1.4-.2,0-.6,0-1,0h-1.9c-.3,0-.6,0-1.2,0v-.2c.2,0,.3-.2.4-.3,0-.1,0-.5,0-1.3v-2.2c0-.8,0-1.2,0-1.3,0,0-.1-.1-.3-.1h-.4v-.2c.6,0,1.1,0,1.3,0s.7,0,1.1,0v.2h-.5c-.1,0-.2,0-.3.1,0,0,0,.4,0,1v3.6s0,.2,0,.2Z"/>
    <path class="cls-3"
          d="M85.3,39.2h.3c.2,0,.4,0,.4-.2,0-.1,0-.7,0-1.7v-1.3c0-1.1,0-1.6,0-1.8,0-.1-.2-.2-.4-.2h-.3v-.2c.4,0,.9,0,1.3,0s.7,0,1,0v.2h-.3c-.2,0-.3,0-.4,0,0,0,0,.2,0,.3,0,.3,0,.8,0,1.5v1.4c0,1,0,1.6,0,1.7,0,.1.2.2.4.2h.3v.2c-.3,0-.7,0-1.1,0s-.9,0-1.2,0v-.2Z"/>
    <path class="cls-3"
          d="M89.8,34.7v2.7c0,.6,0,1.1,0,1.3,0,.2,0,.3,0,.3,0,0,.2,0,.4,0h.3v.3c-.3,0-.6,0-.8,0s-.5,0-1.1,0v-.2h.3c.2,0,.3,0,.3,0,0,0,0-.1,0-.3,0-.3,0-.7,0-1.2v-2c0-.4,0-.7,0-1.1,0-.2,0-.3,0-.3,0,0,0-.1-.2-.2,0,0-.2,0-.3,0h-.2v-.2c.3,0,.6,0,.8,0s.4,0,.6,0c.3.3.5.6.7.9.2.3.5.6.7.9l1.4,1.7c.5.6.8,1,1.1,1.2v-2.5c0-1.1,0-1.6,0-1.7,0,0-.2-.2-.5-.2h-.3v-.3c.4,0,.8,0,1,0s.6,0,1,0v.2h-.3c-.2,0-.4,0-.4.2,0,.1,0,.7,0,1.7v1.8c0,.5,0,1.1,0,1.7-.4,0-.6,0-.6-.1,0,0-.1,0-.2-.1-.3-.3-.6-.7-.9-1.1l-2.8-3.5Z"/>
    <path class="cls-3"
          d="M96.8,34.7v2.7c0,.6,0,1.1,0,1.3,0,.2,0,.3,0,.3,0,0,.2,0,.4,0h.3v.3c-.3,0-.6,0-.8,0s-.5,0-1.1,0v-.2h.3c.2,0,.3,0,.3,0,0,0,0-.1,0-.3,0-.3,0-.7,0-1.2v-2c0-.4,0-.7,0-1.1,0-.2,0-.3,0-.3,0,0,0-.1-.2-.2,0,0-.2,0-.3,0h-.2v-.2c.3,0,.6,0,.8,0s.4,0,.6,0c.3.3.5.6.7.9.2.3.5.6.7.9l1.4,1.7c.5.6.8,1,1.1,1.2v-2.5c0-1.1,0-1.6,0-1.7,0,0-.2-.2-.5-.2h-.3v-.3c.4,0,.8,0,1,0s.6,0,1,0v.2h-.3c-.2,0-.4,0-.4.2,0,.1,0,.7,0,1.7v1.8c0,.5,0,1.1,0,1.7-.4,0-.6,0-.6-.1,0,0-.1,0-.2-.1-.3-.3-.6-.7-.9-1.1l-2.8-3.5Z"/>
    <path class="cls-3"
          d="M106.2,37.5h-2.3l-.3.7c-.2.4-.3.7-.3.8s0,.1,0,.1c0,0,.1,0,.3,0h.4v.3c-.3,0-.5,0-.9,0s-.7,0-1,0v-.2h.1c.2,0,.3,0,.4,0,0,0,.1-.1.2-.2.2-.4.4-.8.6-1.2l1.1-2.5c.3-.7.5-1.1.6-1.4h.3l2,4.7c.1.3.2.5.3.6,0,0,0,.1.2.1,0,0,.2,0,.4,0v.2c-.3,0-.7,0-1,0s-.7,0-1.2,0v-.2h.4c.1,0,.2,0,.2,0,0,0,0,0,0-.1s0-.2-.1-.4l-.4-1.1ZM104,37.2h2l-1-2.4-1,2.4Z"/>
    <path class="cls-3"
          d="M111.9,34v-.2c.5,0,.9,0,1.2,0s.6,0,1.1,0v.2h-.3c-.2,0-.4,0-.4.1,0,0,0,.5,0,1.3v1.6c0,.6,0,1,0,1.2,0,.2.2.4.5.6s.6.2,1,.2.8,0,1.1-.2c.2-.1.4-.3.5-.5,0-.2.1-.7.1-1.4v-1.5c0-.7,0-1.1,0-1.2,0-.1-.2-.2-.5-.2h-.2v-.2c.5,0,.9,0,1,0,.2,0,.5,0,.9,0v.2h-.3c-.2,0-.3,0-.4.2,0,.1,0,.5,0,1.2v1.5c0,.7,0,1.1-.1,1.4,0,.2-.2.5-.4.6-.2.2-.4.3-.7.5-.3.1-.7.2-1.1.2s-.8,0-1.1-.1c-.3,0-.5-.2-.7-.4-.2-.1-.3-.3-.3-.5,0-.2-.1-.6-.1-1.1v-.8s0-1.2,0-1.2c0-.7,0-1.2,0-1.3,0,0-.2-.1-.4-.1h-.3ZM114.2,32.5c.1,0,.2,0,.3.1,0,0,.1.2.1.3s0,.2-.1.3c0,0-.2.1-.3.1s-.2,0-.3-.1c0,0-.1-.2-.1-.3s0-.2.1-.3c0,0,.2-.1.3-.1M115.9,32.5c.1,0,.2,0,.3.1,0,0,.1.2.1.3s0,.2-.1.3c0,0-.2.1-.3.1s-.2,0-.3-.1c0,0-.1-.2-.1-.3s0-.2.1-.3.2-.1.3-.1"/>
    <path class="cls-3"
          d="M120.3,39c.3,0,.5,0,.8,0,.5,0,.9,0,1.2,0,.2,0,.4,0,.6-.1l.2-.9h.2c0,.5-.1,1-.2,1.4-.2,0-.6,0-1,0h-1.9c-.3,0-.6,0-1.2,0v-.2c.2,0,.3-.2.4-.3,0-.1,0-.5,0-1.3v-2.2c0-.8,0-1.2,0-1.3,0,0-.1-.1-.3-.1h-.4v-.2c.6,0,1,0,1.3,0s.7,0,1.1,0v.2h-.5c-.1,0-.2,0-.3.1,0,0,0,.4,0,1v3.6s0,.2,0,.2Z"/>
    <path class="cls-3"
          d="M123.8,39.2h.3c.2,0,.4,0,.4-.2,0-.1,0-.7,0-1.7v-1.3c0-1.1,0-1.6,0-1.8,0-.1-.2-.2-.4-.2h-.3v-.2c.4,0,.9,0,1.3,0s.7,0,1,0v.2h-.3c-.2,0-.3,0-.4,0,0,0,0,.2,0,.3,0,.3,0,.8,0,1.5v1.4c0,1,0,1.6,0,1.7,0,.1.2.2.4.2h.3v.2c-.3,0-.7,0-1.1,0s-.9,0-1.2,0v-.2Z"/>
    <path class="cls-3"
          d="M129.4,36.3l2.7,2.5.2.2c0,0,.1,0,.2,0,0,0,.1,0,.3,0v.2c-.2,0-.4,0-.6,0s-.4,0-.6,0l-2.7-2.6c0,0-.1-.1-.2-.1,0,0,0,0,0,.2v1.2c0,.6,0,.9,0,1,0,0,.2.1.4.1h.3v.2c-.4,0-.8,0-1.2,0s-.7,0-1.1,0v-.2h.3c.2,0,.3,0,.4-.1,0,0,0-.4,0-1v-2.7c0-.7,0-1.1,0-1.2,0,0-.2-.1-.4-.1h-.3v-.2c.5,0,.8,0,1.1,0s.6,0,1.2,0v.2h-.3c-.2,0-.3,0-.3,0s0,.1,0,.2c0,.1,0,.5,0,1.1v1.1h0c.2-.2.4-.3.6-.5.2-.1.4-.4.8-.8l1.1-1.2v-.3c.3,0,.5,0,.7,0s.4,0,.7,0v.2h-.2c-.2,0-.4,0-.5.1-.1,0-.4.3-.9.8l-1.5,1.4Z"/>
    <path class="cls-3"
          d="M133,36.6c0-.9.3-1.6.8-2.1.6-.5,1.3-.8,2.2-.8s1.6.2,2.1.7c.5.5.8,1.1.8,2s-.3,1.6-.9,2.2c-.6.6-1.4.9-2.3.9s-1.1-.1-1.5-.3c-.4-.2-.7-.6-1-1-.2-.4-.4-1-.4-1.5M133.8,36.3c0,.6.1,1.1.3,1.6.2.4.5.8.8,1,.3.2.7.3,1.2.3s.8,0,1.1-.3c.3-.2.5-.5.7-.8.2-.4.3-.8.3-1.4s0-1-.3-1.4c-.2-.4-.5-.7-.8-.9-.3-.2-.7-.3-1.2-.3s-.8,0-1.1.3c-.3.2-.5.4-.7.8-.2.3-.3.7-.3,1.2"/>
    <path class="cls-3"
          d="M139.6,36.6c0-.9.3-1.6.8-2.1.6-.5,1.3-.8,2.2-.8s1.6.2,2.1.7c.5.5.8,1.1.8,2s-.3,1.6-.9,2.2c-.6.6-1.4.9-2.3.9s-1.1-.1-1.5-.3c-.4-.2-.7-.6-1-1-.2-.4-.4-1-.4-1.5M140.4,36.3c0,.6.1,1.1.3,1.6.2.4.5.8.8,1,.3.2.7.3,1.2.3s.8,0,1.1-.3c.3-.2.5-.5.7-.8.2-.4.3-.8.3-1.4s0-1-.3-1.4c-.2-.4-.5-.7-.8-.9-.3-.2-.7-.3-1.2-.3s-.8,0-1.1.3c-.3.2-.5.4-.7.8-.2.3-.3.7-.3,1.2"/>
    <path class="cls-3"
          d="M147.8,39c.3,0,.5,0,.8,0,.5,0,.9,0,1.2,0,.2,0,.4,0,.6-.1l.2-.9h.2c0,.5-.1,1-.2,1.4-.2,0-.6,0-1,0h-1.9c-.3,0-.6,0-1.2,0v-.2c.2,0,.3-.2.4-.3,0-.1,0-.5,0-1.3v-2.2c0-.8,0-1.2,0-1.3,0,0-.1-.1-.3-.1h-.4v-.2c.6,0,1,0,1.3,0s.6,0,1.1,0v.2h-.5c-.1,0-.2,0-.3.1,0,0,0,.4,0,1v3.6s0,.2,0,.2Z"/>
  </g>
</svg>
