<?xml version="1.0" encoding="UTF-8"?>
<svg id="Layer_1" data-name="Layer 1" xmlns="http://www.w3.org/2000/svg"
     version="1.1" viewBox="0 0 229.6 99.2">
  <defs>
    <style>
      .cls-1 {
      fill: #b10508;
      }

      .cls-1, .cls-2, .cls-3 {
      stroke-width: 0px;
      }

      .cls-4 {
      clip-path: url(#clippath);
      }

      .cls-2 {
      fill: none;
      }

      .cls-3 {
      fill: #181716;
      }
    </style>
    <clipPath id="clippath">
      <rect class="cls-2" y="0" width="212.6" height="99.2"/>
    </clipPath>
  </defs>
  <g>
    <path class="cls-3"
          d="M71.5,45.7c-.2.6-.2,1.4-.3,2.4h-.6v-.7c0-.5,0-.8-.2-.9s-.4-.3-1-.5c-.5-.2-1.1-.3-1.6-.3-.9,0-1.7.2-2.2.7-.5.5-.8,1.1-.8,1.8s.1.9.3,1.2c.2.3.5.6.9.7s1.2.3,2.3.4c1.2.1,2,.3,2.4.5.4.2.8.5,1,.9.3.4.4.9.4,1.5,0,1.2-.5,2.2-1.5,3s-2.3,1.3-3.9,1.3-1.1,0-1.7-.2c-.6-.1-1.1-.3-1.7-.5.1-.7.2-1.6.1-2.7h.6v.4c0,.6,0,.9,0,1,0,.1.2.3.4.4.3.2.7.4,1.1.5.4.1.9.2,1.4.2,1.1,0,1.9-.3,2.5-.8.6-.5.9-1.2.9-2s-.1-.9-.3-1.2c-.2-.3-.5-.6-.9-.7-.4-.2-1-.3-2-.4-1.3-.1-2.2-.3-2.7-.5-.5-.2-.8-.5-1.1-1s-.4-1-.4-1.7c0-1.1.4-2.1,1.2-2.8.8-.7,2-1.1,3.4-1.1s1.2,0,1.7.2,1.2.3,1.8.6Z"/>
    <path class="cls-3"
          d="M79.7,56.3l.2.2-.4.6c-.4.2-.8.4-1.2.5-.4.1-.8.2-1.3.2-.9,0-1.6-.2-2.2-.5s-1.1-.8-1.4-1.4c-.3-.6-.5-1.3-.5-2.2s.1-1.4.4-2c.2-.6.6-1,1.1-1.3.5-.3,1-.6,1.7-.9.5-.2,1-.3,1.6-.3s.8,0,1.2.1c.3,0,.7.2,1,.4-.1.8-.2,1.5-.2,2.3h-.5v-.4c0-.4,0-.6-.2-.8-.1-.2-.4-.3-.7-.5-.4-.2-.8-.2-1.3-.2-.8,0-1.4.2-1.8.7-.4.5-.6,1.2-.6,2.1s.3,2.2.9,2.9c.6.7,1.3,1,2.2,1s.7,0,1-.1c.3,0,.7-.2,1-.4Z"/>
    <path class="cls-3"
          d="M83.8,50.8l1.1-1c.3-.2.5-.4.8-.5.3,0,.6-.1.9-.1.6,0,1.2.1,1.7.4.5.3.8.6,1,1,.2.4.3,1.1.3,2.1v2.6c0,.6,0,1,0,1.4,0,.1,0,.2.1.3,0,0,.2.1.5.1h.7v.6c-.6,0-1.1,0-1.6,0s-.9,0-1.4,0c.1-1.5.2-2.9.2-4.3s0-1.6-.2-1.9-.3-.6-.6-.8c-.3-.2-.7-.3-1.2-.3s-.9.1-1.3.3c-.4.2-.7.5-.8.8-.1.2-.2.7-.2,1.5v1.5c0,1.4,0,2.1,0,2.3s.3.2.7.3h.8v.6c-.9,0-1.6,0-2.2,0s-1.3,0-2.3,0v-.5h.5c.3-.1.6-.2.6-.2,0,0,.1-.2.2-.4,0-.3,0-1,0-2.1v-5.9c0-1.6,0-2.4-.1-2.6,0-.1-.3-.2-.7-.2h-.6v-.5c.9,0,1.6-.2,2.2-.4l.7-.2c0,0,.1,0,.1.2v.4s0,1.6,0,1.6c0,.8,0,1.4,0,1.8v2.3Z"/>
    <path class="cls-3"
          d="M91.4,53.4c0-.8.2-1.5.6-2.2.4-.6.9-1.2,1.6-1.5.7-.4,1.4-.5,2.3-.5,1.2,0,2.2.4,3,1.1s1.1,1.7,1.1,2.9-.5,2.6-1.5,3.4c-.9.8-1.9,1.1-3.1,1.1s-2.1-.4-2.8-1.2c-.7-.8-1.1-1.8-1.1-3.2ZM93.1,52.8c0,1.2.2,2.2.7,3.1.5.9,1.2,1.3,2.1,1.3s1.3-.3,1.7-.8c.4-.5.6-1.3.6-2.4s-.1-1.6-.4-2.3c-.3-.6-.6-1.1-1-1.4s-.9-.4-1.4-.4-.9.1-1.2.3c-.4.2-.6.5-.8.9-.2.5-.4,1.1-.4,1.7Z"/>
    <path class="cls-3"
          d="M101.2,53.4c0-.8.2-1.5.6-2.2.4-.6.9-1.2,1.6-1.5.7-.4,1.4-.5,2.3-.5,1.2,0,2.2.4,3,1.1s1.1,1.7,1.1,2.9-.5,2.6-1.5,3.4c-.9.8-1.9,1.1-3.1,1.1s-2.1-.4-2.8-1.2c-.7-.8-1.1-1.8-1.1-3.2ZM102.8,52.8c0,1.2.2,2.2.7,3.1.5.9,1.2,1.3,2.1,1.3s1.3-.3,1.7-.8c.4-.5.7-1.3.7-2.4s-.1-1.6-.4-2.3c-.3-.6-.6-1.1-1-1.4s-.9-.4-1.4-.4-.9.1-1.2.3c-.4.2-.6.5-.8.9-.2.5-.4,1.1-.4,1.7Z"/>
    <path class="cls-3"
          d="M113.3,44.6c0,1.7-.1,3.2-.1,4.6v4.5c0,1.8,0,2.8.1,3,0,.1.2.2.6.2h.7v.6c-.6,0-1.2,0-1.8,0s-1.5,0-2.5,0v-.5h.8c.3,0,.5-.2.6-.3,0-.2.1-1.3.1-3.1v-6.1s0-1.1,0-1.1c0-.3,0-.5,0-.5,0,0-.3-.1-.6-.1h-.7v-.5c1.2-.1,2.2-.3,2.9-.7h.1Z"/>
    <path class="cls-3"
          d="M120.1,53.4c0-.8.2-1.5.6-2.2.4-.6.9-1.2,1.6-1.5.7-.4,1.4-.5,2.3-.5,1.2,0,2.2.4,3,1.1s1.1,1.7,1.1,2.9-.5,2.6-1.5,3.4c-.9.8-1.9,1.1-3.1,1.1s-2.1-.4-2.8-1.2c-.7-.8-1.1-1.8-1.1-3.2ZM121.8,52.8c0,1.2.2,2.2.7,3.1.5.9,1.2,1.3,2.1,1.3s1.3-.3,1.7-.8c.4-.5.6-1.3.6-2.4s-.1-1.6-.4-2.3c-.3-.6-.6-1.1-1-1.4-.4-.3-.9-.4-1.4-.4s-.9.1-1.2.3c-.4.2-.6.5-.8.9-.2.5-.4,1.1-.4,1.7Z"/>
    <path class="cls-3"
          d="M132.3,50.6v3.4c0,1.6,0,2.5.1,2.7,0,.2.4.3.9.3h.8v.5c-1,0-1.6,0-2.1,0h-2.8c0,0,0-.4,0-.4h.6c.5,0,.7,0,.8-.3.1-.2.2-1.2.2-2.7v-3.4h-1.3c0,0,0-.3,0-.3.4-.2.8-.4,1.3-.6v-1.1c0-.6,0-1,.2-1.4s.5-.8.9-1.3c.6-.6,1.1-1.1,1.4-1.3.2-.1.5-.2.9-.2s.5,0,.8.1c0,.3,0,.5,0,.7s0,.4,0,.7h-.2c-.3-.2-.7-.4-1.2-.4s-.8.2-1,.5c-.2.3-.3,1.1-.3,2.4v1.2c.9,0,1.7,0,2.3,0h0c0,0-.1.9-.1.9h-1.1c-.3,0-.6,0-1.2,0Z"/>
    <path class="cls-3"
          d="M141.4,56.7c0-.9.1-2.5.1-4.7v-2.5c0-1,0-1.9-.1-2.7,0-.4,0-.7-.2-.8,0,0-.3-.1-.7-.2h-.7v-.7c1,0,1.6,0,1.9,0h2.3s1.9,0,1.9,0c.8,0,1.6,0,2.4.2s1.5.5,2.2,1,1.2,1.1,1.5,1.8.5,1.6.5,2.6c0,2-.7,3.6-2,4.9-1.3,1.3-3,1.9-5.2,1.9h-1.1c-1.1,0-1.7,0-2,0-.5,0-1.1,0-1.8.1v-.4l.8-.5ZM143.3,56.6c.8.1,1.5.2,2.1.2,1.6,0,2.9-.4,3.8-1.3,1.1-1,1.6-2.5,1.6-4.4s-.5-3-1.4-3.9c-.9-.9-2.2-1.3-4-1.3s-1.3,0-2.2.2c0,.6-.1,1.2-.1,1.9v5.7c0,1.1,0,2,.1,3Z"/>
    <path class="cls-3"
          d="M156.5,49.1h.2c0,.6,0,1,0,1.6,0,1.7,0,2.9,0,3.8s0,1.4,0,1.9c0,.2,0,.4.2.4s.3.1.6.2h.6v.6c-.8,0-1.6,0-2.3,0s-1.4,0-2.1,0v-.5h.8c.3-.1.5-.2.5-.2,0,0,.1-.4.1-.8,0-.7,0-1.8,0-3.1s0-1.6,0-2.1c0-.2,0-.3-.2-.4s-.3-.1-.6-.1h-.7v-.5c.7-.1,1.2-.2,1.6-.3.3,0,.8-.2,1.3-.4ZM155.8,45.2c.3,0,.5,0,.7.3.2.2.3.4.3.7s0,.5-.3.7c-.2.2-.4.3-.7.3s-.5,0-.7-.3c-.2-.2-.3-.4-.3-.7s0-.5.3-.7c.2-.2.4-.3.7-.3Z"/>
    <path class="cls-3"
          d="M165.8,50.8c.1.4.2.7.2.9,0,.5-.2,1-.5,1.5-.3.5-.8.9-1.3,1.2-.6.3-1.2.4-1.9.4h-.4c-.4.3-.6.5-.7.6-.1.1-.2.3-.2.4,0,.2.1.4.3.5s.7.2,1.4.2.7,0,1.2,0c.7,0,1.2,0,1.6,0,.5,0,.8,0,1.1.2s.5.4.6.8c.2.4.3.8.3,1.3s-.2,1.3-.6,1.9c-.4.6-1,1.1-1.7,1.4-.8.4-1.6.5-2.6.5s-2.1-.3-2.8-.8c-.6-.5-1-1.2-1-1.9s.2-.9.5-1.4c.6-.3,1.1-.6,1.5-.9-.5-.2-.8-.3-.9-.4-.1-.1-.2-.3-.2-.5s0-.5.2-.7c0-.1.3-.3.6-.5l.8-.6c-.7-.2-1.2-.4-1.5-.7-.4-.4-.6-1-.6-1.7s.2-1.1.5-1.6c.3-.5.7-.9,1.3-1.1.7-.4,1.5-.5,2.2-.5s.8,0,1.2.2c.3.1.7.3,1,.6h.7c.8,0,1.3,0,1.8,0v.2c0,.3-.2.5-.4.8h-1.6ZM162.1,57.7c-.4,0-.7,0-.8.1-.5.3-.8.6-.9.8-.2.3-.3.7-.3,1.1s.2,1.2.7,1.6c.5.4,1.1.6,2,.6s1.2-.1,1.7-.4c.5-.2.9-.6,1.1-1,.3-.4.4-.8.4-1.3s0-.7-.3-1c-.2-.3-.4-.5-.7-.6-.1,0-.4,0-.9,0h-2ZM164.5,52.1c0-.7-.2-1.3-.6-1.8-.4-.4-.8-.7-1.4-.7s-1,.2-1.3.5-.5.9-.5,1.5.2,1.4.6,1.8.8.7,1.4.7,1-.2,1.4-.6c.3-.4.5-.9.5-1.6Z"/>
    <path class="cls-3"
          d="M171.6,49.1h.2c0,.6,0,1,0,1.6,0,1.7,0,2.9,0,3.8s0,1.4,0,1.9c0,.2,0,.4.2.4s.3.1.6.2h.6v.6c-.8,0-1.6,0-2.3,0s-1.4,0-2.1,0v-.5h.8c.3-.1.5-.2.5-.2,0,0,.1-.4.1-.8,0-.7,0-1.8,0-3.1s0-1.6,0-2.1c0-.2,0-.3-.2-.4s-.3-.1-.6-.1h-.7v-.5c.7-.1,1.2-.2,1.6-.3.3,0,.8-.2,1.3-.4ZM170.9,45.2c.3,0,.5,0,.7.3.2.2.3.4.3.7s0,.5-.3.7c-.2.2-.4.3-.7.3s-.5,0-.7-.3c-.2-.2-.3-.4-.3-.7s0-.5.3-.7c.2-.2.4-.3.7-.3Z"/>
    <path class="cls-3"
          d="M176.3,50.7v3.4c0,.9,0,1.5,0,1.7,0,.2.2.4.4.6.2.1.4.2.7.2s.3,0,.5,0c.2,0,.3-.2.5-.3l.3.3-.8,1c-.2,0-.4.1-.5.1-.2,0-.3,0-.5,0-.4,0-.8,0-1.1-.2-.3-.2-.5-.4-.6-.6-.1-.2-.2-.6-.2-1.1v-1.7s0-3.3,0-3.3c-.4,0-.9,0-1.4,0v-.4c.5-.2,1-.4,1.4-.6,0-.8,0-1.7,0-2.7.7-.3,1.2-.5,1.5-.7l.2.2c0,.5,0,1.5-.1,3.2.7,0,1.3,0,1.7,0h.7s0,.9,0,.9h-.4s-1.7,0-1.7,0h-.3Z"/>
    <path class="cls-3"
          d="M180.2,51.5v-.6s0-.6,0-.6l1-.5c.4-.2.8-.4,1.1-.5.3,0,.7-.1,1-.1.8,0,1.4.2,1.9.5.5.4.8.8.9,1.4,0,.4.1,1.5.1,3.1,0,1.6,0,2.4.1,2.6,0,.2.2.2.4.2h.7v.6c-.7,0-1.1,0-1.4,0s-.8,0-1.3,0v-.8c0-.2,0-.5,0-.8l-1.8,1.4c-.2.1-.3.2-.5.3-.2,0-.4,0-.7,0-.8,0-1.3-.2-1.7-.6-.4-.4-.6-.9-.6-1.5s.1-1.1.4-1.5c.3-.4.7-.8,1.2-1,.5-.2,1.7-.5,3.6-.8,0-.7-.2-1.3-.5-1.7-.4-.5-1-.7-1.7-.7s-.5,0-.8.1c-.2,0-.5.2-.7.3-.2.4-.3.8-.5,1.2h-.5ZM184.8,52.9c-1.6.3-2.6.7-3.1,1-.4.3-.7.8-.7,1.4s.1.8.4,1c.2.3.6.4,1,.4s.9-.1,1.3-.4.8-.6,1.1-1.1v-1.9s0-.4,0-.4Z"/>
    <path class="cls-3"
          d="M191.6,44.6c0,1.7-.1,3.2-.1,4.6v4.5c0,1.8,0,2.8.1,3,0,.1.2.2.6.2h.7v.6c-.6,0-1.2,0-1.8,0s-1.5,0-2.5,0v-.5h.8c.3,0,.5-.2.6-.3,0-.2.1-1.3.1-3.1v-6.1s0-1.1,0-1.1c0-.3,0-.5,0-.5,0,0-.3-.1-.6-.1h-.7v-.5c1.2-.1,2.2-.3,2.9-.7h.1Z"/>
  </g>
  <g>
    <path class="cls-3"
          d="M69.5,62.8c0,.9,0,1.8,0,2.8v5c0,1.8,0,2.9.1,3.1,0,.2.4.3,1,.3h.7v.5c-1,0-1.9,0-2.6,0s-1.6,0-2.6,0v-.5h.7c.4,0,.6,0,.7-.2s.2-.3.2-.6c0-.7,0-1.6,0-2.6v-5c0-1,0-1.9,0-2.7h-.9c-1.4,0-2.2,0-2.4.1s-.2.3-.3.8v1.2h-.7v-1c0-.4,0-1,0-1.8,3.1,0,5,0,5.5,0h4.8c-.1.9-.2,1.9-.2,2.8h-.5v-1.1c-.1-.4-.2-.6-.2-.7,0,0-.2-.1-.4-.1-.6,0-1.4,0-2.2,0h-.7Z"/>
    <path class="cls-3"
          d="M74.6,70.1c0,1.1.3,2,.9,2.6.6.6,1.3.9,2.2.9s.8,0,1.2-.2c.4-.1.8-.3,1.2-.6h.1c0,.1-.3.9-.3.9-.5.3-1,.5-1.5.6-.5.1-1,.2-1.6.2-1.2,0-2.1-.4-2.9-1.1-.7-.7-1.1-1.8-1.1-3s.2-1.8.6-2.5c.3-.5.8-.9,1.5-1.3.7-.4,1.4-.6,2.1-.6,1,0,1.8.3,2.4.9.6.6.9,1.5.9,2.5v.5c-.4,0-.8.2-1.1.2-.6,0-1.5,0-2.6,0h-2.2ZM74.6,69.5c.9,0,1.9,0,3,0s.9,0,1.3,0v-.5c0-.5-.1-1-.3-1.5-.1-.3-.4-.5-.7-.7-.3-.2-.7-.3-1.1-.3-.7,0-1.2.2-1.6.7-.4.5-.6,1.2-.6,2.2Z"/>
    <path class="cls-3"
          d="M88.1,73.1l.2.2-.4.6c-.4.2-.8.4-1.2.5-.4.1-.8.2-1.3.2-.9,0-1.6-.2-2.2-.5s-1.1-.8-1.4-1.4c-.3-.6-.5-1.3-.5-2.2s.1-1.4.4-2c.2-.6.6-1,1.1-1.3.5-.3,1-.6,1.7-.9.5-.2,1-.3,1.6-.3s.8,0,1.2.1c.3,0,.7.2,1,.4-.1.8-.2,1.5-.2,2.3h-.5v-.4c0-.4,0-.6-.2-.8-.1-.2-.4-.3-.7-.5-.4-.2-.8-.2-1.3-.2-.8,0-1.4.2-1.8.7-.4.5-.6,1.2-.6,2.1s.3,2.2.9,2.9c.6.7,1.3,1,2.2,1s.7,0,1-.1c.3,0,.7-.2,1-.4Z"/>
    <path class="cls-3"
          d="M92.2,67.6l1.1-1c.3-.2.5-.4.8-.5.3,0,.6-.1.9-.1.6,0,1.2.1,1.7.4s.8.6,1,1c.2.4.3,1.1.3,2.1v2.6c0,.6,0,1,0,1.4,0,.1,0,.2.1.3,0,0,.2.1.5.1h.7v.6c-.6,0-1.1,0-1.6,0s-.9,0-1.4,0c.1-1.5.2-2.9.2-4.3s0-1.6-.2-1.9-.3-.6-.6-.8-.7-.3-1.2-.3-.9.1-1.3.3c-.4.2-.7.5-.8.8-.1.2-.2.7-.2,1.5v1.5c0,1.4,0,2.1,0,2.3s.3.2.7.3h.8v.6c-.9,0-1.6,0-2.2,0s-1.3,0-2.3,0v-.5h.5c.3-.1.6-.2.6-.2,0,0,.1-.2.2-.4,0-.3,0-1,0-2.1v-5.9c0-1.5,0-2.4-.1-2.6,0-.1-.3-.2-.7-.2h-.6v-.5c.9,0,1.6-.2,2.2-.4l.7-.2c0,0,.1,0,.1.2v.4s0,1.6,0,1.6c0,.8,0,1.4,0,1.8v2.3Z"/>
    <path class="cls-3"
          d="M103,67.6l1.3-1.2c.2-.1.3-.2.5-.3.4-.1.8-.2,1.2-.2.6,0,1.2.1,1.6.4.5.3.8.6,1,1,.2.4.3,1,.3,1.9v2.7c0,.9,0,1.5,0,1.6.1.2.3.3.6.3h.6v.5c-.6,0-1.2,0-1.6,0s-.9,0-1.4,0c.1-1.1.2-2.7.2-4.6s0-1.3-.2-1.7c-.1-.3-.4-.6-.7-.8-.3-.2-.7-.3-1.2-.3s-1,.1-1.4.4c-.4.3-.6.6-.7.9,0,.2,0,.8,0,1.8s0,2.1,0,3c0,.3,0,.4.1.5.1.1.4.2.7.2h.6v.5c-1,0-1.8,0-2.3,0s-1.3,0-2.1,0v-.5h.6c.4,0,.7-.1.8-.3,0-.2.1-1.4.1-3.6s0-1.8,0-2.3c0-.2,0-.3-.1-.4,0,0-.3-.1-.7-.1h-.6v-.5c.5,0,.9-.1,1.3-.2s.8-.2,1.3-.5c0,0,.1,0,.1,0,0,0,.1,0,.1.2v.3s0,1.2,0,1.2Z"/>
    <path class="cls-3"
          d="M110.7,70.2c0-.8.2-1.5.6-2.2.4-.6.9-1.2,1.6-1.5s1.4-.5,2.3-.5c1.2,0,2.2.4,3,1.1.7.7,1.1,1.7,1.1,2.9s-.5,2.6-1.5,3.4c-.9.8-1.9,1.1-3.1,1.1s-2.1-.4-2.8-1.2c-.7-.8-1.1-1.8-1.1-3.2ZM112.3,69.6c0,1.2.2,2.2.7,3.1.5.9,1.2,1.3,2.1,1.3s1.3-.3,1.7-.8c.4-.5.6-1.3.6-2.4s-.1-1.6-.4-2.3c-.3-.6-.6-1.1-1-1.4-.4-.3-.9-.4-1.4-.4s-.9.1-1.2.3-.6.5-.8.9c-.2.5-.4,1.1-.4,1.7Z"/>
    <path class="cls-3"
          d="M122.9,61.4c0,1.7-.1,3.2-.1,4.6v4.5c0,1.8,0,2.8.1,3,0,.1.2.2.6.2h.7v.6c-.6,0-1.2,0-1.8,0s-1.5,0-2.5,0v-.5h.8c.3,0,.5-.2.6-.3,0-.2.1-1.3.1-3.1v-6.1s0-1.1,0-1.1c0-.3,0-.5,0-.5,0,0-.3-.1-.6-.1h-.7v-.5c1.2-.1,2.2-.3,2.9-.7h.1Z"/>
    <path class="cls-3"
          d="M124.8,70.2c0-.8.2-1.5.6-2.2.4-.6.9-1.2,1.6-1.5s1.4-.5,2.3-.5c1.2,0,2.2.4,3,1.1.7.7,1.1,1.7,1.1,2.9s-.5,2.6-1.5,3.4c-.9.8-1.9,1.1-3.1,1.1s-2.1-.4-2.8-1.2c-.7-.8-1.1-1.8-1.1-3.2ZM126.4,69.6c0,1.2.2,2.2.7,3.1.5.9,1.2,1.3,2.1,1.3s1.3-.3,1.7-.8c.4-.5.6-1.3.6-2.4s-.1-1.6-.4-2.3c-.3-.6-.6-1.1-1-1.4-.4-.3-.9-.4-1.4-.4s-.9.1-1.2.3-.6.5-.8.9c-.2.5-.4,1.1-.4,1.7Z"/>
    <path class="cls-3"
          d="M141.4,67.6c.1.4.2.7.2.9,0,.5-.2,1-.5,1.5-.3.5-.8.9-1.3,1.2-.6.3-1.2.4-1.9.4h-.4c-.4.3-.6.5-.7.6-.1.1-.2.3-.2.4,0,.2.1.4.3.5s.7.2,1.4.2.7,0,1.2,0c.7,0,1.2,0,1.6,0,.5,0,.8,0,1.1.2s.5.4.6.8c.2.4.3.8.3,1.3s-.2,1.3-.6,1.9c-.4.6-1,1.1-1.7,1.4-.8.4-1.6.5-2.6.5s-2.1-.3-2.8-.8c-.6-.5-1-1.2-1-1.9s.2-.9.5-1.4c.6-.3,1.1-.6,1.5-.9-.5-.2-.8-.3-.9-.4-.1-.1-.2-.3-.2-.5s0-.5.2-.7c0-.1.3-.3.6-.5l.8-.6c-.7-.2-1.2-.4-1.5-.7-.4-.4-.6-1-.6-1.7s.2-1.1.5-1.6c.3-.5.7-.9,1.3-1.1.7-.4,1.5-.5,2.2-.5s.8,0,1.2.2c.3.1.7.3,1,.6h.7c.8,0,1.3,0,1.8,0v.2c0,.3-.2.5-.4.8h-1.6ZM137.7,74.5c-.4,0-.7,0-.8.1-.5.3-.8.6-.9.8-.2.3-.3.7-.3,1.1s.2,1.2.7,1.6c.5.4,1.1.6,2,.6s1.2-.1,1.7-.4c.5-.2.9-.6,1.1-1,.3-.4.4-.8.4-1.3s0-.7-.3-1c-.2-.3-.4-.5-.7-.6-.1,0-.4,0-.9,0h-2ZM140.1,68.9c0-.7-.2-1.3-.6-1.8-.4-.4-.8-.7-1.4-.7s-1,.2-1.3.5c-.3.4-.5.9-.5,1.5s.2,1.4.6,1.8.8.7,1.4.7,1-.2,1.4-.6c.3-.4.5-.9.5-1.6Z"/>
    <path class="cls-3"
          d="M147.2,65.9h.2c0,.6,0,1,0,1.6,0,1.7,0,2.9,0,3.8s0,1.4,0,1.9c0,.2,0,.4.2.4s.3.1.6.2h.6v.6c-.8,0-1.6,0-2.3,0s-1.4,0-2.1,0v-.5h.8c.3-.1.5-.2.5-.2,0,0,.1-.4.1-.8,0-.7,0-1.8,0-3.1s0-1.6,0-2.1c0-.2,0-.3-.2-.4s-.3-.1-.6-.1h-.7v-.5c.7-.1,1.2-.2,1.6-.3s.8-.2,1.3-.4ZM146.5,62c.3,0,.5,0,.7.3.2.2.3.4.3.7s0,.5-.3.7c-.2.2-.4.3-.7.3s-.5,0-.7-.3c-.2-.2-.3-.4-.3-.7s0-.5.3-.7c.2-.2.4-.3.7-.3Z"/>
    <path class="cls-3"
          d="M150.9,70.1c0,1.1.3,2,.9,2.6.6.6,1.3.9,2.2.9s.8,0,1.2-.2c.4-.1.8-.3,1.2-.6h.1c0,.1-.3.9-.3.9-.5.3-1,.5-1.5.6-.5.1-1,.2-1.6.2-1.2,0-2.1-.4-2.9-1.1-.7-.7-1.1-1.8-1.1-3s.2-1.8.6-2.5c.3-.5.8-.9,1.5-1.3.7-.4,1.4-.6,2.1-.6,1,0,1.8.3,2.4.9s.9,1.5.9,2.5v.5c-.4,0-.8.2-1.1.2-.6,0-1.5,0-2.6,0h-2.2ZM150.9,69.5c.9,0,1.9,0,3,0s.9,0,1.3,0v-.5c0-.5-.1-1-.3-1.5-.1-.3-.4-.5-.7-.7-.3-.2-.7-.3-1.1-.3-.7,0-1.2.2-1.6.7-.4.5-.6,1.2-.6,2.2Z"/>
    <path class="cls-3"
          d="M158.6,71.7v.6c0,.5,0,.7.1.8.2.2.4.4.9.5.4.2.9.3,1.4.3s1.1-.2,1.5-.5c.4-.3.6-.7.6-1.2s-.1-.6-.3-.9c-.2-.2-.6-.4-1.3-.5-1.2-.2-1.9-.4-2.3-.6s-.7-.4-.8-.7c-.2-.3-.3-.6-.3-1.1,0-.8.3-1.4.8-1.9.6-.5,1.4-.7,2.4-.7s1.6.2,2.4.5c0,.4,0,1.1-.1,2h-.5c0-.5,0-.8-.2-1-.1-.2-.4-.4-.7-.6-.4-.2-.7-.3-1.1-.3s-.9.1-1.3.4c-.3.3-.5.6-.5,1s.1.7.4.9c.2.2.9.4,2.1.6.8.2,1.4.3,1.7.5.3.1.5.4.6.7.2.3.2.6.2,1,0,.8-.3,1.5-1,2s-1.6.9-2.7.9-1.5-.1-2.4-.3c-.2,0-.2-.1-.2-.2h0c0-.2,0-.4,0-.6,0-.6,0-1,0-1.3v-.4s.5,0,.5,0Z"/>
  </g>
  <g class="cls-4">
    <path class="cls-1"
          d="M19.9,58v2.2c.2,0,.5,0,.7,0,4.1,0,8,.7,11.5,2.1v-17.5c0-3.3,1.2-5,3-6.2,1.7,1.2,3,3,3,6.2v20.6c1.4,1,2.8,2.1,4,3.3v-24c0-5.5-2.9-8.5-6.1-10.4-.3-.2-.6-.4-.9-.5-.3.1-.6.3-.9.5-3.1,1.8-6.1,4.9-6.1,10.4v13.4h-4.2v-13.1c0-10.8,4.7-16.5,11.1-20.2,6,3.6,11.1,9.3,11.1,20.2v13.1h4v-13.3c0-12.9-6.7-19.9-14.4-24.4,0,0-.6-.4-.7-.4-.1,0-.7.4-.7.4-7.4,4.2-14.4,11.6-14.4,24.4v13.3Z"/>
    <path class="cls-3"
          d="M151.9,35.4c.2-.2.4-.7.8-1.3l.9-1.6h.6c-.3.5-.7,1-1.2,1.8-.5.7-.8,1.2-.9,1.5,0,0,0,.3,0,.7s0,.9,0,1.2c0,.2,0,.2,0,.3s.2,0,.4,0h.3v.3c-.5,0-.8,0-1.1,0h-1.3s0-.2,0-.2h.3c.2,0,.4,0,.4-.1,0,0,0-.5,0-1.3s0-.5,0-.7c-.3-.6-.7-1.2-1-1.7-.3-.5-.5-.8-.7-1-.1-.1-.2-.2-.3-.2,0,0-.2,0-.4,0v-.3c.1,0,.3,0,.6-.1h.3c.1,0,.2,0,.3.1.1.1.3.4.6.9.2.3.6,1,1.1,1.9M146.8,32.9c0,.4,0,.8,0,1.3v2.3c0,.9,0,1.3,0,1.4,0,0,.2.1.5.1h.3v.3c-.5,0-.9,0-1.2,0s-.7,0-1.2,0v-.3h.3c.2,0,.3,0,.3,0,0,0,0-.1.1-.3,0-.3,0-.7,0-1.2v-2.3c0-.5,0-.9,0-1.2h-.4c-.7,0-1,0-1.1,0,0,0-.1.2-.1.4v.5h-.3v-.5c0-.2,0-.5,0-.8,1.4,0,2.3,0,2.6,0h2.2c0,.4,0,.9,0,1.3h-.3v-.5c0-.2,0-.3-.1-.3,0,0,0,0-.2,0-.3,0-.6,0-1,0h-.3ZM141.3,38h.3c.2,0,.4,0,.4-.2,0-.1,0-.7,0-1.7v-1.4c0-1.1,0-1.7,0-1.8,0-.1-.2-.2-.4-.2h-.3v-.3c.4,0,.9,0,1.3,0s.7,0,1,0v.3h-.3c-.2,0-.3,0-.4,0,0,0,0,.2,0,.3,0,.3,0,.8,0,1.5v1.4c0,1,0,1.6,0,1.7,0,.1.2.2.4.2h.3v.3c-.3,0-.7,0-1.1,0s-.9,0-1.2,0v-.3ZM140.6,32.8c0,.3-.1.6-.1,1.1h-.3v-.3c0-.2,0-.3,0-.4,0,0-.2-.2-.4-.2-.2,0-.5-.1-.8-.1-.4,0-.8.1-1,.3-.2.2-.4.5-.4.8s0,.4.2.6c0,.2.2.3.4.3.2,0,.5.1,1.1.2.6,0,.9.1,1.1.2.2,0,.4.2.5.4.1.2.2.4.2.7,0,.5-.2,1-.7,1.4-.5.4-1.1.6-1.8.6s-.5,0-.8,0c-.3,0-.5-.1-.8-.2,0-.3,0-.7,0-1.2h.3v.2c0,.3,0,.4,0,.5,0,0,0,.1.2.2.1.1.3.2.5.2.2,0,.4,0,.7,0,.5,0,.9-.1,1.2-.4.3-.2.4-.5.4-.9s0-.4-.1-.5c0-.1-.2-.3-.4-.3-.2,0-.5-.1-.9-.2-.6,0-1-.1-1.2-.2-.2,0-.4-.2-.5-.5-.1-.2-.2-.5-.2-.8,0-.5.2-1,.6-1.3.4-.3.9-.5,1.6-.5s.5,0,.8,0c.3,0,.5.1.8.3M134.4,35.4c.3.4.6.8,1,1.3l.8,1c.1.2.2.3.3.3,0,0,0,0,.1,0h.1v.3c-.2,0-.4,0-.6,0s-.3,0-.5,0l-1.4-1.9c-.3-.4-.5-.7-.9-1h0c.2-.1.3-.1.3-.1.4,0,.8-.1,1.1-.3.3-.2.4-.5.4-.9s-.1-.6-.3-.8c-.2-.2-.5-.3-.9-.3s-.6,0-.8.2c0,.4,0,.9,0,1.4v1.9c0,.9,0,1.5,0,1.6,0,.1.2.2.4.2h.3v.3c-.4,0-.8,0-1.1,0s-.6,0-1.3,0v-.3h.3c.2,0,.4,0,.4-.2,0-.1,0-.6,0-1.6v-1.9c0-.8,0-1.3,0-1.4,0-.1-.2-.1-.5-.1h-.2v-.3c.5,0,.9,0,1.1,0s.4,0,.8,0c.4,0,.7,0,.8,0,.5,0,.8,0,1.1.1.2,0,.4.2.5.4.1.2.2.4.2.7,0,.4-.1.7-.4,1-.3.3-.7.5-1.2.6M128,35.5v1.6c0,.4,0,.6,0,.8.4,0,.8,0,1.3,0s.6,0,.8,0c.1,0,.3,0,.4-.1,0-.2.1-.5.2-.9h.3c0,.6-.1,1-.1,1.2v.2c-.3,0-.6,0-.9,0h-.6c-.7,0-1.2,0-1.5,0s-.7,0-1.3,0v-.3h.1c.2,0,.4,0,.4,0,0,0,0-.2.1-.3,0-.2,0-.5,0-1.1v-2.2c0-.4,0-.7,0-.9,0-.2,0-.4,0-.4,0,0,0,0,0-.1,0,0-.2,0-.3,0h-.3v-.3h.9c.2,0,.4,0,.5,0h1.5s.7,0,.7,0c.3,0,.5,0,.8,0-.1.3-.2.7-.2,1.2h-.3c0-.3,0-.5,0-.7-.3-.1-.7-.2-1.2-.2s-.8,0-1.2,0c0,.3,0,.5,0,.8v.6s0,.8,0,.8c.3,0,.5,0,.7,0,.6,0,1,0,1.1,0,0,0,.1-.2.1-.4v-.3h.3c0,.4,0,.7,0,1s0,.6,0,.9h-.3v-.2c0-.3,0-.4-.2-.5-.1,0-.5,0-1.1,0s-.5,0-.7,0M123,38.3c-.1-.4-.2-.7-.4-1l-1.4-3.6c-.2-.5-.3-.8-.4-.9,0,0-.2,0-.3,0h-.2v-.3c.4,0,.8,0,1.1,0s.7,0,1.1,0v.3h-.4c-.1,0-.2,0-.3,0,0,0,0,0,0,.1s0,0,0,.1l.5,1.4,1.1,2.8,1.1-2.6c.4-.9.5-1.4.5-1.6s0-.2-.2-.2h-.2s-.3,0-.3,0v-.3c.4,0,.7,0,.9,0s.5,0,.9,0v.3h-.2c-.1,0-.2,0-.3,0,0,0-.2.3-.3.6l-1.4,3.3c-.3.6-.4,1.1-.5,1.5h-.4ZM117.7,38h.3c.2,0,.4,0,.4-.2,0-.1,0-.7,0-1.7v-1.4c0-1.1,0-1.7,0-1.8,0-.1-.2-.2-.4-.2h-.3v-.3c.4,0,.9,0,1.3,0s.7,0,1,0v.3h-.3c-.2,0-.3,0-.4,0,0,0,0,.2,0,.3,0,.3,0,.8,0,1.5v1.4c0,1,0,1.6,0,1.7,0,.1.2.2.4.2h.3v.3c-.3,0-.7,0-1.1,0s-.9,0-1.2,0v-.3ZM111.9,33.5v2.8c0,.6,0,1.1,0,1.3,0,.2,0,.3,0,.3,0,0,.2,0,.4,0h.3v.3c-.3,0-.6,0-.8,0s-.5,0-1.1,0v-.3h.3c.2,0,.3,0,.3,0,0,0,0-.1,0-.3,0-.3,0-.7,0-1.2v-2c0-.4,0-.7,0-1.1,0-.2,0-.3,0-.3,0,0,0-.1-.2-.2,0,0-.2,0-.3,0h-.2v-.3c.3,0,.6,0,.8,0s.4,0,.6,0c.3.3.5.6.8.9.2.3.5.6.7.9l1.4,1.7c.5.6.9,1,1.1,1.3v-2.6c0-1.1,0-1.7,0-1.8,0,0-.2-.2-.5-.2h-.3v-.3c.4,0,.8,0,1,0s.6,0,1,0v.3h-.3c-.2,0-.4,0-.4.2,0,.1,0,.7,0,1.8v1.8c0,.5,0,1.1,0,1.8-.4,0-.6,0-.6-.1,0,0-.1,0-.2-.1-.3-.3-.6-.7-.9-1.1l-2.9-3.6ZM104.4,32.8v-.3c.5,0,1,0,1.2,0s.6,0,1.2,0v.3h-.3c-.3,0-.4,0-.5.1,0,0,0,.5,0,1.3v1.6c0,.6,0,1,0,1.2,0,.2.2.4.5.6.3.2.6.2,1.1.2s.8,0,1.1-.3c.2-.1.4-.3.5-.5,0-.2.1-.7.1-1.4v-1.5c0-.7,0-1.1,0-1.2,0-.1-.2-.2-.5-.2h-.2v-.3c.6,0,.9,0,1.1,0,.2,0,.5,0,.9,0v.3h-.3c-.2,0-.3,0-.4.2,0,.1,0,.5,0,1.2v1.5c0,.7,0,1.2-.1,1.4,0,.2-.2.5-.4.6-.2.2-.4.3-.7.5-.3.1-.7.2-1.1.2s-.8,0-1.1-.2c-.3-.1-.6-.2-.7-.4-.2-.1-.3-.3-.3-.5,0-.2-.1-.6-.1-1.1v-.8s0-1.2,0-1.2c0-.8,0-1.2,0-1.3,0,0-.2-.1-.4-.1h-.3ZM96.6,33.5v2.8c0,.6,0,1.1,0,1.3,0,.2,0,.3,0,.3,0,0,.2,0,.4,0h.3v.3c-.3,0-.6,0-.8,0s-.5,0-1.1,0v-.3h.3c.2,0,.3,0,.3,0,0,0,0-.1,0-.3,0-.3,0-.7,0-1.2v-2c0-.4,0-.7,0-1.1,0-.2,0-.3,0-.3,0,0,0-.1-.2-.2,0,0-.2,0-.3,0h-.2v-.3c.3,0,.6,0,.8,0s.4,0,.6,0c.3.3.5.6.8.9.2.3.5.6.7.9l1.4,1.7c.5.6.9,1,1.1,1.3v-2.6c0-1.1,0-1.7,0-1.8,0,0-.2-.2-.5-.2h-.3v-.3c.4,0,.8,0,1,0s.6,0,1,0v.3h-.3c-.2,0-.4,0-.4.2,0,.1,0,.7,0,1.8v1.8c0,.5,0,1.1,0,1.8-.4,0-.6,0-.6-.1,0,0-.1,0-.2-.1-.3-.3-.6-.7-.9-1.1l-2.9-3.6ZM89.8,33.5v2.8c0,.6,0,1.1,0,1.3,0,.2,0,.3,0,.3,0,0,.2,0,.4,0h.3v.3c-.3,0-.6,0-.8,0s-.5,0-1.1,0v-.3h.3c.2,0,.3,0,.3,0,0,0,0-.1.1-.3,0-.3,0-.7,0-1.2v-2c0-.4,0-.7,0-1.1,0-.2,0-.3,0-.3,0,0,0-.1-.2-.2,0,0-.2,0-.3,0h-.2v-.3c.3,0,.6,0,.8,0s.4,0,.6,0c.3.3.5.6.8.9.2.3.5.6.7.9l1.4,1.7c.5.6.9,1,1.1,1.3v-2.6c0-1.1,0-1.7,0-1.8,0,0-.2-.2-.5-.2h-.3v-.3c.4,0,.8,0,1,0s.6,0,1,0v.3h-.3c-.2,0-.4,0-.4.2,0,.1,0,.7,0,1.8v1.8c0,.5,0,1.1,0,1.8-.4,0-.6,0-.6-.1,0,0-.1,0-.2-.1-.3-.3-.6-.7-.9-1.1l-2.9-3.6ZM85.9,38h.3c.2,0,.4,0,.4-.2,0-.1,0-.7,0-1.7v-1.4c0-1.1,0-1.7,0-1.8,0-.1-.2-.2-.4-.2h-.3v-.3c.4,0,.9,0,1.3,0s.7,0,1,0v.3h-.3c-.2,0-.3,0-.4,0,0,0,0,.2,0,.3,0,.3,0,.8,0,1.5v1.4c0,1,0,1.6,0,1.7,0,.1.2.2.4.2h.3v.3c-.3,0-.7,0-1.1,0s-.9,0-1.2,0v-.3ZM82.4,37.9c.3,0,.5,0,.8,0,.5,0,.9,0,1.2,0,.2,0,.4,0,.6-.1l.2-.9h.3c0,.5-.1,1-.2,1.4-.2,0-.6,0-1,0h-1.9c-.3,0-.7,0-1.2,0v-.2c.2,0,.3-.2.4-.3,0-.1,0-.5,0-1.3v-2.2c0-.8,0-1.3,0-1.3,0,0-.1-.1-.3-.1h-.4v-.3c.6,0,1.1,0,1.3,0s.7,0,1.1,0v.3h-.5c-.1,0-.2,0-.3.1,0,0,0,.4,0,1v3.7s0,.2,0,.2ZM77.4,37.9c.3,0,.5,0,.8,0,.5,0,.9,0,1.2,0,.2,0,.4,0,.6-.1l.2-.9h.3c0,.5-.1,1-.2,1.4-.2,0-.6,0-1,0h-1.9c-.3,0-.7,0-1.2,0v-.2c.2,0,.3-.2.4-.3,0-.1,0-.5,0-1.3v-2.2c0-.8,0-1.3,0-1.3,0,0-.1-.1-.3-.1h-.4v-.3c.6,0,1.1,0,1.3,0s.7,0,1.1,0v.3h-.5c-.1,0-.2,0-.3.1,0,0,0,.4,0,1v3.7s0,.2,0,.2ZM71.2,36h2l-1-2.4-1,2.4ZM73.4,36.3h-2.3l-.3.6c-.2.4-.3.7-.3.8s0,.1,0,.1c0,0,.1,0,.3,0h.4v.3c-.3,0-.5,0-.9,0s-.7,0-1,0v-.3h.1c.2,0,.3,0,.4,0,0,0,.1-.1.2-.2.2-.4.4-.8.6-1.3l1.1-2.5c.3-.7.5-1.1.6-1.5h.3l2,4.7c.1.3.2.5.3.6,0,0,0,.1.2.1,0,0,.2,0,.4,0v.3c-.3,0-.7,0-1,0s-.7,0-1.2,0v-.3h.4c.1,0,.2,0,.3,0,0,0,0,0,0-.1s0-.2-.1-.4l-.4-1.1ZM67.1,32.9c0,.4,0,.8,0,1.3v2.3c0,.9,0,1.3,0,1.4,0,0,.2.1.5.1h.3v.3c-.5,0-.9,0-1.2,0s-.7,0-1.2,0v-.3h.3c.2,0,.3,0,.3,0,0,0,0-.1,0-.3,0-.3,0-.7,0-1.2v-2.3c0-.5,0-.9,0-1.2h-.4c-.7,0-1,0-1.1,0,0,0-.1.2-.1.4v.5h-.3v-.5c0-.2,0-.5,0-.8,1.4,0,2.3,0,2.6,0h2.2c0,.4,0,.9,0,1.3h-.3v-.5c0-.2,0-.3-.1-.3,0,0,0,0-.2,0-.3,0-.6,0-1,0h-.3Z"/>
  </g>
</svg>
