<?xml version="1.0" encoding="UTF-8" standalone="no"?>
<!-- Generator: Adobe Illustrator 25.4.1, SVG Export Plug-In . SVG Version: 6.00 Build 0)  -->

<svg
  version="1.0"
  id="Layer_1"
  x="0px"
  y="0px"
  height="80"
  width="300"
  enable-background="new 0 0 291 59.5"
  xml:space="preserve"
  sodipodi:docname="Tallinn-University-logo.svg"
  inkscape:version="1.1.2 (b8e25be833, 2022-02-05)"
  xmlns:inkscape="http://www.inkscape.org/namespaces/inkscape"
  xmlns:sodipodi="http://sodipodi.sourceforge.net/DTD/sodipodi-0.dtd"
  xmlns="http://www.w3.org/2000/svg"
><defs
   id="defs22" />
  <sodipodi:namedview
    id="namedview20"
    pagecolor="#ffffff"
    bordercolor="#666666"
    borderopacity="1.0"
    inkscape:pageshadow="2"
    inkscape:pageopacity="0.0"
    inkscape:pagecheckerboard="0"
    showgrid="false"
    inkscape:zoom="2.1512028"
    inkscape:cx="98.549521"
    inkscape:cy="26.264377"
    inkscape:window-width="1920"
    inkscape:window-height="1001"
    inkscape:window-x="-9"
    inkscape:window-y="-9"
    inkscape:window-maximized="1"
    inkscape:current-layer="g15"/>
  <g
    id="g17">
	<path
    fill-rule="evenodd"
    clip-rule="evenodd"
    fill="#b71234"
    d="m 0,46.5 v 2.7 c 0.3,0 0.6,0 0.8,0 5,0 9.8,0.9 14.1,2.5 V 30.4 c 0,-4 1.5,-6.1 3.6,-7.6 2.1,1.5 3.7,3.6 3.7,7.6 v 25.1 c 1.8,1.2 3.4,2.6 4.9,4.1 V 30.4 c 0,-6.7 -3.6,-10.4 -7.4,-12.7 -0.4,-0.2 -0.8,-0.4 -1.1,-0.5 -0.3,0.1 -0.7,0.3 -1.1,0.6 -3.8,2.1 -7.4,6 -7.4,12.7 V 46.8 H 4.9 V 30.9 C 4.9,17.7 10.7,10.7 18.4,6.3 25.7,10.4 32,17.4 32,30.6 v 15.9 h 4.9 V 30.3 C 36.9,14.6 28.7,6 19.3,0.5 19.3,0.5 18.6,0.1 18.4,0 18.3,0 17.5,0.5 17.5,0.5 8.5,5.6 0,14.6 0,30.3 Z"
    id="path2"
    style="fill:#000000"/>
    <g
      transform="translate(53.631733,30.132644)"
      id="g15">
		<defs
      id="defs7">
			<filter
        id="Adobe_OpacityMaskFilter"
        filterUnits="userSpaceOnUse"
        x="0.1"
        y="0.69999999"
        width="237.3"
        height="15.6">
				<feColorMatrix
          type="matrix"
          values="1 0 0 0 0  0 1 0 0 0  0 0 1 0 0  0 0 0 1 0"
          id="feColorMatrix4"/>
			</filter>
		</defs>

      <mask
        maskUnits="userSpaceOnUse"
        x="0.1"
        y="0.7"
        width="237.3"
        height="15.6"
        id="b_00000054241475155117139730000001054988952100134565_">
			<g
        filter="url(#Adobe_OpacityMaskFilter)"
        id="g10">
				<path
          id="a_00000145738865792819433820000002426316388527531917_"
          fill-rule="evenodd"
          clip-rule="evenodd"
          fill="#ffffff"
          d="M 237.4,16.3 V 0.7 H 0.1 v 15.6 z"/>
			</g>
		</mask>
      <path
        mask="url(#b_00000054241475155117139730000001054988952100134565_)"
        fill-rule="evenodd"
        clip-rule="evenodd"
        d="M 7.5,1.9 C 7.4,2.9 7.4,4.1 7.4,5.2 v 6 c 0,2.2 0.1,3.5 0.2,3.7 0.1,0.2 0.5,0.3 1.2,0.3 H 9.6 V 16 C 8.3,16 7.3,15.9 6.4,15.9 5.5,15.9 4.5,15.9 3.2,16 V 15.3 H 4.1 C 4.6,15.3 4.9,15.2 5,15.1 5.1,15 5.2,14.7 5.3,14.4 5.4,13.6 5.4,12.5 5.4,11.2 v -6 C 5.4,4 5.4,2.9 5.3,1.9 H 4.2 C 2.5,1.9 1.5,1.9 1.3,2 1.2,2.1 1,2.4 1,2.9 L 0.8,4.4 H 0.2 V 3.1 C 0.2,2.6 0.2,1.9 0.1,0.9 3.9,1 6.1,1 6.8,1 L 12.7,0.9 C 12.6,2.1 12.5,3.2 12.5,4.4 H 11.8 L 11.7,3 C 11.7,2.5 11.6,2.2 11.5,2.1 11.4,2 11.2,2 11,2 10.2,1.9 9.3,1.9 8.3,1.9 Z m 16.7,9 H 18 l -0.7,1.7 c -0.5,1.1 -0.7,1.8 -0.7,2.1 0,0.2 0,0.3 0.1,0.4 0.1,0.1 0.3,0.1 0.7,0.2 l 1,0.1 V 16 c -0.7,0 -1.4,-0.1 -2.3,-0.1 -1,0 -1.9,0 -2.7,0.1 v -0.7 h 0.3 c 0.5,0 0.8,-0.1 1,-0.2 0.1,-0.1 0.3,-0.3 0.5,-0.6 0.5,-1 1,-2.1 1.5,-3.3 l 2.9,-6.6 c 0.8,-1.8 1.3,-3 1.6,-3.8 H 22 l 5.4,12.5 c 0.4,0.8 0.6,1.4 0.7,1.5 0.1,0.2 0.3,0.3 0.4,0.4 0.2,0.1 0.5,0.1 1.1,0.2 V 16 c -0.9,0 -1.8,-0.1 -2.6,-0.1 -0.8,0 -1.8,0 -3.1,0.1 V 15.3 L 25,15.2 c 0.4,0 0.6,-0.1 0.7,-0.1 0.1,-0.1 0.2,-0.2 0.2,-0.3 0,-0.1 -0.1,-0.5 -0.3,-1 z M 18.4,10 h 5.4 L 21.1,3.6 Z m 16.3,5 c 0.7,0 1.4,0.1 2,0.1 1.3,0 2.4,0 3.1,-0.1 0.5,-0.1 1.1,-0.2 1.6,-0.3 L 42,12.2 h 0.7 c -0.2,1.3 -0.3,2.6 -0.4,3.7 C 41.7,16 40.8,16 39.7,16 l -5.1,-0.1 c -0.7,0 -1.7,0 -3.2,0.1 v -0.6 c 0.6,-0.2 0.9,-0.5 1,-0.8 0.1,-0.3 0.2,-1.4 0.2,-3.4 V 5.5 C 32.6,3.4 32.5,2.2 32.4,2 32.3,1.8 32,1.6 31.5,1.6 H 30.3 V 0.9 c 1.9,0.1 3,0.1 3.5,0.1 0.7,0 1.7,0 3,-0.1 v 0.7 h -1.3 c -0.4,0 -0.6,0.1 -0.7,0.3 -0.1,0.2 -0.1,1.1 -0.1,2.7 v 6.8 3 z m 13.2,0 c 0.7,0 1.4,0.1 2,0.1 1.3,0 2.4,0 3.1,-0.1 0.5,-0.1 1.1,-0.2 1.6,-0.3 l 0.6,-2.5 H 56 c -0.2,1.3 -0.3,2.6 -0.4,3.7 C 55,16 54.1,16 53,16 l -5,-0.1 c -0.7,0 -1.7,0 -3.2,0.1 v -0.6 c 0.6,-0.2 0.9,-0.5 1,-0.8 0.1,-0.3 0.2,-1.4 0.2,-3.4 V 5.5 C 46,3.4 46,2.2 45.8,2 45.7,1.8 45.4,1.6 44.9,1.6 H 43.7 V 0.9 C 45.5,1 46.6,1 47.1,1 c 0.7,0 1.7,0 3,-0.1 V 1.6 H 48.8 C 48.4,1.6 48.2,1.7 48.1,1.9 48,2.1 47.9,3 47.9,4.6 v 6.8 3 z m 9.3,0.3 h 0.7 c 0.7,0 1.1,-0.2 1.2,-0.5 0.1,-0.3 0.2,-1.8 0.2,-4.6 V 6.7 C 59.3,3.9 59.2,2.3 59.1,2 59,1.7 58.6,1.6 58.1,1.6 H 57.2 V 0.9 C 58.3,1 59.5,1 60.6,1 c 1,0 1.8,0 2.6,-0.1 v 0.7 h -0.8 c -0.5,0 -0.8,0.1 -0.9,0.2 -0.1,0.1 -0.2,0.4 -0.2,0.9 0,0.8 -0.1,2.1 -0.1,4 v 3.7 c 0,2.8 0.1,4.3 0.2,4.5 0.1,0.3 0.5,0.4 1.2,0.4 h 0.7 V 16 c -0.9,0 -1.8,-0.1 -2.8,-0.1 -1.2,0 -2.3,0 -3.2,0.1 v -0.7 z m 10.1,-12 v 7.3 c 0,1.7 0,2.8 0.1,3.5 0.1,0.5 0.1,0.8 0.3,0.9 0.1,0.1 0.5,0.2 1,0.2 l 0.7,0.1 V 16 c -0.8,0 -1.5,-0.1 -2.1,-0.1 -0.4,0 -1.4,0 -3,0.1 v -0.7 h 0.8 c 0.5,0 0.8,-0.1 0.9,-0.2 0.1,-0.1 0.2,-0.4 0.3,-0.8 0.1,-0.8 0.1,-1.8 0.1,-3.2 V 6 c 0,-1 0,-2 0,-2.9 C 66.4,2.7 66.3,2.4 66.2,2.3 66.1,2.1 66,2 65.8,1.9 65.6,1.8 65.4,1.7 65,1.7 H 64.3 V 0.9 C 65.2,1 65.9,1 66.4,1 c 0.5,0 1.1,0 1.7,-0.1 0.7,0.9 1.4,1.7 2,2.5 0.6,0.8 1.2,1.6 1.9,2.5 l 3.6,4.5 c 1.3,1.6 2.3,2.7 2.8,3.3 V 6.8 c 0,-2.9 0,-4.4 -0.2,-4.7 C 78.1,1.8 77.7,1.7 77,1.6 L 76.2,1.5 V 0.9 c 1.1,0 2,0.1 2.7,0.1 0.7,0 1.5,0 2.5,-0.1 v 0.7 h -0.8 c -0.7,0 -1,0.2 -1.1,0.7 -0.1,0.3 -0.1,1.8 -0.1,4.6 v 4.8 c 0,1.3 0.1,2.8 0.2,4.6 C 78.6,16.1 78.1,16 77.9,16 77.7,15.9 77.6,15.8 77.5,15.7 76.7,14.8 75.9,13.9 75,12.8 Z m 18.1,0 v 7.3 c 0,1.7 0,2.8 0.1,3.5 0.1,0.5 0.1,0.8 0.2,0.9 0.1,0.1 0.5,0.2 1,0.2 l 0.7,0.1 V 16 c -0.8,0 -1.5,-0.1 -2.1,-0.1 -0.4,0 -1.4,0 -3,0.1 v -0.7 h 0.8 c 0.5,0 0.8,-0.1 0.9,-0.2 0.1,-0.1 0.2,-0.4 0.3,-0.8 0.1,-0.8 0.1,-1.8 0.1,-3.2 V 6 c 0,-1 0,-2 0,-2.9 C 84.4,2.7 84.3,2.4 84.2,2.3 84.2,2 84,1.9 83.8,1.8 83.6,1.7 83.4,1.6 83,1.6 H 82.3 V 0.9 C 83.3,1 84,1 84.5,1 c 0.5,0 1.1,0 1.7,-0.1 0.7,0.9 1.4,1.7 2,2.5 0.5,0.8 1.2,1.6 1.8,2.5 l 3.6,4.5 c 1.3,1.6 2.3,2.7 2.8,3.3 V 6.8 C 96.4,3.9 96.3,2.4 96.2,2.1 96.1,1.8 95.7,1.7 95,1.6 L 94.2,1.5 V 0.9 C 95.5,1 96.4,1 97,1 c 0.7,0 1.5,0 2.5,-0.1 v 0.7 h -0.8 c -0.7,0 -1,0.2 -1.1,0.7 -0.1,0.3 -0.1,1.8 -0.1,4.6 v 4.8 c 0,1.3 0.1,2.8 0.2,4.6 C 96.7,16.1 96.2,16 96,16 95.8,15.9 95.7,15.8 95.6,15.7 94.8,14.8 94,13.9 93.1,12.8 Z M 105.8,1.6 V 0.9 c 1.5,0 2.5,0.1 3.2,0.1 0.7,0 1.7,0 3.1,-0.1 v 0.7 h -0.8 c -0.7,0 -1.1,0.1 -1.2,0.4 -0.1,0.3 -0.2,1.4 -0.2,3.5 v 4.2 c 0,1.5 0.1,2.6 0.3,3.2 0.2,0.6 0.6,1.1 1.3,1.5 0.7,0.4 1.6,0.6 2.8,0.6 1.2,0 2.2,-0.2 3,-0.7 0.6,-0.3 1,-0.8 1.2,-1.4 0.3,-0.6 0.4,-1.9 0.4,-3.6 v -4 c 0,-1.8 -0.1,-2.9 -0.2,-3.2 -0.2,-0.3 -0.6,-0.4 -1.4,-0.4 h -0.6 V 0.9 c 1.5,0 2.4,0.1 2.8,0.1 0.6,0 1.4,0 2.4,-0.1 v 0.7 h -0.7 c -0.6,0 -0.9,0.1 -1.1,0.5 -0.2,0.3 -0.2,1.4 -0.2,3.2 v 4 c 0,1.8 -0.1,3 -0.3,3.7 -0.2,0.6 -0.5,1.2 -1,1.7 -0.5,0.5 -1.1,0.9 -1.9,1.2 -0.8,0.3 -1.7,0.4 -2.8,0.4 -1.1,0 -2.1,-0.1 -2.9,-0.4 -0.8,-0.3 -1.5,-0.6 -1.9,-1 -0.4,-0.4 -0.7,-0.9 -0.9,-1.4 -0.2,-0.6 -0.3,-1.5 -0.3,-2.9 v -2 -3.3 c 0,-2 -0.1,-3.1 -0.2,-3.3 -0.1,-0.2 -0.5,-0.4 -1.1,-0.4 z m 20.1,1.7 v 7.3 c 0,1.7 0,2.8 0.1,3.5 0,0.5 0.1,0.8 0.2,0.9 0.1,0.1 0.5,0.2 1,0.2 l 0.7,0.1 V 16 c -0.8,0 -1.5,-0.1 -2.1,-0.1 -0.4,0 -1.4,0 -3,0.1 v -0.7 h 0.8 c 0.5,0 0.8,-0.1 0.9,-0.2 0.1,-0.1 0.2,-0.4 0.3,-0.8 0.1,-0.8 0.1,-1.8 0.1,-3.2 V 6 c 0,-1 0,-2 0,-2.9 0,-0.4 -0.1,-0.7 -0.2,-0.8 -0.1,-0.2 -0.2,-0.3 -0.4,-0.4 -0.2,-0.1 -0.4,-0.2 -0.8,-0.2 h -0.7 V 0.9 c 0.9,0 1.6,0.1 2.1,0.1 0.5,0 1.1,0 1.7,-0.1 0.7,0.9 1.4,1.7 2,2.5 0.6,0.8 1.3,1.6 1.9,2.4 l 3.6,4.5 c 1.3,1.6 2.3,2.7 2.8,3.3 V 6.8 c 0,-2.9 0,-4.4 -0.2,-4.7 -0.1,-0.3 -0.5,-0.4 -1.2,-0.5 L 134.7,1.5 V 0.9 c 1.1,0 2,0.1 2.7,0.1 0.7,0 1.5,0 2.5,-0.1 v 0.7 h -0.8 c -0.7,0 -1,0.2 -1.1,0.7 -0.1,0.3 -0.1,1.8 -0.1,4.6 v 4.8 c 0,1.3 0.1,2.8 0.2,4.6 -1,-0.2 -1.5,-0.3 -1.7,-0.3 -0.2,-0.1 -0.3,-0.2 -0.4,-0.3 -0.8,-0.9 -1.6,-1.8 -2.5,-2.9 z m 15.2,12 h 0.7 c 0.7,0 1.1,-0.2 1.2,-0.5 0.1,-0.3 0.2,-1.8 0.2,-4.6 V 6.7 C 143.2,3.9 143.1,2.3 143,2 142.9,1.7 142.5,1.6 142,1.6 h -0.9 V 0.9 c 1.2,0 2.3,0.1 3.5,0.1 1,0 1.8,0 2.6,-0.1 v 0.7 h -0.8 c -0.5,0 -0.8,0.1 -0.9,0.2 -0.1,0.1 -0.2,0.4 -0.2,0.9 0,0.8 -0.1,2.1 -0.1,4 v 3.7 c 0,2.8 0.1,4.3 0.2,4.5 0.1,0.3 0.5,0.4 1.2,0.4 h 0.7 V 16 c -0.9,0 -1.8,-0.1 -2.8,-0.1 -1.2,0 -2.3,0 -3.2,0.1 v -0.7 z m 14,0.9 c -0.3,-0.9 -0.6,-1.8 -1,-2.7 L 150.3,4 c -0.5,-1.4 -0.9,-2.1 -1,-2.2 -0.1,-0.1 -0.4,-0.2 -0.9,-0.2 H 148 V 0.9 c 1.1,0 2.1,0.1 2.8,0.1 0.8,0 1.8,0 3,-0.1 v 0.8 h -1.1 c -0.4,0 -0.6,0 -0.7,0.1 -0.1,0.1 -0.2,0.2 -0.2,0.3 0,0.1 0,0.2 0.1,0.3 l 1.4,3.6 2.9,7.3 2.8,-7 c 0.9,-2.4 1.4,-3.8 1.4,-4.2 0,-0.3 -0.2,-0.5 -0.6,-0.5 h -0.4 L 158.5,1.5 V 0.9 c 0.9,0 1.7,0.1 2.3,0.1 0.6,0 1.4,0 2.4,-0.1 v 0.7 h -0.4 c -0.3,0 -0.6,0.1 -0.7,0.2 -0.1,0.2 -0.4,0.7 -0.8,1.7 l -3.6,8.7 c -0.7,1.6 -1.2,3 -1.4,3.9 h -1.2 z m 13.2,-7.4 v 2.6 1.5 c 0,0.9 0,1.6 0,2 1,0.1 2.1,0.1 3.3,0.1 0.8,0 1.5,0 2,-0.1 0.3,0 0.7,-0.1 1.1,-0.3 0.2,-0.6 0.4,-1.4 0.5,-2.3 h 0.7 c -0.2,1.5 -0.3,2.6 -0.3,3.1 v 0.5 C 174.8,16 174,16 173.2,16 h -1.7 c -1.8,0 -3.2,-0.1 -4.1,-0.1 -0.8,0 -1.9,0 -3.3,0.1 v -0.7 h 0.3 c 0.6,0 1,-0.1 1.2,-0.2 0.2,-0.1 0.3,-0.4 0.3,-0.8 0.1,-0.4 0.1,-1.4 0.1,-3 V 5.5 c 0,-1 0,-1.7 -0.1,-2.3 0,-0.6 -0.1,-1 -0.1,-1.1 0,-0.1 -0.1,-0.2 -0.2,-0.3 -0.1,-0.1 -0.4,-0.1 -0.9,-0.2 H 164 V 0.9 h 1.1 1.1 c 0.6,0 1.1,0 1.4,0 l 4.1,-0.1 h 1.9 c 0.7,0 1.3,0 2,0.1 -0.3,0.8 -0.4,1.9 -0.4,3.3 h -0.7 c 0,-0.8 0,-1.4 -0.1,-1.9 -0.8,-0.3 -1.9,-0.5 -3.1,-0.5 -1,0 -2,0 -3,0.1 0,0.7 0,1.3 0,2 v 1.6 2.2 c 0.7,0 1.3,0.1 1.9,0.1 1.7,0 2.6,-0.1 2.9,-0.2 0.2,-0.1 0.3,-0.5 0.3,-1.1 V 5.9 h 0.7 c 0,1.1 -0.1,1.9 -0.1,2.6 0,0.7 0,1.5 0.1,2.4 h -0.7 v -0.6 c 0,-0.7 -0.1,-1.1 -0.4,-1.2 -0.3,-0.2 -1.2,-0.2 -2.8,-0.2 -0.7,-0.2 -1.3,-0.2 -1.9,-0.1 z m 16.8,-0.5 c 0.7,1 1.6,2.2 2.6,3.5 l 2,2.6 c 0.4,0.5 0.6,0.7 0.7,0.8 0.1,0.1 0.2,0.1 0.4,0.1 h 0.3 V 16 c -0.6,0 -1.1,-0.1 -1.5,-0.1 -0.4,0 -0.8,0 -1.3,0.1 l -3.8,-5.1 C 183.8,10 183.1,9.1 182.2,8.2 l 0.1,-0.4 c 0.4,0 0.7,0.1 0.9,0.1 1.2,0 2.1,-0.3 2.8,-0.9 0.7,-0.6 1,-1.4 1,-2.4 0,-0.9 -0.3,-1.6 -0.9,-2.1 -0.6,-0.5 -1.4,-0.8 -2.5,-0.8 -0.7,0 -1.5,0.1 -2.2,0.4 -0.1,1.1 -0.1,2.3 -0.1,3.6 v 5.1 c 0,2.5 0.1,3.9 0.2,4.2 0.1,0.3 0.5,0.4 1.2,0.4 h 0.8 V 16 c -1.2,0 -2.2,-0.1 -2.9,-0.1 -0.6,0 -1.7,0 -3.3,0.1 v -0.7 h 0.8 c 0.6,0 1,-0.1 1.1,-0.4 0.1,-0.3 0.2,-1.7 0.2,-4.2 v -5 c 0,-2.2 -0.1,-3.4 -0.2,-3.7 -0.1,-0.3 -0.6,-0.4 -1.3,-0.4 h -0.6 V 0.9 c 1.3,0.1 2.3,0.1 3,0.1 0.5,0 1.1,0 2,-0.1 1,0 1.7,0 2.2,0 1.2,0 2.2,0.1 2.8,0.4 0.6,0.3 1.1,0.6 1.4,1.1 0.3,0.5 0.5,1.1 0.5,1.7 0,1 -0.4,1.9 -1.1,2.6 -0.6,0.8 -1.6,1.4 -3,1.6 z m 16.4,-6.7 c -0.2,0.7 -0.3,1.7 -0.3,2.9 h -0.7 V 3.7 c 0,-0.6 -0.1,-0.9 -0.2,-1.1 -0.1,-0.2 -0.5,-0.4 -1.2,-0.6 -0.6,-0.2 -1.3,-0.3 -2,-0.3 -1.1,0 -2,0.3 -2.7,0.9 -0.6,0.6 -1,1.3 -1,2.2 0,0.6 0.1,1 0.4,1.5 0.3,0.4 0.6,0.7 1.1,0.9 0.4,0.2 1.4,0.3 2.9,0.5 1.5,0.1 2.4,0.3 3,0.6 0.5,0.2 0.9,0.6 1.2,1.1 0.3,0.5 0.5,1.1 0.5,1.8 0,1.4 -0.6,2.6 -1.8,3.7 -1.2,1 -2.8,1.5 -4.8,1.5 -0.7,0 -1.4,-0.1 -2.1,-0.2 -0.7,-0.1 -1.4,-0.3 -2.1,-0.6 0.1,-0.9 0.2,-1.9 0.2,-3.3 h 0.7 v 0.5 c 0,0.7 0,1.1 0.1,1.3 0.1,0.2 0.2,0.3 0.5,0.5 0.4,0.3 0.9,0.5 1.4,0.6 0.5,0.1 1.1,0.2 1.7,0.2 1.3,0 2.4,-0.3 3.1,-0.9 0.7,-0.6 1.1,-1.4 1.1,-2.4 0,-0.6 -0.1,-1 -0.4,-1.4 -0.2,-0.4 -0.6,-0.7 -1,-0.9 -0.4,-0.2 -1.3,-0.3 -2.5,-0.4 -1.6,-0.1 -2.7,-0.3 -3.3,-0.6 -0.6,-0.3 -1,-0.7 -1.3,-1.2 -0.3,-0.5 -0.5,-1.2 -0.5,-2 0,-1.4 0.5,-2.5 1.5,-3.4 1,-0.9 2.4,-1.3 4.1,-1.3 0.7,0 1.4,0.1 2.1,0.2 0.8,0 1.5,0.2 2.3,0.5 z m 1.8,13.7 h 0.7 c 0.7,0 1.1,-0.2 1.2,-0.5 0.1,-0.3 0.2,-1.8 0.2,-4.6 V 6.7 c 0,-2.8 -0.1,-4.4 -0.2,-4.7 -0.1,-0.3 -0.5,-0.4 -1,-0.4 h -0.9 V 0.9 c 1.2,0 2.3,0.1 3.5,0.1 1,0 1.8,0 2.6,-0.1 v 0.7 h -0.8 c -0.5,0 -0.8,0.1 -1,0.2 -0.1,0.1 -0.2,0.4 -0.2,0.9 0,0.8 -0.1,2.1 -0.1,4 v 3.7 c 0,2.8 0.1,4.3 0.2,4.5 0.1,0.3 0.5,0.4 1.2,0.4 h 0.7 V 16 c -0.9,0 -1.8,-0.1 -2.8,-0.1 -1.2,0 -2.3,0 -3.2,0.1 V 15.3 Z M 217.8,1.9 c -0.1,1.1 -0.1,2.2 -0.1,3.4 v 6 c 0,2.2 0.1,3.5 0.2,3.7 0.1,0.2 0.5,0.3 1.2,0.3 h 0.8 V 16 c -1.3,0 -2.3,-0.1 -3.2,-0.1 -0.9,0 -1.9,0 -3.2,0.1 v -0.7 h 0.9 c 0.5,0 0.8,-0.1 0.9,-0.2 0.1,-0.1 0.2,-0.4 0.3,-0.7 0.1,-0.8 0.1,-1.9 0.1,-3.2 v -6 c 0,-1.2 0,-2.3 -0.1,-3.3 h -1.1 c -1.7,0 -2.7,0 -2.9,0.1 -0.2,0.1 -0.3,0.4 -0.4,0.9 L 211,4.3 h -0.7 V 3 c 0,-0.5 0,-1.2 -0.1,-2.2 3.8,0 6.1,0.1 6.7,0.1 l 5.9,-0.1 c -0.1,1.2 -0.2,2.3 -0.2,3.5 h -0.7 L 222,3 C 222,2.5 221.9,2.2 221.8,2.1 221.7,2 221.6,2 221.3,2 220.5,1.9 219.6,1.9 218.6,1.9 Z m 13.4,6.6 c 0.4,-0.7 1.1,-1.8 2.1,-3.4 l 2.4,-4.2 h 1.6 v 0.3 c -0.9,1 -1.9,2.4 -3.2,4.4 -1.3,1.9 -2,3.3 -2.3,3.9 -0.1,0.2 -0.1,0.8 -0.1,1.8 0,1.3 0,2.3 0.1,3 0,0.4 0.1,0.6 0.2,0.7 0.1,0.1 0.5,0.1 1.1,0.2 l 0.8,0.1 V 16 c -1.2,0 -2.2,-0.1 -2.9,-0.1 l -3.4,0.1 v -0.7 h 0.9 c 0.6,0 1,-0.1 1.1,-0.4 0.1,-0.2 0.2,-1.4 0.2,-3.3 0,-0.6 0,-1.2 -0.1,-1.9 C 228.8,8 227.9,6.6 227.2,5.3 226.4,4.1 225.8,3.2 225.2,2.6 224.9,2.3 224.7,2.1 224.4,2 224.2,1.9 223.8,1.9 223.3,1.9 V 1.3 C 223.6,1.2 224.2,1.1 225,1 l 0.8,-0.2 c 0.3,0.1 0.6,0.3 0.8,0.5 0.4,0.3 0.9,1.1 1.6,2.3 0.8,0.8 1.7,2.5 3,4.9 z"
        id="path13"
        style="fill:#000000"/>
	</g>
</g>
</svg>
