<?xml version="1.0" encoding="UTF-8" standalone="no"?>
<!-- Created with Inkscape (http://www.inkscape.org/) -->

<svg
  version="1.1"
  height="220"
  width="930"
  id="svg10397"
  sodipodi:docname="Tallinna-Ülikool-logo.svg"
  inkscape:version="1.1.2 (b8e25be833, 2022-02-05)"
  xmlns:inkscape="http://www.inkscape.org/namespaces/inkscape"
  xmlns:sodipodi="http://sodipodi.sourceforge.net/DTD/sodipodi-0.dtd"
  xmlns="http://www.w3.org/2000/svg"
  xmlns:rdf="http://www.w3.org/1999/02/22-rdf-syntax-ns#"
  xmlns:cc="http://creativecommons.org/ns#"
  xmlns:dc="http://purl.org/dc/elements/1.1/">
  <sodipodi:namedview
    id="namedview29989"
    pagecolor="#ffffff"
    bordercolor="#666666"
    borderopacity="1.0"
    inkscape:pageshadow="2"
    inkscape:pageopacity="0.0"
    inkscape:pagecheckerboard="0"
    showgrid="false"
    inkscape:zoom="0.70107583"
    inkscape:cx="469.27876"
    inkscape:cy="206.1118"
    inkscape:window-width="1920"
    inkscape:window-height="1001"
    inkscape:window-x="-9"
    inkscape:window-y="-9"
    inkscape:window-maximized="1"
    inkscape:current-layer="svg10397"/>
  <defs
    id="defs10399"/>
  <metadata
    id="metadata10402">
    <rdf:RDF>
      <cc:Work
        rdf:about="">
        <dc:format>image/svg+xml</dc:format>
        <dc:type
          rdf:resource="http://purl.org/dc/dcmitype/StillImage"/>
      </cc:Work>
    </rdf:RDF>
  </metadata>
  <g
    transform="translate(42.65238,-433.68181)"
    id="layer1"
    style="fill:#000000">
    <g
      transform="matrix(3.1683035,0,0,3.1683035,-1497.1774,-1050.8332)"
      id="g10442"
      style="fill:#000000">
      <path
        d="m 518.76,500.06274 c -0.0762,1.04625 -0.115,2.14625 -0.115,3.305 v 5.96125 c 0,2.21625 0.055,3.43875 0.1675,3.66625 0.10875,0.22625 0.50625,0.34125 1.19125,0.34125 h 0.78375 v 0.6475 c -1.23875,-0.05 -2.28875,-0.075 -3.14875,-0.075 -0.86625,0 -1.9075,0.025 -3.125,0.075 v -0.6475 h 0.8775 c 0.45875,0 0.7575,-0.0612 0.89875,-0.18625 0.13875,-0.12 0.225,-0.36 0.26125,-0.71375 0.07,-0.8175 0.105,-1.86875 0.105,-3.16 v -5.9725 c 0,-1.17625 -0.025,-2.25875 -0.075,-3.24125 H 515.515 c -1.72,0 -2.66875,0.04 -2.8425,0.11875 -0.17625,0.0813 -0.29,0.39 -0.34625,0.9325 l -0.145,1.395 H 511.53 l 0.0225,-1.24125 c 0,-0.50125 -0.0462,-1.22125 -0.1375,-2.16125 3.77875,0.0512 6.00125,0.0775 6.66625,0.0775 l 5.805,-0.0775 c -0.135,1.1775 -0.21125,2.31125 -0.23,3.4025 H 523.005 l -0.105,-1.36375 c -0.0437,-0.4725 -0.10375,-0.7525 -0.1775,-0.83875 -0.0788,-0.0863 -0.25,-0.13875 -0.515,-0.16125 -0.77125,-0.0537 -1.6475,-0.0825 -2.6275,-0.0825 h -0.82"
        id="path7353"
        style="fill:#000000;fill-opacity:1;fill-rule:nonzero;stroke:none"/>
      <path
        d="m 528.18375,508.09399 h 5.29125 l -2.645,-6.33625 z m 5.66375,0.8425 H 527.8 l -0.72,1.71875 c -0.46625,1.11625 -0.7,1.80125 -0.7,2.0525 0,0.16 0.0412,0.27625 0.13125,0.345 0.085,0.07 0.30625,0.125 0.66,0.16625 l 1.00375,0.1175 v 0.6475 c -0.66625,-0.05 -1.41875,-0.075 -2.255,-0.075 -1.00125,0 -1.8825,0.025 -2.63875,0.075 v -0.6475 l 0.31125,-0.0138 c 0.485,-0.0137 0.80125,-0.0625 0.94375,-0.14875 0.14375,-0.0888 0.2925,-0.30375 0.45375,-0.645 0.4925,-1.0025 0.99625,-2.08875 1.51125,-3.25375 l 2.865,-6.51625 c 0.76375,-1.73125 1.2875,-2.98625 1.565,-3.7675 h 0.725 l 5.27625,12.31375 c 0.35375,0.8375 0.58875,1.34125 0.70625,1.5125 0.12,0.17 0.2525,0.29125 0.40625,0.365 0.1525,0.0738 0.49625,0.125 1.0325,0.15375 v 0.6475 c -0.8925,-0.05 -1.745,-0.075 -2.5575,-0.075 -0.7525,0 -1.7675,0.025 -3.04,0.075 v -0.6475 l 1.03625,-0.0638 c 0.37,-0.0275 0.58625,-0.0662 0.655,-0.11625 0.10375,-0.0775 0.155,-0.1725 0.155,-0.2925 0,-0.12625 -0.10375,-0.45125 -0.30875,-0.98375 l -1.17,-2.94375"
        id="path7355"
        style="fill:#000000;fill-opacity:1;fill-rule:nonzero;stroke:none"/>
      <path
        d="m 544.47125,512.93774 c 0.68375,0.0362 1.3475,0.055 1.9975,0.055 1.31125,0 2.33875,-0.0362 3.075,-0.1075 0.51875,-0.055 1.0525,-0.15625 1.605,-0.30375 l 0.62875,-2.46 h 0.65 c -0.18125,1.325 -0.32125,2.56125 -0.42,3.71 -0.62875,0.1075 -1.485,0.16125 -2.5725,0.16125 l -4.97625,-0.0838 c -0.67,0 -1.71125,0.025 -3.12375,0.075 v -0.53375 c 0.56,-0.24375 0.89,-0.50625 0.995,-0.7825 0.0987,-0.28 0.1525,-1.38375 0.1525,-3.31125 v -5.745 c 0,-2.09125 -0.0512,-3.255 -0.1525,-3.49375 -0.1,-0.24125 -0.38625,-0.36125 -0.8525,-0.36125 H 540.34 v -0.65 c 1.665,0.0512 2.76875,0.0775 3.31375,0.0775 0.72875,0 1.7125,-0.0263 2.95875,-0.0775 v 0.65 h -1.295 c -0.37,0 -0.6025,0.10625 -0.7,0.3175 -0.1,0.21375 -0.14625,1.09625 -0.14625,2.65 v 6.6525 l 0.0312,2.945 -0.0312,0.61625"
        id="path7357"
        style="fill:#000000;fill-opacity:1;fill-rule:nonzero;stroke:none"/>
      <path
        d="m 557.77,512.93774 c 0.6825,0.0362 1.3475,0.055 1.99875,0.055 1.31,0 2.3375,-0.0362 3.0775,-0.1075 0.51625,-0.055 1.0475,-0.15625 1.60125,-0.30375 l 0.6275,-2.46 h 0.65 c -0.18125,1.325 -0.32,2.56125 -0.42,3.71 -0.62875,0.1075 -1.485,0.16125 -2.5725,0.16125 l -4.975,-0.0838 c -0.67,0 -1.71,0.025 -3.12625,0.075 v -0.53375 c 0.5625,-0.24375 0.89375,-0.50625 0.99625,-0.7825 0.1025,-0.28 0.1525,-1.38375 0.1525,-3.31125 v -5.745 c 0,-2.09125 -0.05,-3.255 -0.15,-3.49375 -0.1025,-0.24125 -0.385,-0.36125 -0.85375,-0.36125 h -1.13875 v -0.65 c 1.66625,0.0512 2.77,0.0775 3.31625,0.0775 0.725,0 1.7125,-0.0263 2.95625,-0.0775 v 0.65 h -1.295 c -0.36875,0 -0.6025,0.10625 -0.6975,0.3175 -0.0987,0.21375 -0.1475,1.09625 -0.1475,2.65 v 6.6525 l 0.0325,2.945 -0.0325,0.61625"
        id="path7359"
        style="fill:#000000;fill-opacity:1;fill-rule:nonzero;stroke:none"/>
      <path
        d="m 567.22875,513.33649 h 0.66 c 0.65125,0 1.04,-0.1575 1.1725,-0.4725 0.1275,-0.315 0.19375,-1.8175 0.19375,-4.5125 v -3.54875 c 0,-2.7925 -0.0588,-4.3325 -0.17,-4.6175 -0.11125,-0.285 -0.4475,-0.42875 -1.00625,-0.42875 h -0.85 v -0.65 c 1.165,0.0512 2.3175,0.0775 3.45625,0.0775 0.95125,0 1.81,-0.0263 2.58625,-0.0775 v 0.65 h -0.8125 c -0.5025,0 -0.815,0.06 -0.94,0.1775 -0.1275,0.12 -0.2025,0.42 -0.2225,0.9 -0.035,0.74625 -0.0525,2.0775 -0.0525,3.99 v 3.61125 c 0,2.7175 0.06,4.21125 0.17875,4.4875 0.11875,0.275 0.50125,0.41375 1.15,0.41375 h 0.69875 v 0.6475 c -0.86625,-0.05 -1.8075,-0.075 -2.83,-0.075 -1.18625,0 -2.2575,0.025 -3.2125,0.075 v -0.6475"
        id="path7361"
        style="fill:#000000;fill-opacity:1;fill-rule:nonzero;stroke:none"/>
      <path
        d="m 578.98625,501.44524 v 7.24375 c 0,1.64875 0.0337,2.8 0.0962,3.45 0.0487,0.49625 0.13125,0.79875 0.24875,0.9075 0.115,0.10875 0.45,0.1875 1.0075,0.23625 l 0.67375,0.0538 v 0.6475 c -0.76,-0.05 -1.4525,-0.075 -2.0675,-0.075 -0.4275,0 -1.40625,0.025 -2.9425,0.075 v -0.6475 h 0.7575 c 0.455,0 0.75375,-0.0638 0.89125,-0.19 0.14125,-0.125 0.23,-0.37375 0.265,-0.74375 0.0775,-0.765 0.11625,-1.81125 0.11625,-3.13 v -5.20375 c 0,-0.97625 -0.0125,-1.9425 -0.0325,-2.9 -0.0162,-0.40375 -0.0662,-0.68 -0.16375,-0.83125 -0.0925,-0.15125 -0.2325,-0.28375 -0.41125,-0.40375 -0.1825,-0.1175 -0.43625,-0.1775 -0.76375,-0.1775 h -0.64875 v -0.65 c 0.88375,0.0512 1.5625,0.0775 2.03,0.0775 0.49875,0 1.0475,-0.0263 1.64625,-0.0775 0.6875,0.8425 1.33625,1.6625 1.94625,2.46125 0.6075,0.79625 1.24,1.60125 1.89375,2.41 l 3.57125,4.39 c 1.2875,1.575 2.2175,2.66875 2.7875,3.2825 v -6.715 c 0,-2.81 -0.05,-4.34625 -0.15,-4.60875 -0.10125,-0.26 -0.505,-0.42625 -1.2075,-0.4975 l -0.7825,-0.0725 v -0.65 c 1.1225,0.0512 1.99375,0.0775 2.61375,0.0775 0.64875,0 1.48375,-0.0263 2.51125,-0.0775 v 0.65 h -0.81 c -0.65125,0 -1.02375,0.215 -1.1225,0.64875 -0.0638,0.285 -0.095,1.8125 -0.095,4.58125 v 4.7175 c 0,1.2675 0.055,2.78375 0.1675,4.54875 -0.945,-0.1475 -1.495,-0.25125 -1.64875,-0.31875 -0.15125,-0.065 -0.2975,-0.175 -0.4375,-0.3275 -0.77125,-0.85875 -1.58125,-1.8125 -2.43,-2.86 l -7.51,-9.30125"
        id="path7363"
        style="fill:#000000;fill-opacity:1;fill-rule:nonzero;stroke:none"/>
      <path
        d="m 597.43125,501.44524 v 7.24375 c 0,1.64875 0.0325,2.8 0.095,3.45 0.0488,0.49625 0.13375,0.79875 0.2475,0.9075 0.115,0.10875 0.4525,0.1875 1.01,0.23625 l 0.675,0.0538 v 0.6475 c -0.7625,-0.05 -1.4525,-0.075 -2.07,-0.075 -0.42625,0 -1.4075,0.025 -2.93875,0.075 v -0.6475 h 0.755 c 0.455,0 0.7525,-0.0638 0.89125,-0.19 0.14125,-0.125 0.22875,-0.37375 0.26375,-0.74375 0.075,-0.765 0.115,-1.81125 0.115,-3.13 v -5.20375 c 0,-0.97625 -0.0113,-1.9425 -0.03,-2.9 -0.015,-0.40375 -0.0688,-0.68 -0.16375,-0.83125 -0.0937,-0.15125 -0.23,-0.28375 -0.41125,-0.40375 -0.1825,-0.1175 -0.4375,-0.1775 -0.76625,-0.1775 H 594.455 v -0.65 c 0.88625,0.0512 1.5625,0.0775 2.0325,0.0775 0.49875,0 1.04625,-0.0263 1.6425,-0.0775 0.68875,0.8425 1.34,1.6625 1.94875,2.46125 0.61,0.79625 1.24,1.60125 1.895,2.41 l 3.57,4.39 c 1.28875,1.575 2.21875,2.66875 2.78875,3.2825 v -6.715 c 0,-2.81 -0.0513,-4.34625 -0.15,-4.60875 -0.1,-0.26 -0.505,-0.42625 -1.21,-0.4975 l -0.7825,-0.0725 v -0.65 c 1.1225,0.0512 1.99625,0.0775 2.615,0.0775 0.65,0 1.48625,-0.0263 2.51,-0.0775 v 0.65 h -0.80875 c -0.65125,0 -1.02375,0.215 -1.12125,0.64875 -0.0662,0.285 -0.0962,1.8125 -0.0962,4.58125 v 4.7175 c 0,1.2675 0.0537,2.78375 0.16625,4.54875 -0.94375,-0.1475 -1.49375,-0.25125 -1.64625,-0.31875 -0.1525,-0.065 -0.2975,-0.175 -0.435,-0.3275 -0.775,-0.85875 -1.58625,-1.8125 -2.43375,-2.86 l -7.5088,-9.30125"
        id="path7365"
        style="fill:#000000;fill-opacity:1;fill-rule:nonzero;stroke:none"/>
      <path
        d="m 616.50625,508.09399 h 5.295 l -2.645,-6.33625 z m 5.6675,0.8425 H 616.125 l -0.72125,1.71875 c -0.46625,1.11625 -0.7,1.80125 -0.7,2.0525 0,0.16 0.045,0.27625 0.13,0.345 0.0888,0.07 0.30875,0.125 0.665,0.16625 l 1.00375,0.1175 v 0.6475 c -0.66875,-0.05 -1.42375,-0.075 -2.2575,-0.075 -1,0 -1.88,0.025 -2.64,0.075 v -0.6475 l 0.315,-0.0138 c 0.48625,-0.0137 0.79875,-0.0625 0.9425,-0.14875 0.14125,-0.0888 0.29125,-0.30375 0.455,-0.645 0.49125,-1.0025 0.99625,-2.08875 1.51,-3.25375 l 2.8675,-6.51625 c 0.76,-1.73125 1.28375,-2.98625 1.56125,-3.7675 h 0.72875 l 5.275,12.31375 c 0.35125,0.8375 0.58625,1.34125 0.705,1.5125 0.11625,0.17 0.255,0.29125 0.4075,0.365 0.15125,0.0738 0.49375,0.125 1.03125,0.15375 v 0.6475 c -0.895,-0.05 -1.745,-0.075 -2.555,-0.075 -0.755,0 -1.7725,0.025 -3.04375,0.075 v -0.6475 l 1.03375,-0.0638 c 0.37125,-0.0275 0.59125,-0.0662 0.66125,-0.11625 0.10375,-0.0775 0.15125,-0.1725 0.15125,-0.2925 0,-0.12625 -0.1025,-0.45125 -0.30875,-0.98375 l -1.16875,-2.94375"
        id="path7367"
        style="fill:#000000;fill-opacity:1;fill-rule:nonzero;stroke:none"/>
      <path
        d="m 647.82,495.70149 c 0.315,0 0.58375,0.1125 0.80875,0.335 0.22375,0.22625 0.33625,0.49375 0.33625,0.80625 0,0.32125 -0.1125,0.595 -0.33625,0.82 -0.225,0.2225 -0.49375,0.33375 -0.80875,0.33375 -0.315,0 -0.58625,-0.11125 -0.81,-0.33375 -0.2275,-0.225 -0.34,-0.49875 -0.34,-0.82 0,-0.3125 0.11,-0.58 0.335,-0.80625 0.22125,-0.2225 0.4925,-0.335 0.815,-0.335 m -4.51125,0 c 0.31375,0 0.58125,0.1125 0.80625,0.335 0.225,0.22625 0.3375,0.49375 0.3375,0.80625 0,0.32125 -0.1125,0.595 -0.3375,0.82 -0.225,0.2225 -0.4925,0.33375 -0.80625,0.33375 -0.32375,0 -0.595,-0.11125 -0.81875,-0.33375 -0.2225,-0.225 -0.3325,-0.49875 -0.3325,-0.82 0,-0.3125 0.11,-0.58 0.3325,-0.80625 0.22375,-0.2225 0.495,-0.335 0.81875,-0.335 m -6.125,4.055 v -0.65 c 1.43625,0.0512 2.48,0.0775 3.1325,0.0775 0.685,0 1.69375,-0.0263 3.02625,-0.0775 v 0.65 h -0.76375 c -0.6525,0 -1.05,0.125 -1.18,0.375 -0.13625,0.25125 -0.1975,1.385 -0.1975,3.40375 v 4.0925 c 0,1.4975 0.0825,2.5375 0.24375,3.12375 0.16375,0.58375 0.59,1.07875 1.275,1.48125 0.68375,0.4025 1.605,0.60625 2.7475,0.60625 1.18375,0 2.17875,-0.2175 2.99,-0.64875 0.56375,-0.2975 0.96875,-0.76375 1.2275,-1.3925 0.25625,-0.6325 0.38875,-1.82625 0.38875,-3.58875 v -3.93375 c 0,-1.82375 -0.0838,-2.86625 -0.24375,-3.12625 -0.16375,-0.26125 -0.61625,-0.3925 -1.35375,-0.3925 h -0.54375 v -0.65 c 1.445,0.0512 2.36375,0.0775 2.75625,0.0775 0.6375,0 1.42375,-0.0263 2.37125,-0.0775 v 0.65 h -0.72125 c -0.55375,0 -0.9125,0.14875 -1.07125,0.445 -0.15875,0.29625 -0.2375,1.335 -0.2375,3.11875 v 3.91875 c 0,1.79125 -0.0925,2.99625 -0.265,3.62 -0.18125,0.62375 -0.50625,1.18625 -0.98,1.6875 -0.47125,0.5 -1.1,0.89875 -1.88875,1.19125 -0.78625,0.2925 -1.71125,0.43875 -2.77625,0.43875 -1.09875,0 -2.05875,-0.13125 -2.8875,-0.39125 -0.82375,-0.26125 -1.44625,-0.58375 -1.86375,-0.9675 -0.415,-0.38125 -0.71625,-0.85125 -0.9025,-1.40625 -0.1825,-0.5525 -0.275,-1.495 -0.275,-2.82625 l 0.02,-1.98375 v -3.18875 c 0,-1.96125 -0.0588,-3.06375 -0.17625,-3.3 -0.1125,-0.2375 -0.4825,-0.35625 -1.10375,-0.35625 h -0.7475"
        id="path7369"
        style="fill:#000000;fill-opacity:1;fill-rule:nonzero;stroke:none"/>
      <path
        d="m 659.305,512.93774 c 0.6875,0.0362 1.35,0.055 1.99875,0.055 1.31125,0 2.33875,-0.0362 3.07875,-0.1075 0.5175,-0.055 1.05,-0.15625 1.60125,-0.30375 l 0.6275,-2.46 h 0.6525 c -0.18125,1.325 -0.3175,2.56125 -0.42,3.71 -0.63,0.1075 -1.4875,0.16125 -2.57375,0.16125 l -4.975,-0.0838 c -0.66875,0 -1.71125,0.025 -3.125,0.075 v -0.53375 c 0.56125,-0.24375 0.89375,-0.50625 0.99375,-0.7825 0.1025,-0.28 0.15375,-1.38375 0.15375,-3.31125 v -5.745 c 0,-2.09125 -0.0513,-3.255 -0.15375,-3.49375 -0.1,-0.24125 -0.38375,-0.36125 -0.8475,-0.36125 h -1.1375 v -0.65 c 1.6625,0.0512 2.76625,0.0775 3.3075,0.0775 0.73,0 1.71625,-0.0263 2.96125,-0.0775 v 0.65 h -1.29625 c -0.37125,0 -0.6025,0.10625 -0.7,0.3175 -0.095,0.21375 -0.14625,1.09625 -0.14625,2.65 v 6.6525 l 0.0337,2.945 -0.0337,0.61625"
        id="path7371"
        style="fill:#000000;fill-opacity:1;fill-rule:nonzero;stroke:none"/>
      <path
        d="m 668.5475,513.33649 h 0.66375 c 0.6475,0 1.04,-0.1575 1.17,-0.4725 0.13125,-0.315 0.195,-1.8175 0.195,-4.5125 v -3.54875 c 0,-2.7925 -0.0563,-4.3325 -0.16875,-4.6175 -0.10875,-0.285 -0.44875,-0.42875 -1.0075,-0.42875 h -0.8525 v -0.65 c 1.1675,0.0512 2.3225,0.0775 3.46,0.0775 0.94875,0 1.81375,-0.0263 2.5875,-0.0775 v 0.65 h -0.815 c -0.50125,0 -0.81375,0.06 -0.94,0.1775 -0.1275,0.12 -0.2,0.42 -0.2225,0.9 -0.0337,0.74625 -0.0512,2.0775 -0.0512,3.99 v 3.61125 c 0,2.7175 0.0587,4.21125 0.17875,4.4875 0.11875,0.275 0.5025,0.41375 1.15125,0.41375 h 0.69875 v 0.6475 c -0.86875,-0.05 -1.80875,-0.075 -2.8275,-0.075 -1.18875,0 -2.26,0.025 -3.22,0.075 v -0.6475"
        id="path7373"
        style="fill:#000000;fill-opacity:1;fill-rule:nonzero;stroke:none"/>
      <path
        d="m 683.49625,505.71274 7.0975,6.67875 0.65375,0.62125 c 0.1325,0.13 0.26375,0.2175 0.39875,0.26 0.13625,0.0412 0.36625,0.0638 0.67375,0.0638 v 0.6475 c -0.57375,-0.05 -1.0725,-0.075 -1.50625,-0.075 -0.455,0 -0.9525,0.025 -1.49,0.075 l -7.195,-6.84375 c -0.24375,-0.22875 -0.3975,-0.34375 -0.44875,-0.34375 -0.14625,0 -0.22,0.135 -0.22,0.4075 v 3.19625 c 0,1.55875 0.03,2.41 0.0925,2.5575 0.1075,0.25125 0.48625,0.37875 1.1425,0.37875 h 0.78875 v 0.6475 c -1.1425,-0.05 -2.1575,-0.075 -3.04625,-0.075 -0.9275,0 -1.92625,0.025 -2.99375,0.075 v -0.6475 h 0.8475 c 0.56125,0 0.89875,-0.105 1.01125,-0.31125 0.11125,-0.205 0.165,-1.0925 0.165,-2.66375 v -7.00375 c 0,-1.92 -0.0537,-3 -0.165,-3.24 -0.1125,-0.24 -0.45,-0.36125 -1.01125,-0.36125 h -0.8475 v -0.65 c 1.2875,0.0512 2.215,0.0775 2.79375,0.0775 0.4175,0 1.49875,-0.0263 3.24625,-0.0775 v 0.65 l -0.835,0.0312 c -0.475,0.02 -0.77875,0.0863 -0.905,0.19375 -0.13,0.11 -0.205,0.3225 -0.2375,0.6425 -0.0337,0.3225 -0.0463,1.24625 -0.0463,2.77375 v 2.8225 h 0.14375 c 0.57125,-0.4675 1.0675,-0.89375 1.4775,-1.28 0.4075,-0.3875 1.08375,-1.06375 2.02375,-2.035 l 2.96875,-3.0725 v -0.72625 c 0.7675,0.0512 1.40125,0.0775 1.9025,0.0775 0.52,0 1.09875,-0.0263 1.7325,-0.0775 v 0.65 h -0.56375 c -0.5,0 -0.925,0.0962 -1.27375,0.2875 -0.35,0.1925 -1.15,0.86625 -2.415,2.02375 l -3.96,3.645"
        id="path7375"
        style="fill:#000000;fill-opacity:1;fill-rule:nonzero;stroke:none"/>
      <path
        d="m 694.95625,505.68649 c 0,1.56875 0.26375,2.93125 0.80125,4.09375 0.53875,1.16125 1.26125,2.03125 2.1625,2.60875 0.90125,0.58 1.93125,0.87 3.09375,0.87 1.07375,0 2.01375,-0.24625 2.8225,-0.73875 0.805,-0.4925 1.4375,-1.2275 1.89875,-2.205 0.46375,-0.9775 0.69625,-2.165 0.69625,-3.56625 0,-1.47125 -0.25625,-2.72625 -0.77125,-3.77 -0.51125,-1.04375 -1.20625,-1.83 -2.0975,-2.355 -0.88625,-0.5275 -1.93625,-0.79125 -3.155,-0.79125 -1.11,0 -2.065,0.23375 -2.8725,0.69625 -0.80375,0.46625 -1.43625,1.1475 -1.8975,2.0425 -0.45875,0.89875 -0.68125,1.9375 -0.68125,3.115 m -2.14375,0.85375 c 0,-2.28625 0.7375,-4.13 2.2125,-5.53 1.47375,-1.395 3.4425,-2.09625 5.9,-2.09625 2.4125,0 4.2975,0.65 5.67,1.94875 1.36375,1.29375 2.0525,3.01875 2.0525,5.16625 0,2.31625 -0.7975,4.2525 -2.385,5.81125 -1.5875,1.5575 -3.58625,2.33625 -6.00125,2.33625 -1.51625,0 -2.815,-0.305 -3.90875,-0.9175 -1.09625,-0.6125 -1.9575,-1.505 -2.595,-2.68 -0.63,-1.17625 -0.945,-2.5225 -0.945,-4.03875"
        id="path7377"
        style="fill:#000000;fill-opacity:1;fill-rule:nonzero;stroke:none"/>
      <path
        d="m 712.435,505.68649 c 0,1.56875 0.2675,2.93125 0.805,4.09375 0.54,1.16125 1.26,2.03125 2.15875,2.60875 0.905,0.58 1.935,0.87 3.095,0.87 1.075,0 2.01625,-0.24625 2.825,-0.73875 0.80125,-0.4925 1.4375,-1.2275 1.89875,-2.205 0.46,-0.9775 0.68875,-2.165 0.68875,-3.56625 0,-1.47125 -0.25125,-2.72625 -0.75875,-3.77 -0.5125,-1.04375 -1.21375,-1.83 -2.1025,-2.355 -0.88875,-0.5275 -1.94125,-0.79125 -3.15125,-0.79125 -1.11125,0 -2.07375,0.23375 -2.87625,0.69625 -0.80625,0.46625 -1.4375,1.1475 -1.895,2.0425 -0.46125,0.89875 -0.6875,1.9375 -0.6875,3.115 m -2.14375,0.85375 c 0,-2.28625 0.74125,-4.13 2.21375,-5.53 1.4775,-1.395 3.445,-2.09625 5.90375,-2.09625 2.4075,0 4.29875,0.65 5.66375,1.94875 1.3725,1.29375 2.05625,3.01875 2.05625,5.16625 0,2.31625 -0.79625,4.2525 -2.38375,5.81125 -1.58625,1.5575 -3.59125,2.33625 -6.0025,2.33625 -1.51125,0 -2.815,-0.305 -3.90875,-0.9175 -1.09375,-0.6125 -1.95625,-1.505 -2.58875,-2.68 -0.63375,-1.17625 -0.95375,-2.5225 -0.95375,-4.03875"
        id="path7379"
        style="fill:#000000;fill-opacity:1;fill-rule:nonzero;stroke:none"/>
      <path
        d="m 731.83375,512.93774 c 0.68625,0.0362 1.3525,0.055 2,0.055 1.3125,0 2.33875,-0.0362 3.0825,-0.1075 0.51625,-0.055 1.045,-0.15625 1.595,-0.30375 l 0.63,-2.46 h 0.65375 c -0.1825,1.325 -0.325,2.56125 -0.425,3.71 -0.625,0.1075 -1.48125,0.16125 -2.5675,0.16125 l -4.97625,-0.0838 c -0.67125,0 -1.71125,0.025 -3.125,0.075 v -0.53375 c 0.55875,-0.24375 0.89125,-0.50625 0.99375,-0.7825 0.1025,-0.28 0.15375,-1.38375 0.15375,-3.31125 v -5.745 c 0,-2.09125 -0.0513,-3.255 -0.15125,-3.49375 -0.105,-0.24125 -0.3875,-0.36125 -0.85,-0.36125 h -1.1425 v -0.65 c 1.6625,0.0512 2.76875,0.0775 3.31625,0.0775 0.7275,0 1.70875,-0.0263 2.95625,-0.0775 v 0.65 h -1.29375 c -0.37125,0 -0.60375,0.10625 -0.69875,0.3175 -0.1,0.21375 -0.15125,1.09625 -0.15125,2.65 v 6.6525 l 0.0312,2.945 -0.0312,0.61625"
        id="path7381"
        style="fill:#000000;fill-opacity:1;fill-rule:nonzero;stroke:none"/>
      <path
        d="m 460.22625,516.62524 c 0.26125,-0.006 0.52625,-0.006 0.79625,-0.006 4.785,0 9.32625,0.855 13.40875,2.405 l 0.006,-20.38 c 0,-3.79375 1.42625,-5.855 3.46125,-7.23125 1.97125,1.39625 3.505,3.48625 3.505,7.23125 l -0.045,23.9425 c 1.72125,1.16125 3.295,2.46875 4.67875,3.89625 l 0.0337,-27.94125 c 0,-6.3675 -3.3825,-9.90625 -7.0975,-12.09375 -0.355,-0.17875 -0.71875,-0.41 -1.05375,-0.525 -0.3225,0.12875 -0.6725,0.30375 -1.06125,0.525 -3.5937,2.05005 -7.0962,5.7388 -7.0962,12.0938 l -0.0112,15.55375 h -4.8475 l -0.0188,-15.2275 c 0,-12.61375 5.52875,-19.27 12.9275,-23.47625 6.94125,4.20625 12.93125,10.86625 12.93125,23.47625 l 0.0163,15.2275 h 4.6825 l -0.0213,-15.5075 c 0,-14.98 -7.8,-23.1725 -16.76625,-28.465 0,0 -0.70625,-0.42 -0.8425,-0.4525 -0.13375,0.0325 -0.83875,0.4525 -0.83875,0.4525 -8.61875,4.88375 -16.76875,13.485 -16.76875,28.465 l 0.0213,18.0375"
        id="path7383"
        style="fill:#000000;fill-opacity:1;fill-rule:evenodd;stroke:none"/>
    </g>
  </g>
</svg>
